<?xml version="1.0" encoding="UTF-8"?>
<svg width="32px" height="39px" viewBox="0 0 32 39" version="1.1" xmlns="http://www.w3.org/2000/svg" xmlns:xlink="http://www.w3.org/1999/xlink">
    <!-- Generator: Sketch 46.2 (44496) - http://www.bohemiancoding.com/sketch -->
    <title>Icon</title>
    <desc>Created with Sketch.</desc>
    <defs>
        <path d="M11.7945412,0.0153329035 L0.00505480335,0.0153329035 L0.00505480335,29.4865214 L31.6767677,29.4865214 L31.6767677,0.0153329035 L19.7979798,0.0153329035 L19.7979798,3.70685579 L11.7945412,3.70685579 L11.7945412,0.0153329035 Z" id="path-1"></path>
    </defs>
    <g id="Desktop-1440px" stroke="none" stroke-width="1" fill="none" fill-rule="evenodd">
        <g id="DD---How-it-works" transform="translate(-567.000000, -169.000000)">
            <g id="How-It-Works-Dropdowns" transform="translate(547.000000, 89.000000)">
                <g id="For-Agencies" transform="translate(20.000000, 80.000000)">
                    <g id="Icon">
                        <g id="analytics" transform="translate(0.000000, 0.106598)">
                            <g id="Group-3" transform="translate(0.000000, 8.727273)">
                                <mask id="mask-2" fill="white">
                                    <use xlink:href="#path-1"></use>
                                </mask>
                                <g id="Clip-2"></g>
                                <path d="M30.4743142,0 L1.20245347,0 C0.539347518,0 0,0.539347518 0,1.20245347 L0,23.3899231 C0,24.053029 0.539347518,24.5924608 1.20245347,24.5924608 L12.2427337,24.5924608 L12.2427337,28.4602278 L7.47495895,28.4602278 C7.19584956,28.4602278 6.96947862,28.686346 6.96947862,28.9657081 C6.96947862,29.2447333 7.19584956,29.4711885 7.47495895,29.4711885 L24.2018087,29.4711885 C24.4809181,29.4711885 24.7072891,29.2447333 24.7072891,28.9657081 C24.7072891,28.686346 24.4809181,28.4602278 24.2018087,28.4602278 L19.4343709,28.4602278 L19.4343709,24.5924608 L30.4743142,24.5924608 C31.1374202,24.5924608 31.6767677,24.053029 31.6767677,23.3899231 L31.6767677,1.20245347 C31.6767677,0.539347518 31.1374202,0 30.4743142,0 Z M13.2536944,28.4598908 L18.4234103,28.4598908 L18.4234103,24.5924608 L13.2536944,24.5924608 L13.2536944,28.4598908 Z M30.665807,23.3899231 C30.665807,23.4936308 30.5782747,23.5815001 30.4743142,23.5815001 L1.20245347,23.5815001 C1.09849302,23.5815001 1.01096067,23.4936308 1.01096067,23.3899231 L1.01096067,1.20245347 C1.01096067,1.09849302 1.09849302,1.01096067 1.20245347,1.01096067 L30.4743142,1.01096067 C30.5782747,1.01096067 30.665807,1.09849302 30.665807,1.20245347 L30.665807,23.3899231 Z" id="Fill-1" fill="#455053" mask="url(#mask-2)"></path>
                                <path d="M30.665807,23.405256 C30.665807,23.5089637 30.5782747,23.596833 30.4743142,23.596833 L1.20245347,23.596833 C1.09849302,23.596833 1.01096067,23.5089637 1.01096067,23.405256 L1.01096067,1.21778637 C1.01096067,1.11382592 1.09849302,1.02629357 1.20245347,1.02629357 L30.4743142,1.02629357 C30.5782747,1.02629357 30.665807,1.11382592 30.665807,1.21778637 L30.665807,23.405256 Z" id="Path" fill="#FFFFFF" mask="url(#mask-2)"></path>
                            </g>
                            <path d="M30.665807,28.7676768 L1.01096067,28.7676768 L1.01096067,9.91488567 C1.01096067,9.82730622 1.09849302,9.7535663 1.20245347,9.7535663 L30.4743142,9.7535663 C30.5782747,9.7535663 30.665807,9.82730622 30.665807,9.91488567 L30.665807,28.7676768 Z" id="Path" fill="#FFFFFF"></path>
                            <path d="M28.929011,28.1212121 L2.44487427,28.1212121 C2.16551214,28.1212121 1.93939394,28.3476673 1.93939394,28.6266925 C1.93939394,28.9058018 2.16551214,29.1321728 2.44487427,29.1321728 L28.929011,29.1321728 C29.2080361,29.1321728 29.4344913,28.9058018 29.4344913,28.6266925 C29.4344913,28.3476673 29.2080361,28.1212121 28.929011,28.1212121 Z" id="Fill-4" fill="#455053"></path>
                            <path d="M25.0714067,11.959596 L6.64689448,11.959596 C6.36753234,11.959596 6.14141414,12.1860511 6.14141414,12.4650763 C6.14141414,12.7441857 6.36753234,12.9705566 6.64689448,12.9705566 L25.0714067,12.9705566 C25.3504318,12.9705566 25.576887,12.7441857 25.576887,12.4650763 C25.576887,12.1860511 25.3504318,11.959596 25.0714067,11.959596 Z" id="Fill-4-Copy" fill="#455053"></path>
                            <path d="M17.7879527,12.650622 L13.6068463,12.650622 C13.3274842,12.650622 13.101366,12.8770772 13.101366,13.1561023 C13.101366,13.4352117 13.3274842,13.6615826 13.6068463,13.6615826 L17.7879527,13.6615826 C18.0669779,13.6615826 18.2934331,13.4352117 18.2934331,13.1561023 C18.2934331,12.8770772 18.0669779,12.650622 17.7879527,12.650622 Z" id="Fill-4-Copy" fill="#455053" transform="translate(15.697400, 13.156102) rotate(-270.000000) translate(-15.697400, -13.156102) "></path>
                            <g id="Checklist" transform="translate(8.080808, 0.000000)">
                                <rect id="Rectangle-8" fill="#455053" x="0.0953800298" y="0.127173373" width="15.4197715" height="11.0216923" rx="2"></rect>
                                <rect id="Rectangle-8" fill="#FFFFFF" x="0.784235801" y="0.816029144" width="13.989071" height="9.59099189" rx="1"></rect>
                                <path d="M4.67892035,2.72362974 L12.4153005,2.72362974 L12.4153005,2.72362974 C12.6055228,2.72362974 12.7597284,2.56942412 12.7597284,2.37920185 L12.7597284,2.37920185 L12.7597284,2.37920185 C12.7597284,2.18897959 12.6055228,2.03477397 12.4153005,2.03477397 L4.67892035,2.03477397 L4.67892035,2.03477397 C4.48869808,2.03477397 4.33449247,2.18897959 4.33449247,2.37920185 L4.33449247,2.37920185 L4.33449247,2.37920185 C4.33449247,2.56942412 4.48869808,2.72362974 4.67892035,2.72362974 Z" id="Fill-7" fill="#455053"></path>
                                <path d="M2.71835748,4.3132969 C2.14852704,4.3132969 1.68504719,4.77677675 1.68504719,5.34655393 C1.68504719,5.91633112 2.14852704,6.37986422 2.71835748,6.37986422 C3.28813466,6.37986422 3.75161451,5.91633112 3.75161451,5.34655393 C3.75161451,4.77677675 3.28813466,4.3132969 2.71835748,4.3132969 Z M2.71835748,5.6910617 C2.52839625,5.6910617 2.37384971,5.53651516 2.37384971,5.34655393 C2.37384971,5.15664596 2.52839625,5.00225918 2.71835748,5.00225918 C2.90826545,5.00225918 3.06259897,5.15664596 3.06259897,5.34655393 C3.06259897,5.53651516 2.90826545,5.6910617 2.71835748,5.6910617 Z" id="Fill-8" fill="#0299BC"></path>
                                <path d="M2.71835748,7.28067561 C2.14852704,7.28067561 1.68504719,7.74415545 1.68504719,8.31393264 C1.68504719,8.88370982 2.14852704,9.34724292 2.71835748,9.34724292 C3.28813466,9.34724292 3.75161451,8.88370982 3.75161451,8.31393264 C3.75161451,7.74415545 3.28813466,7.28067561 2.71835748,7.28067561 Z M2.71835748,8.65844041 C2.52839625,8.65844041 2.37384971,8.50389387 2.37384971,8.31393264 C2.37384971,8.12402466 2.52839625,7.96963789 2.71835748,7.96963789 C2.90826545,7.96963789 3.06259897,8.12402466 3.06259897,8.31393264 C3.06259897,8.50389387 2.90826545,8.65844041 2.71835748,8.65844041 Z" id="Fill-8-Copy" fill="#455053"></path>
                                <path d="M13.428879,7.01573108 L13.428879,7.01573108 L13.428879,7.01573108 C13.6191012,7.01573108 13.7733068,6.86152546 13.7733068,6.6713032 L13.7733068,6.6713032 L13.7733068,6.6713032 C13.7733068,6.48108093 13.6191012,6.32687531 13.428879,6.32687531 L13.428879,6.32687531 L13.428879,6.32687531 C13.2386567,6.32687531 13.0844511,6.48108093 13.0844511,6.6713032 L13.0844511,6.6713032 L13.0844511,6.6713032 C13.0844511,6.86152546 13.2386567,7.01573108 13.428879,7.01573108 Z" id="Fill-11" fill="#455053" transform="translate(13.584451, 6.826875) rotate(-270.000000) translate(-13.584451, -6.826875) "></path>
                                <path d="M13.428879,9.77115416 L13.428879,9.77115416 L13.428879,9.77115416 C13.6191012,9.77115416 13.7733068,9.61694855 13.7733068,9.42672628 L13.7733068,9.42672628 L13.7733068,9.42672628 C13.7733068,9.23650401 13.6191012,9.08229839 13.428879,9.08229839 L13.428879,9.08229839 L13.428879,9.08229839 C13.2386567,9.08229839 13.0844511,9.23650401 13.0844511,9.42672628 L13.0844511,9.42672628 L13.0844511,9.42672628 C13.0844511,9.61694855 13.2386567,9.77115416 13.428879,9.77115416 Z" id="Fill-13" fill="#455053" transform="translate(13.584451, 9.582298) rotate(-270.000000) translate(-13.584451, -9.582298) "></path>
                                <path d="M13.428879,8.39344262 L13.428879,8.39344262 L13.428879,8.39344262 C13.6191012,8.39344262 13.7733068,8.23923701 13.7733068,8.04901474 L13.7733068,8.04901474 L13.7733068,8.04901474 C13.7733068,7.85879247 13.6191012,7.70458685 13.428879,7.70458685 L13.428879,7.70458685 L13.428879,7.70458685 C13.2386567,7.70458685 13.0844511,7.85879247 13.0844511,8.04901474 L13.0844511,8.04901474 L13.0844511,8.04901474 C13.0844511,8.23923701 13.2386567,8.39344262 13.428879,8.39344262 Z" id="Fill-14" fill="#455053" transform="translate(13.584451, 8.204587) rotate(-270.000000) translate(-13.584451, -8.204587) "></path>
                                <path d="M4.67892035,5.00215267 L11.8324226,5.00215267 L11.8324226,5.00215267 C12.0226449,5.00215267 12.1768505,4.84794706 12.1768505,4.65772479 L12.1768505,4.65772479 L12.1768505,4.65772479 C12.1768505,4.46750252 12.0226449,4.3132969 11.8324226,4.3132969 L4.67892035,4.3132969 L4.67892035,4.3132969 C4.48869808,4.3132969 4.33449247,4.46750252 4.33449247,4.65772479 L4.33449247,4.65772479 L4.33449247,4.65772479 C4.33449247,4.84794706 4.48869808,5.00215267 4.67892035,5.00215267 Z" id="Fill-9" fill="#455053"></path>
                                <path d="M4.67892035,6.37986422 L9.92482199,6.37986422 L9.92482199,6.37986422 C10.1150443,6.37986422 10.2692499,6.2256586 10.2692499,6.03543633 L10.2692499,6.03543633 L10.2692499,6.03543633 C10.2692499,5.84521406 10.1150443,5.69100845 9.92482199,5.69100845 L4.67892035,5.69100845 L4.67892035,5.69100845 C4.48869808,5.69100845 4.33449247,5.84521406 4.33449247,6.03543633 L4.33449247,6.03543633 L4.33449247,6.03543633 C4.33449247,6.2256586 4.48869808,6.37986422 4.67892035,6.37986422 Z" id="Fill-9-Copy-3" fill="#455053"></path>
                                <path d="M4.67892035,8.65838715 L9.92482199,8.65838715 L9.92482199,8.65838715 C10.1150443,8.65838715 10.2692499,8.50418153 10.2692499,8.31395926 L10.2692499,8.31395926 L10.2692499,8.31395926 C10.2692499,8.123737 10.1150443,7.96953138 9.92482199,7.96953138 L4.67892035,7.96953138 L4.67892035,7.96953138 C4.48869808,7.96953138 4.33449247,8.123737 4.33449247,8.31395926 L4.33449247,8.31395926 L4.33449247,8.31395926 C4.33449247,8.50418153 4.48869808,8.65838715 4.67892035,8.65838715 Z" id="Fill-9-Copy-2" fill="#455053"></path>
                                <path d="M2.71835748,1.3459182 C2.14852704,1.3459182 1.68504719,1.80939804 1.68504719,2.37917523 C1.68504719,2.94900567 2.14852704,3.41248551 2.71835748,3.41248551 C3.28813466,3.41248551 3.75161451,2.94900567 3.75161451,2.37917523 C3.75161451,1.80939804 3.28813466,1.3459182 2.71835748,1.3459182 Z M2.71835748,2.723683 C2.52839625,2.723683 2.37384971,2.56913646 2.37384971,2.37917523 C2.37384971,2.18926725 2.52839625,2.03493373 2.71835748,2.03493373 C2.90826545,2.03493373 3.06259897,2.18926725 3.06259897,2.37917523 C3.06259897,2.56913646 2.90826545,2.723683 2.71835748,2.723683 Z" id="Fill-10" fill="#FF2EBB"></path>
                            </g>
                            <path d="M7.25168613,13.1042544 L5.53662249,13.1042544 L5.53662249,14.115215 L7.25168613,14.115215 C7.53071127,14.115215 7.75716646,13.8888441 7.75716646,13.6097347 C7.75716646,13.3307096 7.53071127,13.1042544 7.25168613,13.1042544 Z" id="Fill-4-Copy-2" fill="#455053" transform="translate(6.646894, 13.609735) rotate(-270.000000) translate(-6.646894, -13.609735) "></path>
                            <path d="M25.6759286,13.1042544 L23.9608649,13.1042544 L23.9608649,14.115215 L25.6759286,14.115215 C25.9549537,14.115215 26.1814089,13.8888441 26.1814089,13.6097347 C26.1814089,13.3307096 25.9549537,13.1042544 25.6759286,13.1042544 Z" id="Fill-4-Copy-3" fill="#455053" transform="translate(25.071137, 13.609735) rotate(-270.000000) translate(-25.071137, -13.609735) "></path>
                        </g>
                        <g id="Group-7" transform="translate(3.232323, 14.868687)">
                            <path d="M0.345233857,12.0691768 L6.75902379,12.0691768 L6.75902379,9.98883423 C6.58290057,9.4880147 6.31198854,9.181499 5.9462877,9.06928716 C5.58058687,8.95707531 5.1749325,8.7803439 4.72932459,8.53909293 L3.55212883,9.72973531 L2.24734613,8.53909293 L0.903908473,9.06928716 C0.531458729,9.31999772 0.345233857,9.62651341 0.345233857,9.98883423 C0.345233857,10.3511551 0.345233857,11.0446026 0.345233857,12.0691768 Z" id="Path-15" fill="#FF4CB7"></path>
                            <path d="M3.51961237,7.36889457 C2.60196717,7.36893876 1.83550253,6.68175442 1.73677778,5.77047285 C1.73147475,5.72168497 1.71543308,5.67462058 1.68971338,5.63277083 C1.48143687,5.29355366 1.37131061,4.90607891 1.37131061,4.51215215 C1.37131061,3.32763194 2.33504798,2.36385038 3.51961237,2.36385038 C4.70417677,2.36385038 5.66791414,3.32763194 5.66791414,4.51215215 C5.66791414,4.74053598 5.63066035,4.96671023 5.55893687,5.18263194 C4.61782576,4.22653977 2.96226389,3.85183649 2.88245328,3.8342923 C2.78191667,3.81210795 2.67647475,3.83053598 2.59754798,3.89686806 C2.51959343,3.96244886 2.4760202,4.05290972 2.47955556,4.15450694 C2.47703662,4.18663447 2.4519798,4.40255619 2.22253535,4.63204482 C2.09309722,4.76148295 2.09309722,4.97130619 2.22253535,5.10078851 C2.35197348,5.23018245 2.56184091,5.23018245 2.69123485,5.10078851 C2.87763636,4.9143428 2.98709975,4.7251572 3.05139899,4.5654476 C3.60910101,4.73112311 4.76661995,5.14948801 5.28609596,5.88386932 C5.13867172,6.73809912 4.39872222,7.36889457 3.51961237,7.36889457 L3.51961237,7.36889457 Z M3.51961237,9.36862311 L2.70776263,8.59712058 C2.75973232,8.49972159 2.7882803,8.38928598 2.7882803,8.27363573 L2.7882803,7.92089583 C3.01980177,7.99275189 3.26533207,8.03181755 3.51961237,8.03181755 C3.77384848,8.03181755 4.01942298,7.99275189 4.25085606,7.92094003 L4.25081187,8.27359154 C4.25081187,8.38928598 4.27935985,8.49976578 4.33137374,8.59720896 L3.51961237,9.36862311 Z M3.51961237,0.946880682 C4.11814773,0.946880682 4.60514268,1.35441856 4.60514268,1.85528977 C4.60514268,1.87628093 4.60346338,1.89713952 4.60178409,1.91790972 C4.26848864,1.77835164 3.90293308,1.70101578 3.51961237,1.70101578 C3.13633586,1.70101578 2.77082449,1.77835164 2.43761742,1.91786553 C2.43593813,1.89709533 2.43408207,1.87632513 2.43408207,1.85528977 C2.43408207,1.35437437 2.92107702,0.946880682 3.51961237,0.946880682 L3.51961237,0.946880682 Z M6.26857071,8.96515088 L4.92632955,8.29414078 C4.91855177,8.29025189 4.91369066,8.28238573 4.91369066,8.27372412 L4.91377904,7.59909028 C5.46476389,7.21970265 5.85475758,6.61997412 5.95233333,5.91604104 C6.20016162,5.48782134 6.33074874,5.0040524 6.33074874,4.51219634 C6.33074874,3.59503725 5.8890947,2.77916604 5.20743434,2.26570013 C5.24738384,2.13268245 5.26802146,1.99533396 5.26802146,1.85533396 C5.26802146,0.988907197 4.48365909,0.284046086 3.51961237,0.284046086 C2.55556566,0.284046086 1.77120328,0.988907197 1.77120328,1.85533396 C1.77120328,1.99555492 1.79161995,2.1329476 1.83156944,2.26587689 C1.15004167,2.77938699 0.70847601,3.59512563 0.70847601,4.51219634 C0.70847601,5.0040524 0.839151515,5.48790972 1.08689141,5.91604104 C1.18446717,6.61997412 1.57446086,7.21970265 2.12544571,7.59909028 L2.12544571,8.27367992 C2.12544571,8.28234154 2.12062879,8.2902077 2.11285101,8.29409659 L0.77065404,8.96515088 C0.295281566,9.20281503 -8.83838384e-06,9.68070644 -8.83838384e-06,10.2121585 L-8.83838384e-06,11.9513756 C-8.83838384e-06,12.1344186 0.148387626,12.282815 0.331430556,12.282815 C0.514473485,12.282815 0.662869949,12.1344186 0.662869949,11.9513756 L0.662869949,10.2121585 C0.662869949,9.93335164 0.817762626,9.68273927 1.06709343,9.55807386 L2.17418939,9.00457008 L3.18821717,9.96817487 L3.18821717,11.9513756 C3.18821717,12.1344186 3.33661364,12.282815 3.51965657,12.282815 C3.70269949,12.282815 3.85109596,12.1344186 3.85109596,11.9513756 L3.85109596,9.96813068 L4.86507955,9.00457008 L5.97217551,9.55802967 C6.22155051,9.68269508 6.37644318,9.93335164 6.37644318,10.2121585 L6.37644318,11.9513756 C6.37644318,12.1344186 6.52483965,12.282815 6.70788258,12.282815 C6.89092551,12.282815 7.03932197,12.1344186 7.03932197,11.9513756 L7.03932197,10.2121585 C7.03927778,9.68070644 6.74398737,9.20281503 6.26857071,8.96515088 L6.26857071,8.96515088 Z" id="Fill-1" fill="#455053"></path>
                            <path d="M1.74841793,10.6409085 C1.565375,10.6409085 1.41697854,10.7893049 1.41697854,10.9723479 L1.41697854,11.9513756 C1.41697854,12.1344186 1.565375,12.282815 1.74841793,12.282815 C1.93146086,12.282815 2.07985732,12.1344186 2.07985732,11.9513756 L2.07985732,10.9723479 C2.07985732,10.7893049 1.93146086,10.6409085 1.74841793,10.6409085" id="Fill-4" fill="#455053"></path>
                            <path d="M5.29087311,10.6409085 C5.10783018,10.6409085 4.95943371,10.7893049 4.95943371,10.9723479 L4.95943371,11.9513756 C4.95943371,12.1344186 5.10783018,12.282815 5.29087311,12.282815 C5.47391604,12.282815 5.6223125,12.1344186 5.6223125,11.9513756 L5.6223125,10.9723479 C5.6223125,10.7893049 5.47391604,10.6409085 5.29087311,10.6409085" id="Fill-6" fill="#455053"></path>
                        </g>
                        <g id="Group-6" transform="translate(12.282828, 16.484848)">
                            <path d="M0.341048595,10.4327997 L6.75654163,10.3400132 L6.75654163,8.31363252 C6.75156794,7.93847435 6.55425046,7.65357399 6.16458919,7.45893144 C5.77492792,7.26428888 5.30892681,7.05445359 4.76658586,6.82942556 C4.52843398,7.41117985 4.12250373,7.70740685 3.54879511,7.71810655 C2.97508649,7.72880624 2.53028625,7.43257925 2.21439438,6.82942556 L0.985350145,7.45893144 C0.555815779,7.61182009 0.341048595,7.89672045 0.341048595,8.31363252 C0.341048595,8.73054459 0.341048595,9.43693364 0.341048595,10.4327997 Z" id="Path-17" fill="#0299BC"></path>
                            <path d="M4.91866793,5.89847664 C5.40619318,5.56283902 5.76710859,5.05436679 5.91148359,4.45415215 C6.01179924,4.94923422 6.13739268,5.44497917 6.27871843,5.82547159 C6.28035354,5.82966982 6.28733586,5.85136806 6.26930556,5.85967614 C5.9945202,5.98624179 5.54734217,6.15143119 4.91862374,6.26102715 L4.91866793,5.89847664 Z M3.52445707,5.6679274 C2.53522096,5.6679274 1.73039773,4.86310417 1.73039773,3.87386806 C1.73039773,3.69082513 1.58200126,3.54242866 1.39895833,3.54242866 C1.36174874,3.54242866 1.32608586,3.54883649 1.29272096,3.56014962 C1.33311237,3.28116604 1.36143939,3.03002336 1.37531566,2.83460669 C1.41765152,2.23942992 1.65553662,1.69083144 2.04513258,1.29005492 C2.43826389,0.88561048 2.96361742,0.662883207 3.52450126,0.662883207 C4.0853851,0.662883207 4.61073864,0.88561048 5.00386995,1.29005492 C5.39346591,1.69087563 5.63135101,2.23942992 5.67364268,2.83469508 C5.68853535,3.04420896 5.72008838,3.31793371 5.76525253,3.62122285 C5.4082702,3.01477715 4.82886995,2.57007386 4.06704545,2.32529482 C3.40244318,2.11175947 2.83073232,2.12488447 2.8067803,2.12563573 C2.71998737,2.1280221 2.63761364,2.16439205 2.57738005,2.22687942 L1.97959596,2.84680366 C1.85254419,2.97858396 1.8563447,3.1884072 1.988125,3.31545896 C2.1199053,3.44251073 2.32972854,3.43866604 2.4567803,3.30692992 L2.95393939,2.7913428 C3.13738005,2.80049053 3.49414141,2.83496023 3.88254419,2.96227715 C4.56460227,3.18588826 5.03984217,3.58604609 5.29642045,4.15236553 C5.1616351,5.0220625 4.4140846,5.6679274 3.52445707,5.6679274 L3.52445707,5.6679274 Z M4.02824495,7.18892487 C3.74581439,7.45739078 3.30323232,7.45739078 3.02071338,7.18892487 L2.71265152,6.89615341 C2.76462121,6.79875442 2.79316919,6.68831881 2.79316919,6.57262437 L2.79316919,6.21966351 C3.02424874,6.29187311 3.26991162,6.33080619 3.52445707,6.33080619 C3.77873737,6.33080619 4.02426768,6.29169634 4.25574495,6.21988447 L4.25570076,6.57258018 C4.25570076,6.68831881 4.28424874,6.79879861 4.33621843,6.89624179 L4.02824495,7.18892487 Z M2.1302904,6.26098295 C1.50183712,6.15147538 1.05474747,5.98628598 0.779652778,5.85958775 C0.761666667,5.85136806 0.76864899,5.82966982 0.770239899,5.82538321 C0.911521465,5.44497917 1.0371149,4.94936679 1.13743056,4.45432891 C1.28180556,5.04787058 1.64205808,5.55762437 2.1302904,5.89538321 L2.1302904,6.26098295 Z M6.2734154,7.26418371 L5.41750631,6.83627336 C5.91939394,6.72097664 6.29568813,6.5773529 6.54656566,6.46179104 C6.87548611,6.31034533 7.02746212,5.93749811 6.90010101,5.59461301 C6.60883207,4.81033902 6.38093434,3.43707513 6.33479798,2.78771907 C6.22188763,1.19844508 5.01368056,4.41919191e-06 3.52450126,4.41919191e-06 C2.03532197,4.41919191e-06 0.827114899,1.19844508 0.714160354,2.78767487 C0.66802399,3.43707513 0.440126263,4.81029482 0.148857323,5.59456881 C0.0214962121,5.93745391 0.173472222,6.31030114 0.502392677,6.46174684 C0.753491162,6.5773971 1.12969697,6.72097664 1.63136364,6.83622917 L0.775498737,7.26418371 C0.300126263,7.50189205 0.00483585859,7.97969508 0.00483585859,8.51119129 L0.00483585859,10.2504085 C0.00483585859,10.4334514 0.153232323,10.5818479 0.336275253,10.5818479 C0.519318182,10.5818479 0.667714646,10.4334514 0.667714646,10.2504085 L0.667714646,8.51119129 C0.667714646,8.23242866 0.822607323,7.9817721 1.07193813,7.85710669 L2.17903409,7.30355871 L2.56407828,7.6694678 C2.83333965,7.92533902 3.17892045,8.05331881 3.52445707,8.05331881 C3.87003788,8.05331881 4.21561869,7.92538321 4.48488005,7.6694678 L4.86988005,7.30355871 L5.97697601,7.8570625 C6.22635101,7.9817279 6.38124369,8.23238447 6.38124369,8.51119129 L6.38124369,10.2504085 C6.38124369,10.4334514 6.52964015,10.5818479 6.71268308,10.5818479 C6.89572601,10.5818479 7.04412247,10.4334514 7.04412247,10.2504085 L7.04412247,8.51119129 C7.04412247,7.97969508 6.74878788,7.50184785 6.2734154,7.26418371 L6.2734154,7.26418371 Z" id="Fill-10" fill="#455053"></path>
                            <path d="M1.42180997,9.27132765 L1.42180997,10.2503996 C1.42180997,10.4334426 1.57020644,10.581839 1.75324937,10.581839 C1.9362923,10.581839 2.08468876,10.4334426 2.08468876,10.2503996 L2.08468876,9.27132765 C2.08468876,9.08828472 1.9362923,8.93988826 1.75324937,8.93988826 C1.57020644,8.93988826 1.42180997,9.08828472 1.42180997,9.27132765" id="Fill-12" fill="#455053"></path>
                            <path d="M4.96432702,9.27132765 L4.96432702,10.2503996 C4.96432702,10.4334426 5.11267929,10.581839 5.29576641,10.581839 C5.47880934,10.581839 5.62720581,10.4334426 5.62720581,10.2503996 L5.62720581,9.27132765 C5.62720581,9.08828472 5.47880934,8.93988826 5.29576641,8.93988826 C5.11267929,8.93988826 4.96432702,9.08828472 4.96432702,9.27132765" id="Fill-14" fill="#455053"></path>
                        </g>
                        <g id="Group-5" transform="translate(20.686869, 16.484848)">
                            <path d="M0.626145282,10.4530461 L7.77209164,10.4530461 L7.77209164,7.9231195 L6.13784359,7.00148861 L5.30232876,6.71992416 C5.00524179,7.15167431 4.63750502,7.36529975 4.19911846,7.36080048 C3.7607319,7.35630121 3.37808007,7.14267577 3.05116296,6.71992416 L1.80274993,7.00148861 C1.01834683,7.444127 0.626145282,7.7513373 0.626145282,7.9231195 C0.626145282,8.09490171 0.626145282,8.93821057 0.626145282,10.4530461 Z" id="Path-16" fill="#DBE3E9"></path>
                            <path d="M5.09037121,2.83822285 C5.13792172,2.86199811 5.18852146,2.87331124 5.23832576,2.87331124 C5.35989773,2.87331124 5.47696212,2.80609533 5.5350303,2.69000316 C5.61691793,2.5262279 5.55049747,2.3271875 5.38681061,2.24529987 C4.61716414,1.86047664 3.1741654,1.85605745 3.11309217,1.85605745 C2.93004924,1.85605745 2.78174116,2.00440972 2.78169697,2.18740846 C2.78165278,2.3704072 2.92991667,2.51884785 3.11300379,2.51893624 C3.48580682,2.5191572 4.56793434,2.57700442 5.09037121,2.83822285" id="Fill-16" fill="#455053"></path>
                            <path d="M4.12043371,5.75195518 C3.16173422,5.72318624 2.38179104,4.87881124 2.38179104,3.86964457 L2.38179104,3.25025063 C2.38179104,3.19881124 2.36981503,3.14803472 2.34679104,3.10203093 L2.14218245,2.69268119 C2.06718876,2.54273801 2.02754861,2.3748971 2.02754861,2.20723295 L2.02754861,2.18747917 C2.02754861,1.39357134 2.6734577,0.747662247 3.46736553,0.747662247 L6.32415215,0.747662247 L6.32415215,2.12357765 C6.32415215,2.3459072 6.27160795,2.56859028 6.17217614,2.76749811 L6.00490972,3.10203093 C5.98188573,3.14807891 5.96990972,3.19881124 5.96990972,3.25025063 L5.96990972,3.95873548 C5.96990972,4.44816098 5.7764375,4.90541477 5.42506755,5.24635543 C5.07400694,5.58711932 4.61012437,5.76662689 4.12043371,5.75195518 L4.12043371,5.75195518 Z M4.69298422,6.8696572 C4.40781376,7.15478346 3.94388699,7.15478346 3.65871654,6.8696572 L3.38671528,6.59770013 C3.41985922,6.50259912 3.43886174,6.40179735 3.44288321,6.29812311 C3.65186679,6.36688573 3.87238447,6.40767487 4.10054735,6.41452462 C4.12604609,6.41527588 4.15141225,6.41567361 4.1768226,6.41567361 C4.42884912,6.41567361 4.67495391,6.37749179 4.90903851,6.30466351 C4.91363447,6.40603977 4.93241604,6.50463194 4.9648529,6.59774432 L4.69298422,6.8696572 Z M7.03855871,6.96237184 L5.84338826,6.62090088 C5.6823529,6.5748971 5.56992866,6.42579356 5.56992866,6.25830619 L5.56997285,5.98184154 C5.6812923,5.90472664 5.78744129,5.81841982 5.88669634,5.72208144 C6.36776957,5.25523801 6.63270013,4.62899432 6.63270013,3.95877967 L6.63270013,3.32851452 L6.76496654,3.06398169 C6.91022538,2.7735524 6.98694255,2.44838826 6.98694255,2.12362184 L6.98694255,0.416267045 C6.98694255,0.233224116 6.83854609,0.0848276515 6.65550316,0.0848276515 L3.46727715,0.0848276515 C2.30781376,0.0848276515 1.36458144,1.02805997 1.36458144,2.18752336 L1.36458144,2.20727715 C1.36458144,2.47724558 1.42839457,2.74765593 1.54912689,2.98916477 L1.71882386,3.32851452 L1.71882386,3.86964457 C1.71882386,4.72723295 2.14143119,5.49674684 2.78155114,5.95983396 L2.78155114,6.25835038 C2.78155114,6.42579356 2.66912689,6.5748971 2.50809154,6.62090088 L1.31300947,6.96237184 C0.717655934,7.13246654 0.301854167,7.68376073 0.301854167,8.30293371 L0.301854167,10.3352317 C0.301854167,10.5182304 0.450250631,10.6666711 0.633293561,10.6666711 C0.81633649,10.6666711 0.964732955,10.5182304 0.964732955,10.3352317 L0.964732955,8.30288952 C0.964732955,7.97807891 1.18286427,7.68893119 1.49512437,7.5997077 L2.69016225,7.25823674 C2.79383649,7.22858396 2.88990972,7.18293371 2.97679104,7.12526326 L3.18984028,7.33835669 C3.46166477,7.61018119 3.81869129,7.74607134 4.1757178,7.74607134 C4.53274432,7.74607134 4.88977083,7.61018119 5.16155114,7.33835669 L5.37460038,7.12535164 C5.4614375,7.1830221 5.55746654,7.22867235 5.66118497,7.25832513 L6.85635543,7.59975189 C7.16861553,7.68901957 7.38674684,7.9781673 7.38674684,8.3029779 L7.38674684,10.3352317 C7.38674684,10.5182304 7.53514331,10.6666711 7.71818624,10.6666711 C7.90122917,10.6666711 8.04962563,10.5182304 8.04962563,10.3352317 L8.04962563,8.30288952 C8.04975821,7.68367235 7.63395644,7.13242235 7.03855871,6.96237184 L7.03855871,6.96237184 Z" id="Fill-18" fill="#455053"></path>
                            <path d="M2.05036048,8.58679609 C1.86727336,8.58679609 1.71892109,8.73519255 1.71892109,8.91823548 L1.71892109,10.3352052 C1.71892109,10.5182481 1.86727336,10.6666446 2.05036048,10.6666446 C2.23340341,10.6666446 2.38179987,10.5182481 2.38179987,10.3352052 L2.38179987,8.91823548 C2.38179987,8.73514836 2.23340341,8.58679609 2.05036048,8.58679609" id="Fill-21" fill="#455053"></path>
                            <path d="M6.30128725,8.58679609 C6.11824432,8.58679609 5.96984785,8.73519255 5.96984785,8.91823548 L5.96984785,10.3352052 C5.96984785,10.5182481 6.11824432,10.6666446 6.30128725,10.6666446 C6.48437437,10.6666446 6.63272664,10.5182481 6.63272664,10.3352052 L6.63272664,8.91823548 C6.63272664,8.73514836 6.48437437,8.58679609 6.30128725,8.58679609" id="Fill-23" fill="#455053"></path>
                        </g>
                    </g>
                </g>
            </g>
        </g>
    </g>
</svg>