<?xml version="1.0" encoding="UTF-8"?>
<svg width="31px" height="33px" viewBox="0 0 31 33" version="1.1" xmlns="http://www.w3.org/2000/svg" xmlns:xlink="http://www.w3.org/1999/xlink">
    <!-- Generator: Sketch 46.2 (44496) - http://www.bohemiancoding.com/sketch -->
    <title>Icon</title>
    <desc>Created with Sketch.</desc>
    <defs>
        <path d="M22.4273504,11.2324247 C18.580159,11.5482355 15.5458119,14.7857382 15.5458119,18.7197198 C15.5458119,20.3975313 15.147495,21.9004092 16.0791701,23.152243 L13.8471714,29.5384615 L0,29.5384615 L0,0 L22.4273504,0 L22.4273504,11.2324247 Z M22.4273504,28.1946827 L22.4273504,29.5384615 L22.0973219,29.5384615 L22.4273504,28.1946827 Z" id="path-1"></path>
        <polygon id="path-3" points="17.5166238 0.00224040735 1.29393828e-05 0.00224040735 1.29393827e-05 21.0598291 17.5166238 21.0598291 17.5166238 0.00224040735"></polygon>
    </defs>
    <g id="Desktop-1440px" stroke="none" stroke-width="1" fill="none" fill-rule="evenodd">
        <g id="DD---How-it-works" transform="translate(-569.000000, -231.000000)">
            <g id="How-It-Works-Dropdowns" transform="translate(547.000000, 89.000000)">
                <g id="For-Freelancers" transform="translate(21.000000, 141.000000)">
                    <g id="Icon">
                        <g id="004-interface">
                            <mask id="mask-2" fill="white">
                                <use xlink:href="#path-1"></use>
                            </mask>
                            <g id="Rectangle-3"></g>
                            <rect id="Rectangle-12" fill="#DBE3E9" mask="url(#mask-2)" x="4.18643875" y="1.39356939" width="16.745755" height="21.5677656"></rect>
                            <polygon id="Rectangle-11" fill="#FFFFFF" mask="url(#mask-2)" points="1.79418803 3.78998779 15.0046885 3.78998779 18.539943 7.47533943 18.539943 25.3577534 1.79418803 25.3577534"></polygon>
                            <path d="M14.9701345,3.19088319 L2.19612536,3.19088319 L2.19612536,3.19088319 C1.64384061,3.19088319 1.19612536,3.63859844 1.19612536,4.19088319 L1.19612536,24.956858 L1.19612536,24.956858 C1.19612536,25.5091427 1.64384061,25.956858 2.19612536,25.956858 L18.437037,25.956858 L18.437037,25.956858 C18.9893218,25.956858 19.437037,25.5091427 19.437037,24.956858 L19.437037,7.64546302 L19.437037,7.64546302 C19.437037,7.37962954 19.3311908,7.12473615 19.1428838,6.93709846 L15.6759812,3.48251863 L15.6759812,3.48251863 C15.4885482,3.29575185 15.2347341,3.19088319 14.9701345,3.19088319 Z M15.5954923,4.57262873 L18.0139859,6.98226296 L15.5954923,6.98713104 L15.5954923,4.57262873 Z M2.02651908,25.12935 L2.02651908,4.01806222 L14.7653626,4.01806222 L14.7653626,6.81419781 L14.7653626,6.81419781 C14.7653626,7.36648256 15.2130779,7.81419781 15.7653626,7.81419781 C15.7660134,7.81419781 15.7666642,7.81419718 15.767315,7.81419591 L18.6066433,7.80865258 L18.6066433,25.12935 L2.02651908,25.12935 Z" id="Fill-1" fill="#455053" mask="url(#mask-2)"></path>
                            <path d="M3.58837607,2.09401709 L3.58837607,2.73590835 L4.41166902,2.73590835 L4.41166902,1.91506064 L20.4081939,1.91506064 L20.4081939,22.4398437 L19.6396214,22.4398437 L19.6396214,23.2608873 L21.2312251,23.2608873 L21.2312251,2.09401709 L21.2312251,2.09401709 C21.2312251,1.54173234 20.7835098,1.09401709 20.2312251,1.09401709 L12.4098006,1.09401709 L4.58837607,1.09401709 L4.58837607,1.09401709 C4.03609132,1.09401709 3.58837607,1.54173234 3.58837607,2.09401709 Z" id="Fill-2" fill="#455053" mask="url(#mask-2)"></path>
                            <polygon id="Fill-4" fill="#455053" mask="url(#mask-2)" points="3.58837607 7.38461538 13.1573789 7.38461538 13.1573789 6.48595849 3.58837607 6.48595849"></polygon>
                            <polygon id="Fill-5" fill="#455053" mask="url(#mask-2)" points="3.58837607 10.0805861 16.1476923 10.0805861 16.1476923 9.18192918 3.58837607 9.18192918"></polygon>
                            <polygon id="Fill-6" fill="#455053" mask="url(#mask-2)" points="3.58837607 12.4770045 16.1476923 12.4770045 16.1476923 11.5783476 3.58837607 11.5783476"></polygon>
                            <polygon id="Fill-7" fill="#455053" mask="url(#mask-2)" points="3.58837607 15.1729752 16.1476923 15.1729752 16.1476923 14.2743183 3.58837607 14.2743183"></polygon>
                            <polygon id="Fill-8" fill="#455053" mask="url(#mask-2)" points="3.58837607 17.5693936 16.1476923 17.5693936 16.1476923 16.6707367 3.58837607 16.6707367"></polygon>
                            <polygon id="Fill-9" fill="#455053" mask="url(#mask-2)" points="3.58837607 19.965812 16.1476923 19.965812 16.1476923 19.0671551 3.58837607 19.0671551"></polygon>
                            <polygon id="Fill-10" fill="#455053" mask="url(#mask-2)" points="3.58837607 22.6617827 16.1476923 22.6617827 16.1476923 21.7631258 3.58837607 21.7631258"></polygon>
                        </g>
                        <g id="quality" transform="translate(14.222222, 12.170940)">
                            <g id="Group-3">
                                <mask id="mask-4" fill="white">
                                    <use xlink:href="#path-3"></use>
                                </mask>
                                <g id="Clip-2"></g>
                                <path d="M3.58063701,10.8307692 L0.301318267,18.7880573 L3.24637923,18.0148328 L4.70758556,20.6665344 L7.86460344,13.1688455 C6.74106407,12.910875 5.91718633,12.6503782 5.3929702,12.3873553 C4.86875408,12.1243324 4.26464302,11.6054704 3.58063701,10.8307692 Z" id="Path-25" fill="#0299BC" mask="url(#mask-4)"></path>
                                <path d="M9.73290756,13.260094 L12.7201412,20.7055381 L14.1730692,18.0582032 L17.1260961,18.8939657 L13.8619283,10.8572965 C13.1031319,11.6938387 12.4344081,12.2379135 11.8557569,12.4895207 C11.2771056,12.741128 10.5694892,12.9979858 9.73290756,13.260094 Z" id="Path-4" fill="#0299BC" mask="url(#mask-4)"></path>
                                <circle id="Oval-4" fill="#FFFFFF" mask="url(#mask-4)" cx="8.75213675" cy="6.83760684" r="6.29059829"></circle>
                                <path d="M17.4909404,18.7467765 L14.6985695,12.0156967 C14.6276075,11.8444175 14.4305966,11.7628107 14.2588292,11.8338876 C14.08723,11.9050205 14.0054975,12.1015043 14.07674,12.2730075 L16.6010819,18.3580098 L14.2984894,17.6917687 C14.1472533,17.6480247 13.9859759,17.7147329 13.9099651,17.8523499 L12.7536483,19.9492591 L10.0449734,13.419928 C13.1712866,12.8180426 15.5400168,10.0658702 15.5400168,6.77135115 C15.5400168,3.0376563 12.4979044,0 8.75828826,0 C5.0188965,0 1.97650359,3.0376563 1.97650359,6.77135115 C1.97650359,8.28362611 2.47570621,9.6816403 3.31821934,10.8099654 L0.0256360941,18.7467765 C-0.023897103,18.8660222 -0.000448771888,19.0031911 0.08588372,19.0994726 C0.171991826,19.1957541 0.306118524,19.2340091 0.43037224,19.1981626 L3.14690067,18.4122277 L4.51116721,20.8859174 C4.57057339,20.993513 4.68383219,21.0598291 4.80589814,21.0598291 C4.95382458,21.0521557 5.06730777,20.971669 5.11684097,20.8524233 L7.72600072,14.5633199 C7.79696278,14.3919847 7.71545458,14.195277 7.54368714,14.1244241 C7.37186361,14.0532911 7.17507713,14.1346739 7.10389069,14.3062331 L4.76292824,19.9492591 L3.60661137,17.8523499 C3.53060063,17.7147329 3.36909885,17.6480247 3.21808711,17.6917687 L0.915494651,18.3580098 L3.80558561,11.3917432 C5.04408382,12.7143117 6.80607445,13.5426463 8.75828826,13.5426463 C8.95989903,13.5426463 9.15926594,13.5332366 9.3562768,13.5159294 L12.3997355,20.8524233 C12.4492687,20.971669 12.5629763,21.0521557 12.6920543,21.059381 C12.8329687,21.0598291 12.9462275,20.993513 13.0056337,20.8859174 L14.3699002,18.4122277 L17.0864287,19.1981626 C17.2106824,19.2340091 17.3445286,19.1957541 17.4308611,19.0994726 C17.5172497,19.0031911 17.5404736,18.8660222 17.4909404,18.7467765 Z M2.64966142,6.77135115 C2.64966142,3.4083317 5.39008695,0.672122204 8.75828826,0.672122204 C12.1267139,0.672122204 14.866859,3.4083317 14.866859,6.77135115 C14.866859,10.1345386 12.1267139,12.8705241 8.75828826,12.8705241 C5.39008695,12.8705241 2.64966142,10.1345386 2.64966142,6.77135115 Z" id="Fill-1" fill="#455053" mask="url(#mask-4)"></path>
                            </g>
                            <polygon id="Path-5" fill="#14C3A2" points="8.79376735 3.08463286 7.58048458 5.24989678 5.32180794 5.55338419 6.92341309 7.39985438 6.63436507 9.67796284 8.79376735 8.69973055 10.947672 9.80379136 10.5964586 7.39985438 12.3262006 5.55338419 9.90830439 5.24989678"></polygon>
                            <path d="M12.6473454,5.50955374 C12.6085828,5.3905321 12.5066554,5.30282015 12.3828505,5.28204037 L10.1181793,4.90262739 L9.05672156,2.86923368 C8.99888608,2.75805346 8.88383219,2.68848882 8.75828826,2.68848882 C8.63296871,2.68848882 8.51791481,2.75805346 8.45985495,2.86923368 L7.39862163,4.90262739 L5.13372601,5.28204037 C5.00992106,5.30282015 4.90799375,5.3905321 4.86923108,5.50955374 C4.83041231,5.62879942 4.86132147,5.75963921 4.94922467,5.84891944 L6.55801579,7.48503292 L6.21969788,9.75299727 C6.20129823,9.87683579 6.25324358,10.0008983 6.35466603,10.0743837 C6.45614457,10.1479251 6.59021517,10.1590711 6.70263253,10.103509 L8.75828826,9.08132315 L10.8138879,10.103509 C10.8614577,10.1269213 10.9127299,10.1387394 10.9640021,10.1387394 C11.0338983,10.1387394 11.1034019,10.1170635 11.1619105,10.0743837 C11.2633329,10.0008983 11.3155027,9.87705983 11.2968786,9.75299727 L10.9585607,7.48525696 L12.5673518,5.84891944 C12.655255,5.75963921 12.6861081,5.62879942 12.6473454,5.50955374 Z M10.3607405,7.13362502 C10.2869175,7.20890271 10.2525304,7.31436989 10.2680691,7.41871686 L10.536042,9.21434734 L8.90840245,8.40500018 C8.86105702,8.38141989 8.80978483,8.36982579 8.75828826,8.36982579 C8.70701607,8.36982579 8.65551949,8.38141989 8.60839845,8.40500018 L6.98070281,9.21434734 L7.24850743,7.41871686 C7.26427055,7.31436989 7.2298834,7.20890271 7.15577994,7.13362502 L5.88199703,5.83816548 L7.67512121,5.53778287 C7.77923629,5.52030769 7.86927115,5.45511184 7.9179068,5.36168685 L8.75828826,3.7515621 L9.59861362,5.36168685 C9.64747365,5.45511184 9.73734023,5.52030769 9.8414553,5.53778287 L11.6345234,5.83816548 L10.3607405,7.13362502 Z" id="Fill-4" fill="#455053"></path>
                            <path d="M13.856954,7.11021277 C13.6726209,7.08573632 13.50349,7.21523186 13.4789197,7.39922531 C13.1669111,9.75210111 11.1373402,11.5262797 8.75828826,11.5262797 C6.13224346,11.5262797 3.99597708,9.39329987 3.99597708,6.77135115 C3.99597708,4.14934643 6.13224346,2.01636661 8.75828826,2.01636661 C11.1373402,2.01636661 13.1669111,3.79054519 13.4789197,6.14342099 C13.50349,6.32741444 13.6728453,6.45713402 13.856954,6.43243353 C14.0412309,6.40790107 14.1707016,6.23903037 14.1464118,6.05498091 C13.7900869,3.36957265 11.4736948,1.34424441 8.75828826,1.34424441 C5.7612774,1.34424441 3.32281925,3.77872704 3.32281925,6.77135115 C3.32281925,9.76391926 5.7612774,12.1984019 8.75828826,12.1984019 C11.4736948,12.1984019 13.7900869,10.1732977 14.1464118,7.48766539 C14.1707016,7.30361593 14.0412309,7.13474523 13.856954,7.11021277 Z" id="Fill-5" fill="#455053"></path>
                        </g>
                    </g>
                </g>
            </g>
        </g>
    </g>
</svg>