<svg xmlns="http://www.w3.org/2000/svg" width="62" height="68" xmlns:xlink="http://www.w3.org/1999/xlink">
  <defs>
    <path id="a" d="M56.42,27.1572539 L56.42,0 L0,0 L0,46.62 L8.15972953,46.62 L6.46861686,45.9984146 L3.39465218,45.9984146 L3.39465218,40.5862275 L56.42,27.1572539 Z"/>
  </defs>
  <g fill="none" fill-rule="evenodd">
    <g transform="translate(-6 -2)">
      <mask id="b" fill="#fff">
        <use xlink:href="#a"/>
      </mask>
      <path fill="#DBE3E9" d="M23.38 3.36L43.9959511 3.36 53.76 13.2867647 53.76 40.6 23.38 40.6" mask="url(#b)"/>
      <path fill="#FFF" d="M9.24 10.36L29.8559511 10.36 39.62 20.2867647 39.62 47.6 9.24 47.6" mask="url(#b)"/>
      <path fill="#455053" d="M29.2439583,9.46386 L10.12,9.46386 L10.12,9.46386 C9.0154305,9.46386 8.12,10.3592905 8.12,11.46386 L8.12,59.64028 L40.4348,59.64028 L40.4348,20.6508525 L40.4348,20.6508525 C40.4348,20.1202744 40.2239713,19.6114396 39.8487173,19.2363428 L30.6578756,10.0493503 L30.6578756,10.0493503 C30.2828269,9.67445869 29.7742461,9.46386 29.2439583,9.46386 Z M30.56424,12.44768 L37.45378,19.33442 L30.56424,19.33442 L30.56424,12.44768 Z M38.6722,57.87712 L9.8826,57.87712 L9.8826,11.22646 L28.80178,11.22646 L28.80178,21.09758 L38.6722,21.09758 L38.6722,57.87712 Z" mask="url(#b)"/>
      <path fill="#455053" d="M44.44342,2.296 L22.57332,2.296 L22.57332,8.52376 L24.33592,8.52376 L24.33592,4.0586 L43.2551,4.0586 L43.2551,13.92916 L53.12566,13.92916 L53.12566,50.70926 L41.3749,50.70926 L41.3749,52.47172 L54.88826,52.47172 L54.88826,12.63304 L44.44342,2.296 Z M45.0177,12.16656 L45.0177,5.34422 L51.91158,12.16656 L45.0177,12.16656 Z" mask="url(#b)"/>
      <path fill="#455053" d="M12.74 15.12L25.62 15.12 25.62 15.12C26.0839192 15.12 26.46 14.7439192 26.46 14.28L26.46 14.28 26.46 14.28C26.46 13.8160808 26.0839192 13.44 25.62 13.44L12.74 13.44 12.74 13.44C12.2760808 13.44 11.9 13.8160808 11.9 14.28L11.9 14.28 11.9 14.28C11.9 14.7439192 12.2760808 15.12 12.74 15.12zM12.74 19.32L25.62 19.32 25.62 19.32C26.0839192 19.32 26.46 18.9439192 26.46 18.48L26.46 18.48 26.46 18.48C26.46 18.0160808 26.0839192 17.64 25.62 17.64L12.74 17.64 12.74 17.64C12.2760808 17.64 11.9 18.0160808 11.9 18.48L11.9 18.48 11.9 18.48C11.9 18.9439192 12.2760808 19.32 12.74 19.32zM12.74 23.38L25.62 23.38 25.62 23.38C26.0839192 23.38 26.46 23.0039192 26.46 22.54L26.46 22.54 26.46 22.54C26.46 22.0760808 26.0839192 21.7 25.62 21.7L12.74 21.7 12.74 21.7C12.2760808 21.7 11.9 22.0760808 11.9 22.54L11.9 22.54 11.9 22.54C11.9 23.0039192 12.2760808 23.38 12.74 23.38zM12.74 27.44L35.7 27.44 35.7 27.44C36.1639192 27.44 36.54 27.0639192 36.54 26.6L36.54 26.6 36.54 26.6C36.54 26.1360808 36.1639192 25.76 35.7 25.76L12.74 25.76 12.74 25.76C12.2760808 25.76 11.9 26.1360808 11.9 26.6L11.9 26.6 11.9 26.6C11.9 27.0639192 12.2760808 27.44 12.74 27.44zM12.74 31.5L35.7 31.5 35.7 31.5C36.1639192 31.5 36.54 31.1239192 36.54 30.66L36.54 30.66 36.54 30.66C36.54 30.1960808 36.1639192 29.82 35.7 29.82L12.74 29.82 12.74 29.82C12.2760808 29.82 11.9 30.1960808 11.9 30.66L11.9 30.66 11.9 30.66C11.9 31.1239192 12.2760808 31.5 12.74 31.5zM12.74 35.56L28.56 35.56 28.56 35.56C29.0239192 35.56 29.4 35.1839192 29.4 34.72L29.4 34.72 29.4 34.72C29.4 34.2560808 29.0239192 33.88 28.56 33.88L12.74 33.88 12.74 33.88C12.2760808 33.88 11.9 34.2560808 11.9 34.72L11.9 34.72 11.9 34.72C11.9 35.1839192 12.2760808 35.56 12.74 35.56z" mask="url(#b)"/>
    </g>
    <path fill="#0BC8DA" d="M2.43597222 16.106819L59.6614238 1.17948197 42.2083607 41.4929888 31.7629892 30.9139122 22.2835305 37.6668548 19.0424964 22.5279836" transform="translate(.3 24.88)"/>
    <path fill="#455053" d="M41.60688,39.90308 L27.07614,24.0513 L35.77266,18.37976 C36.36892,17.99098 36.45614,17.1521 35.95284,16.6488 L35.9366,16.63256 C35.56182,16.25792 34.97606,16.19688 34.53226,16.48626 L25.1685,22.59306 L5.3333,16.39456 L53.6816,3.99756 L40.0743,12.87202 C39.47216,13.26458 39.38382,14.112 39.8923,14.62034 C40.27072,14.9989 40.8625,15.06036 41.31092,14.76818 L57.4588,4.2371 L41.60688,39.90308 Z M23.10028,35.5348 L20.7074,23.5704 L24.71126,24.82172 L30.19548,30.80448 L23.10028,35.5348 Z M61.17678,1.11748 C61.173,1.06232 61.16488,1.00716 61.15284,0.95228 C61.15214,0.94934 61.15172,0.94612 61.15102,0.94304 C61.13912,0.89166 61.12274,0.84056 61.10328,0.79002 C61.10006,0.78162 61.09698,0.77322 61.09348,0.76468 C61.09026,0.7567 61.08774,0.74872 61.0841,0.74074 C61.06632,0.70042 61.04588,0.66206 61.02404,0.62482 C61.01956,0.61712 61.01494,0.60956 61.01004,0.602 C60.98134,0.55552 60.95012,0.51142 60.91582,0.47026 C60.91274,0.4669 60.90938,0.4634 60.90644,0.4599 C60.78758,0.32158 60.63834,0.21504 60.47258,0.1477 C60.47076,0.14686 60.46894,0.14602 60.46712,0.14532 C60.41378,0.12404 60.3589,0.10724 60.30276,0.09422 C60.29982,0.09352 60.29674,0.09268 60.29366,0.09198 C60.23864,0.0798 60.18264,0.07182 60.12594,0.0679 C60.1223,0.06762 60.11866,0.06734 60.11488,0.0672 C60.05916,0.06412 60.00302,0.06454 59.9466,0.06986 C59.94212,0.07014 59.93778,0.07084 59.9333,0.07126 C59.878,0.077 59.82242,0.08596 59.76726,0.10024 L59.76572,0.10052 C59.7653,0.1008 59.7646,0.10094 59.76418,0.10094 L0.9142,15.1907 C0.42406,15.31628 0.077,15.75182 0.06384,16.2575 C0.05068,16.76318 0.37478,17.21622 0.85764,17.36714 L18.24522,22.80082 L21.2121,37.63564 C21.28616,38.00608 21.53998,38.31492 21.88872,38.4594 C22.02802,38.51708 22.17516,38.5455 22.32188,38.5455 C22.54224,38.5455 22.7612,38.48124 22.94978,38.35538 L31.7436,32.49288 L41.1054,42.70574 C41.32156,42.9415 41.62522,43.07268 41.93952,43.07268 C42.00014,43.07268 42.06118,43.06778 42.12194,43.05784 C42.49868,42.99638 42.81886,42.74914 42.97384,42.40054 L61.08256,1.65606 C61.0841,1.65228 61.08494,1.64822 61.08662,1.6443 C61.1079,1.59502 61.12568,1.5442 61.13982,1.4924 C61.14206,1.48386 61.14416,1.47518 61.14626,1.46664 C61.159,1.41512 61.16838,1.36304 61.17384,1.31012 C61.17454,1.30284 61.17482,1.29556 61.17538,1.28828 C61.18,1.23396 61.18112,1.17908 61.17776,1.12434 C61.17748,1.1221 61.17692,1.11986 61.17678,1.11748 L61.17678,1.11748 Z" transform="translate(.3 24.88)"/>
  </g>
</svg>
