<svg xmlns="http://www.w3.org/2000/svg" width="100" height="100">
  <g fill="none" fill-rule="evenodd">
    <path fill="#455053" d="M78.2697561,53.9414634 L70.6117073,63.942439 L70.6117073,51.2221951 L86.6443902,51.2221951 L50.2829268,0.149512195 L11.8882927,51.2221951 L29.8904878,51.2221951 L29.8904878,63.6602439 L22.8409756,53.9414634 L0,83.7690244 L10.7612195,83.7690244 L10.7612195,100 L90.2878049,100 L90.2878049,83.7690244 L99.9029268,83.7690244 L78.2697561,53.9414634 Z M31.9787805,97.1197561 L13.6414634,97.1197561 L13.6414634,80.8878049 L5.83463415,80.8878049 L22.7782927,58.7612195 L38.8263415,80.8878049 L31.9778049,80.8878049 L31.9778049,97.1197561 L31.9787805,97.1197561 Z M66.19,97.1197561 L34.8590244,97.1197561 L34.8590244,83.7690244 L44.4741463,83.7690244 L32.7704878,67.6321951 L32.7704878,48.3412195 L17.6573171,48.3412195 L50.2190244,5.02756098 L81.057561,48.3412195 L67.7314634,48.3412195 L67.7314634,67.7036585 L55.4287805,83.7690244 L66.19,83.7690244 L66.19,97.1197561 Z"/>
    <path fill="#14C3A2" d="M31.9787805 97.1197561L13.6414634 97.1197561 13.6414634 80.8878049 5.83463415 80.8878049 22.7782927 58.7612195 38.8263415 80.8878049 31.9778049 80.8878049 31.9778049 97.1197561"/>
    <path fill="#0BC8DA" d="M87.407561 80.8878049L87.407561 97.1197561 69.0702439 97.1197561 69.0702439 80.8878049 61.2634146 80.8878049 78.2068293 58.7612195 94.254878 80.8878049"/>
    <path fill="#455053" d="M82.6295122 86.5319512L82.6295122 92.3417073 79.4207317 92.3417073 79.4207317 95.2219512 85.5097561 95.2219512 85.5097561 86.5319512M73.582439 95.2217073L76.3512195 95.2217073 76.3512195 92.3407317 73.582439 92.3407317M95.6373171 52.7446341L98.5182927 52.7446341 98.5182927 49.6863415 95.6373171 49.6863415M89.84 22.5807317L92.7209756 22.5807317 92.7209756 19.522439 89.84 19.522439M92.772439 7.3502439L95.6526829 7.3502439 95.6526829 4.29195122 92.772439 4.29195122M82.4104878 33.485122L85.2907317 33.485122 85.2907317 30.4268293 82.4104878 30.4268293M72.7029268 15.5409756L75.5831707 15.5409756 75.5831707 12.4826829 72.7029268 12.4826829M1.46902439 52.7446341L4.35 52.7446341 4.35 49.6863415 1.46902439 49.6863415M7.66390244 22.5807317L10.5441463 22.5807317 10.5441463 19.522439 7.66390244 19.522439M4.73121951 7.3502439L7.61219512 7.3502439 7.61219512 4.29195122 4.73121951 4.29195122M15.092439 33.485122L17.9726829 33.485122 17.9726829 30.4268293 15.092439 30.4268293M24.8019512 15.5409756L27.6821951 15.5409756 27.6821951 12.4826829 24.8019512 12.4826829M26.9578049 86.5319512L26.9578049 92.3417073 23.7490244 92.3417073 23.7490244 95.2219512 29.8380488 95.2219512 29.8380488 86.5319512M17.9117073 95.2217073L20.6804878 95.2217073 20.6804878 92.3407317 17.9117073 92.3407317"/>
  </g>
</svg>
