<svg xmlns="http://www.w3.org/2000/svg" width="70" height="62" xmlns:xlink="http://www.w3.org/1999/xlink">
  <defs>
    <path id="a" d="M61.0875332 30.7012782L61.0875332 61.240252 0.00974801 61.240252 0.00974801 0.16230438 61.0875332 0.16230438z"/>
  </defs>
  <g fill="none" fill-rule="evenodd">
    <mask id="b" fill="#fff">
      <use xlink:href="#a"/>
    </mask>
    <path fill="#DBE3E9" d="M1 5H60V43H1z" mask="url(#b)"/>
    <path fill="#FFF" d="M12 1H49V43H12z" mask="url(#b)"/>
    <path fill="#FF4CB7" d="M17 34H33V43H17z" mask="url(#b)"/>
    <path fill="#455053" d="M58.7686439,4.41633621 L49.8266313,4.41633621 L49.8266313,1.13710544 C49.8266313,0.599015252 49.3905703,0.162304377 48.8518302,0.162304377 L12.2357029,0.162304377 C11.6969629,0.162304377 11.2609019,0.599015252 11.2609019,1.13710544 L11.2609019,4.41633621 L2.31888926,4.41633621 C1.04011273,4.41633621 0,5.45644894 0,6.7345756 L0,49.5224934 C0,50.8012699 1.04011273,51.8413826 2.31888926,51.8413826 L23.6096817,51.8413826 L23.6096817,59.3002354 L14.4151956,59.3002354 C13.876943,59.3002354 13.4403946,59.7369463 13.4403946,60.2750365 C13.4403946,60.8132891 13.876943,61.2498375 14.4151956,61.2498375 L42.3568932,61.2498375 C42.8949834,61.2498375 43.3316943,60.8132891 43.3316943,60.2750365 C43.3316943,59.7369463 42.8949834,59.3002354 42.3568932,59.3002354 L37.4778515,59.3002354 L37.4778515,51.8413826 L41.4899702,51.8413826 C42.0287102,51.8413826 42.4647712,51.4053216 42.4647712,50.8665816 C42.4647712,50.3284914 42.0287102,49.8917805 41.4899702,49.8917805 L2.31888926,49.8917805 C2.11840517,49.8917805 1.94960212,49.7229775 1.94960212,49.5224934 L1.94960212,6.7345756 C1.94960212,6.53474138 2.11840517,6.36528846 2.31888926,6.36528846 L11.2609019,6.36528846 L11.2609019,15.219719 L11.2609019,26.287222 L11.2609019,41.9607991 L5.00722812,41.9607991 C4.46848806,41.9607991 4.03242706,42.3966976 4.03242706,42.9356001 C4.03242706,43.4736903 4.46848806,43.9104012 5.00722812,43.9104012 L39.0529675,43.9104012 C39.5917076,43.9104012 40.0277686,43.4736903 40.0277686,42.9356001 C40.0277686,42.3966976 39.5917076,41.9607991 39.0529675,41.9607991 L33.8369695,41.9607991 L33.8369695,33.9935875 C33.8369695,33.4553349 33.4002586,33.0187865 32.8621684,33.0187865 L17.4346419,33.0187865 C16.8959019,33.0187865 16.4598408,33.4553349 16.4598408,33.9935875 L16.4598408,41.9607991 L13.210504,41.9607991 L13.210504,26.287222 L13.210504,15.2199055 L13.210504,2.1119065 L47.8775166,2.1119065 L47.8775166,25.9916412 C47.8775166,26.5298939 48.3135776,26.9664423 48.8523176,26.9664423 C49.3905703,26.9664423 49.8271187,26.5298939 49.8271187,25.9916412 L49.8271187,6.36593833 L58.7686439,6.36593833 C58.969128,6.36593833 59.137931,6.53474138 59.137931,6.73522546 L59.137931,24.5032493 L59.137931,24.5032493 C59.137931,25.0416171 59.5743643,25.4780504 60.1127321,25.4780504 L60.1127321,25.4780504 L60.1127321,25.4780504 C60.6510999,25.4780504 61.0875332,25.0416171 61.0875332,24.5032493 L61.0875332,6.7345756 C61.0875332,5.45644894 60.0474204,4.41633621 58.7686439,4.41633621 Z M25.5592838,59.3002354 L35.5288992,59.3002354 L35.5288992,51.8413826 L25.5592838,51.8413826 L25.5592838,59.3002354 Z M18.409443,41.9607991 L31.8873674,41.9607991 L31.8873674,34.9683886 L18.409443,34.9683886 L18.409443,41.9607991 Z" mask="url(#b)"/>
    <path fill="#0BC8DA" d="M18 7H43V13H18z"/>
    <path fill="#455053" d="M17.4346419 14.1726326L43.6533786 14.1726326C44.1916313 14.1726326 44.6281797 13.7365716 44.6281797 13.1978316L44.6281797 6.33604443C44.6281797 5.79795424 44.1916313 5.36124337 43.6533786 5.36124337L17.4346419 5.36124337C16.8959019 5.36124337 16.4598408 5.79795424 16.4598408 6.33604443L16.4598408 13.1978316C16.4598408 13.7365716 16.8959019 14.1726326 17.4346419 14.1726326zM18.409443 12.2230305L42.6785776 12.2230305 42.6785776 7.31084549 18.409443 7.31084549 18.409443 12.2230305zM43.6528912 16.1222347L17.4346419 16.1222347C16.8959019 16.1222347 16.4598408 16.5587832 16.4598408 17.0970358 16.4598408 17.6357759 16.8959019 18.0718369 17.4346419 18.0718369L43.6533786 18.0718369C44.1916313 18.0718369 44.6281797 17.6357759 44.6281797 17.0970358 44.6281797 16.5587832 44.1916313 16.1222347 43.6528912 16.1222347zM32.8621684 21.3211737L17.4346419 21.3211737C16.8959019 21.3211737 16.4598408 21.7577221 16.4598408 22.2959748 16.4598408 22.8347149 16.8959019 23.2707759 17.4346419 23.2707759L32.8621684 23.2707759C33.4002586 23.2707759 33.8369695 22.8347149 33.8369695 22.2959748 33.8369695 21.7577221 33.4002586 21.3211737 32.8621684 21.3211737zM41.6777818 21.3211737L36.7613727 21.3211737C36.2224702 21.3211737 35.7865716 21.7577221 35.7865716 22.2959748 35.7865716 22.8347149 36.2224702 23.2707759 36.7613727 23.2707759L41.6777818 23.2707759C42.2160345 23.2707759 42.6525829 22.8347149 42.6525829 22.2959748 42.6525829 21.7577221 42.2160345 21.3211737 41.6777818 21.3211737zM32.8621684 25.220378L17.4346419 25.220378C16.8959019 25.220378 16.4598408 25.6569264 16.4598408 26.195179 16.4598408 26.7339191 16.8959019 27.1699801 17.4346419 27.1699801L32.8621684 27.1699801C33.4002586 27.1699801 33.8369695 26.7339191 33.8369695 26.195179 33.8369695 25.6569264 33.4002586 25.220378 32.8621684 25.220378zM41.4899702 25.220378L36.7613727 25.220378C36.2224702 25.220378 35.7865716 25.6569264 35.7865716 26.195179 35.7865716 26.7339191 36.2224702 27.1699801 36.7613727 27.1699801L41.4899702 27.1699801C42.0287102 27.1699801 42.4647712 26.7339191 42.4647712 26.195179 42.4647712 25.6569264 42.0287102 25.220378 41.4899702 25.220378zM32.8621684 29.1195822L17.4346419 29.1195822C16.8959019 29.1195822 16.4598408 29.5561306 16.4598408 30.0943833 16.4598408 30.6331233 16.8959019 31.0691844 17.4346419 31.0691844L32.8621684 31.0691844C33.4002586 31.0691844 33.8369695 30.6331233 33.8369695 30.0943833 33.8369695 29.5561306 33.4002586 29.1195822 32.8621684 29.1195822zM41.4899702 29.1195822L36.7613727 29.1195822C36.2224702 29.1195822 35.7865716 29.5561306 35.7865716 30.0943833 35.7865716 30.6331233 36.2224702 31.0691844 36.7613727 31.0691844L41.4899702 31.0691844C42.0287102 31.0691844 42.4647712 30.6331233 42.4647712 30.0943833 42.4647712 29.5561306 42.0287102 29.1195822 41.4899702 29.1195822z"/>
    <path fill="#455053" d="M13.9721485,27.9442971 C21.6887531,27.9442971 27.9442971,21.6887531 27.9442971,13.9721485 C27.9442971,6.25554398 21.6887531,0 13.9721485,0 C6.25554398,0 0,6.25554398 0,13.9721485 C0,17.2891971 1.15588934,20.3362733 3.08684905,22.7325581 L1.49726737,26.6974024 L1.49726737,26.6974024 C1.29174788,27.2100233 1.54070275,27.7921911 2.05332365,27.9977106 C2.27506713,28.0866118 2.52131116,28.0931905 2.74748514,28.0162559 L7.54824154,26.3832475 C9.47148517,27.3807317 11.656003,27.9442971 13.9721485,27.9442971 Z" transform="translate(41.592 26.482)"/>
    <path fill="#14C3A2" d="M13.9721485,26.1275877 C20.6568816,26.1275877 26.0759284,20.7085409 26.0759284,14.0238078 C26.0759284,7.33907482 20.6568816,1.920028 13.9721485,1.920028 C7.28741552,1.920028 1.8683687,7.33907482 1.8683687,14.0238078 C1.8683687,16.8972976 3.35709198,20.1867833 5.02984195,22.2626347 L3.37961356,26.1275877 L7.86920417,24.4873924 C9.53526987,25.3514921 11.9657201,26.1275877 13.9721485,26.1275877 Z" transform="translate(41.592 26.482)"/>
    <path fill="#F4F9FC" d="M6.9066093 8.61074271L17.0650208 8.61074271 17.0650208 8.61074271C17.6033886 8.61074271 18.0398219 8.1743094 18.0398219 7.63594164L18.0398219 7.63594164 18.0398219 7.63594164C18.0398219 7.09757388 17.6033886 6.66114058 17.0650208 6.66114058L6.9066093 6.66114058 6.9066093 6.66114058C6.36824154 6.66114058 5.93180823 7.09757388 5.93180823 7.63594164L5.93180823 7.63594164 5.93180823 7.63594164C5.93180823 8.1743094 6.36824154 8.61074271 6.9066093 8.61074271zM6.98607427 12.6724138L22.4716228 12.6724138 22.4716228 12.6724138C23.0099905 12.6724138 23.4464238 12.2359805 23.4464238 11.6976127L23.4464238 11.6976127 23.4464238 11.6976127C23.4464238 11.159245 23.0099905 10.7228117 22.4716228 10.7228117L6.98607427 10.7228117 6.98607427 10.7228117C6.44770651 10.7228117 6.01127321 11.159245 6.01127321 11.6976127L6.01127321 11.6976127 6.01127321 11.6976127C6.01127321 12.2359805 6.44770651 12.6724138 6.98607427 12.6724138zM6.98607427 16.7340849L22.4716228 16.7340849 22.4716228 16.7340849C23.0099905 16.7340849 23.4464238 16.2976516 23.4464238 15.7592838L23.4464238 15.7592838 23.4464238 15.7592838C23.4464238 15.2209161 23.0099905 14.7844828 22.4716228 14.7844828L6.98607427 14.7844828 6.98607427 14.7844828C6.44770651 14.7844828 6.01127321 15.2209161 6.01127321 15.7592838L6.01127321 15.7592838 6.01127321 15.7592838C6.01127321 16.2976516 6.44770651 16.7340849 6.98607427 16.7340849zM6.98607427 20.795756L8.93567639 20.795756 8.93567639 20.795756C9.47404415 20.795756 9.91047745 20.3593227 9.91047745 19.8209549L9.91047745 19.8209549 9.91047745 19.8209549C9.91047745 19.2825871 9.47404415 18.8461538 8.93567639 18.8461538L6.98607427 18.8461538 6.98607427 18.8461538C6.44770651 18.8461538 6.01127321 19.2825871 6.01127321 19.8209549L6.01127321 19.8209549 6.01127321 19.8209549C6.01127321 20.3593227 6.44770651 20.795756 6.98607427 20.795756zM12.3474801 20.795756L14.2970822 20.795756 14.2970822 20.795756C14.83545 20.795756 15.2718833 20.3593227 15.2718833 19.8209549L15.2718833 19.8209549 15.2718833 19.8209549C15.2718833 19.2825871 14.83545 18.8461538 14.2970822 18.8461538L12.3474801 18.8461538 12.3474801 18.8461538C11.8091123 18.8461538 11.372679 19.2825871 11.372679 19.8209549L11.372679 19.8209549 11.372679 19.8209549C11.372679 20.3593227 11.8091123 20.795756 12.3474801 20.795756z" transform="translate(41.592 26.482)"/>
  </g>
</svg>
