<svg xmlns="http://www.w3.org/2000/svg" width="69" height="70">
  <g fill="none" fill-rule="evenodd">
    <path fill="#FF4CB7" d="M1.06806724,37.3390158 L20.9107299,37.3390158 L20.9107299,30.9029559 C20.3658486,29.3535455 19.5277145,28.4052625 18.3963276,28.0581071 C17.2649406,27.7109517 16.0099474,27.164189 14.6313479,26.4178188 L10.9893986,30.1013686 L6.95272708,26.4178188 L2.79646684,28.0581071 C1.64420044,28.8337429 1.06806724,29.7820259 1.06806724,30.9029559 C1.06806724,32.0238859 1.06806724,34.1692392 1.06806724,37.3390158 Z" transform="translate(0 32)"/>
    <path fill="#455053" d="M10.8888008,22.7975176 C8.04983594,22.7976543 5.67858594,20.6716777 5.37315625,17.8524004 C5.35675,17.7014629 5.30712109,17.5558574 5.22755078,17.4263848 C4.58319531,16.3769316 4.24249219,15.1781816 4.24249219,13.9594707 C4.24249219,10.2948613 7.22405469,7.31316211 10.8888008,7.31316211 C14.5535469,7.31316211 17.5351094,10.2948613 17.5351094,13.9594707 C17.5351094,14.6660332 17.4198555,15.3657598 17.1979609,16.0337676 C14.2863984,13.0758574 9.16450391,11.9166191 8.91758984,11.8623418 C8.60655469,11.793709 8.28034375,11.8507207 8.03616406,12.0559355 C7.79499219,12.2588262 7.6601875,12.5386895 7.671125,12.8530059 C7.66333203,12.9524004 7.5858125,13.6204082 6.87596875,14.3303887 C6.47551953,14.7308379 6.47551953,15.3799785 6.87596875,15.7805645 C7.27641797,16.180877 7.92569531,16.180877 8.32600781,15.7805645 C8.9026875,15.203748 9.24133984,14.6184551 9.44026563,14.1243535 C11.1656562,14.6369121 14.7467305,15.9312285 16.3538594,18.2032207 C15.8977656,20.8459941 13.6085469,22.7975176 10.8888008,22.7975176 L10.8888008,22.7975176 Z M10.8888008,28.9841777 L8.37714063,26.5973418 C8.53792188,26.2960137 8.62624219,25.9543535 8.62624219,25.5965605 L8.62624219,24.5052715 C9.34251172,24.7275762 10.1021211,24.8484355 10.8888008,24.8484355 C11.6753438,24.8484355 12.4350898,24.7275762 13.1510859,24.5054082 L13.1509492,25.5964238 C13.1509492,25.9543535 13.2392695,26.2961504 13.4001875,26.5976152 L10.8888008,28.9841777 Z M10.8888008,2.92941211 C12.7405195,2.92941211 14.2471602,4.19023242 14.2471602,5.73980273 C14.2471602,5.80474414 14.2419648,5.86927539 14.2367695,5.9335332 C13.2056367,5.50177539 12.0746992,5.26251758 10.8888008,5.26251758 C9.70303906,5.26251758 8.57223828,5.50177539 7.54137891,5.93339648 C7.53618359,5.86913867 7.53044141,5.80488086 7.53044141,5.73980273 C7.53044141,4.1900957 9.03708203,2.92941211 10.8888008,2.92941211 L10.8888008,2.92941211 Z M19.3933906,27.7359355 L15.240832,25.659998 C15.2167695,25.6479668 15.2017305,25.6236309 15.2017305,25.596834 L15.2020039,23.5096855 C16.9066133,22.3359551 18.1131562,20.4805449 18.4150312,18.302752 C19.18175,16.9779473 19.5857539,15.4812871 19.5857539,13.9596074 C19.5857539,11.1221465 18.2193867,8.59804492 16.1105,7.00950977 C16.2340937,6.59798633 16.2979414,6.17306445 16.2979414,5.73993945 C16.2979414,3.05943164 13.8713203,0.878767578 10.8888008,0.878767578 C7.90628125,0.878767578 5.47966016,3.05943164 5.47966016,5.73993945 C5.47966016,6.17374805 5.54282422,6.59880664 5.66641797,7.01005664 C3.55794141,8.59872852 2.19184766,11.1224199 2.19184766,13.9596074 C2.19184766,15.4812871 2.596125,16.9782207 3.36257031,18.302752 C3.66444531,20.4805449 4.87098828,22.3359551 6.57559766,23.5096855 L6.57559766,25.5966973 C6.57559766,25.6234941 6.56069531,25.6478301 6.53663281,25.6598613 L2.38421094,27.7359355 C0.913527344,28.471209 -2.734375e-05,29.9496855 -2.734375e-05,31.5938652 L-2.734375e-05,36.9745684 C-2.734375e-05,37.5408574 0.459074219,37.999959 1.02536328,37.999959 C1.59165234,37.999959 2.05075391,37.5408574 2.05075391,36.9745684 L2.05075391,31.5938652 C2.05075391,30.7313066 2.52995312,29.9559746 3.30132031,29.570291 L6.72639844,27.8578887 L9.86354687,30.839041 L9.86354687,36.9745684 C9.86354687,37.5408574 10.3226484,37.999959 10.8889375,37.999959 C11.4552266,37.999959 11.9143281,37.5408574 11.9143281,36.9745684 L11.9143281,30.8389043 L15.0513398,27.8578887 L18.476418,29.5701543 C19.2479219,29.9558379 19.7271211,30.7313066 19.7271211,31.5938652 L19.7271211,36.9745684 C19.7271211,37.5408574 20.1862227,37.999959 20.7525117,37.999959 C21.3188008,37.999959 21.7779023,37.5408574 21.7779023,36.9745684 L21.7779023,31.5938652 C21.7777656,29.9496855 20.8642109,28.471209 19.3933906,27.7359355 L19.3933906,27.7359355 Z" transform="translate(0 32)"/>
    <path fill="#455053" d="M5.40916797 32.9203105C4.84287891 32.9203105 4.38377734 33.3794121 4.38377734 33.9457012L4.38377734 36.9745684C4.38377734 37.5408574 4.84287891 37.999959 5.40916797 37.999959 5.97545703 37.999959 6.43455859 37.5408574 6.43455859 36.9745684L6.43455859 33.9457012C6.43455859 33.3794121 5.97545703 32.9203105 5.40916797 32.9203105M16.3686387 32.9203105C15.8023496 32.9203105 15.343248 33.3794121 15.343248 33.9457012L15.343248 36.9745684C15.343248 37.5408574 15.8023496 37.999959 16.3686387 37.999959 16.9349277 37.999959 17.3940293 37.5408574 17.3940293 36.9745684L17.3940293 33.9457012C17.3940293 33.3794121 16.9349277 32.9203105 16.3686387 32.9203105" transform="translate(0 32)"/>
    <path fill="#14C3A2" d="M46.8405682,56.5201807 C47.1427467,56.0374796 47.0026631,55.397331 46.5279275,55.0901702 L35.0190542,47.645663 L35.0190542,36.0358392 C35.0190542,35.4637797 34.5627971,35 34.0000167,35 C33.4372363,35 32.9809792,35.4637797 32.9809792,36.0358392 L32.9809792,47.645663 L21.472106,55.0901702 C20.9972345,55.397331 20.8572867,56.0374796 21.1594653,56.5201807 C21.3537617,56.83038 21.6833864,56.9999814 22.0202122,56.9999814 C22.2073075,56.9999814 22.3967126,56.947637 22.5662804,56.8378381 L34.0000167,49.4419462 L45.433753,56.8378381 C45.9086244,57.145137 46.5383896,57.0027437 46.8405682,56.5201807"/>
    <path fill="#0BC8DA" d="M1.05511909,32.276474 L20.9030507,31.989416 L20.9030507,25.7203006 C20.8876633,24.559655 20.2772124,23.6782445 19.0716978,23.0760691 C17.8661832,22.4738937 16.4244923,21.8247158 14.746625,21.1285353 C14.0098426,22.9283377 12.7539959,23.8447899 10.9790849,23.8778921 C9.20417384,23.9109943 7.82807308,22.9945421 6.85078261,21.1285353 L3.04842701,23.0760691 C1.71955506,23.5490684 1.05511909,24.4304789 1.05511909,25.7203006 C1.05511909,27.0101223 1.05511909,29.1955135 1.05511909,32.276474 Z" transform="translate(23)"/>
    <path fill="#455053" d="M15.2171289,18.2484121 C16.7254102,17.2100332 17.8419922,15.6369473 18.2886523,13.7800332 C18.5990039,15.3116934 18.9875586,16.8454043 19.4247852,18.0225527 C19.4298438,18.035541 19.4514453,18.1026699 19.3956641,18.128373 C18.5455469,18.5199355 17.1620898,19.0309902 15.2169922,19.3700527 L15.2171289,18.2484121 Z M10.9037891,17.5351504 C7.84333984,17.5351504 5.35341797,15.0452285 5.35341797,11.9847793 C5.35341797,11.4184902 4.89431641,10.9593887 4.32802734,10.9593887 C4.21291016,10.9593887 4.10257813,10.9792129 3.99935547,11.0142129 C4.12431641,10.1511074 4.21195313,9.37413477 4.25488281,8.76956445 C4.38585938,6.92823633 5.12181641,5.23100977 6.32712891,3.99110742 C7.54337891,2.73985742 9.16869141,2.05079492 10.9039258,2.05079492 C12.6391602,2.05079492 14.2644727,2.73985742 15.4807227,3.99110742 C16.6860352,5.23114648 17.4219922,6.92823633 17.552832,8.76983789 C17.5989063,9.41802148 17.6965234,10.2648574 17.83625,11.2031582 C16.7318359,9.3269668 14.9393164,7.95116602 12.5824219,7.19388086 C10.5263086,6.53325586 8.75757813,6.57386133 8.68347656,6.57618555 C8.41496094,6.58356836 8.16011719,6.69608789 7.97376953,6.8894082 L6.124375,8.80729883 C5.73130859,9.21499414 5.74306641,9.86413477 6.15076172,10.2572012 C6.55845703,10.6502676 7.20759766,10.638373 7.60066406,10.2308145 L9.13875,8.6357168 C9.70626953,8.66401758 10.81,8.7706582 12.0116211,9.16454492 C14.1217383,9.8563418 15.5920117,11.0943301 16.3858008,12.8463809 C15.9688086,15.5370059 13.6560742,17.5351504 10.9037891,17.5351504 L10.9037891,17.5351504 Z M12.4623828,22.2407363 C11.5886133,23.0713027 10.219375,23.0713027 9.34533203,22.2407363 L8.39226563,21.3349746 C8.55304688,21.0336465 8.64136719,20.6919863 8.64136719,20.3340566 L8.64136719,19.242084 C9.35626953,19.4654824 10.1162891,19.5859316 10.9037891,19.5859316 C11.6904688,19.5859316 12.4500781,19.4649355 13.1662109,19.2427676 L13.1660742,20.3339199 C13.1660742,20.6919863 13.2543945,21.0337832 13.4151758,21.335248 L12.4623828,22.2407363 Z M6.59058594,19.369916 C4.64630859,19.031127 3.263125,18.5200723 2.41205078,18.1280996 C2.35640625,18.1026699 2.37800781,18.035541 2.38292969,18.0222793 C2.82001953,16.8454043 3.20857422,15.3121035 3.51892578,13.7805801 C3.96558594,15.6168496 5.08011719,17.1939004 6.59058594,18.2388418 L6.59058594,19.369916 Z M19.4083789,22.4735684 L16.7604102,21.1497207 C18.313125,20.7930215 19.4772852,20.3486855 20.2534375,19.991166 C21.2710352,19.5226309 21.7412109,18.3691348 21.3471875,17.308334 C20.4460742,14.8819863 19.7410156,10.6334512 19.5982813,8.62450586 C19.2489648,3.70768945 15.5110742,1.3671875e-05 10.9039258,1.3671875e-05 C6.29677734,1.3671875e-05 2.55888672,3.70768945 2.20943359,8.62436914 C2.06669922,10.6334512 1.36164063,14.8818496 0.460527344,17.3081973 C0.0665039063,18.368998 0.536679688,19.5224941 1.55427734,19.9910293 C2.33111328,20.3488223 3.495,20.7930215 5.04703125,21.149584 L2.39919922,22.4735684 C0.928515625,23.2089785 0.0149609375,24.6871816 0.0149609375,26.331498 L0.0149609375,31.7122012 C0.0149609375,32.2784902 0.4740625,32.7375918 1.04035156,32.7375918 C1.60664063,32.7375918 2.06574219,32.2784902 2.06574219,31.7122012 L2.06574219,26.331498 C2.06574219,25.4690762 2.54494141,24.6936074 3.31630859,24.3079238 L6.74138672,22.5953848 L7.93261719,23.727416 C8.76564453,24.5190176 9.83478516,24.9149551 10.9037891,24.9149551 C11.9729297,24.9149551 13.0420703,24.5191543 13.8750977,23.727416 L15.0661914,22.5953848 L18.4912695,24.3077871 C19.2627734,24.6934707 19.7419727,25.4689395 19.7419727,26.331498 L19.7419727,31.7122012 C19.7419727,32.2784902 20.2010742,32.7375918 20.7673633,32.7375918 C21.3336523,32.7375918 21.7927539,32.2784902 21.7927539,31.7122012 L21.7927539,26.331498 C21.7927539,24.6871816 20.8790625,23.2088418 19.4083789,22.4735684 L19.4083789,22.4735684 Z" transform="translate(23)"/>
    <path fill="#455053" d="M4.39872461 28.6831699L4.39872461 31.7121738C4.39872461 32.2784629 4.85782617 32.7375645 5.42411523 32.7375645 5.9904043 32.7375645 6.44950586 32.2784629 6.44950586 31.7121738L6.44950586 28.6831699C6.44950586 28.1168809 5.9904043 27.6577793 5.42411523 27.6577793 4.85782617 27.6577793 4.39872461 28.1168809 4.39872461 28.6831699M15.3583867 28.6831699L15.3583867 31.7121738C15.3583867 32.2784629 15.8173516 32.7375645 16.3837773 32.7375645 16.9500664 32.7375645 17.409168 32.2784629 17.409168 31.7121738L17.409168 28.6831699C17.409168 28.1168809 16.9500664 27.6577793 16.3837773 27.6577793 15.8173516 27.6577793 15.3583867 28.1168809 15.3583867 28.6831699" transform="translate(23)"/>
    <path fill="#DBE3E9" d="M1.93713696,32.3391113 L24.0449085,32.3391113 L24.0449085,24.512151 L18.9889536,21.6608554 L16.4040796,20.7897654 C15.4849668,22.1254924 14.3472812,22.7863961 12.9910227,22.7724765 C11.6347643,22.7585569 10.4509352,22.0976532 9.4395354,20.7897654 L5.57725759,21.6608554 C3.15051051,23.0302679 1.93713696,23.9806998 1.93713696,24.512151 C1.93713696,25.0436022 1.93713696,27.652589 1.93713696,32.3391113 Z" transform="translate(44 37)"/>
    <path fill="#455053" d="M15.7483359,8.78075195 C15.8954453,8.85430664 16.0519883,8.88930664 16.2060703,8.88930664 C16.5821836,8.88930664 16.9443516,8.68135742 17.124,8.32219727 C17.3773398,7.81551758 17.1718516,7.19973633 16.6654453,6.94639648 C14.2843516,5.75584961 9.82007422,5.74217773 9.63112891,5.74217773 C9.06483984,5.74217773 8.60601172,6.20114258 8.605875,6.76729492 C8.60573828,7.33344727 9.06442969,7.79268555 9.63085547,7.79295898 C10.7842148,7.79364258 14.1320469,7.97260742 15.7483359,8.78075195" transform="translate(44 37)"/>
    <path fill="#455053" d="M12.7475918,17.7951113 C9.78161523,17.7061074 7.36866602,15.0938223 7.36866602,11.9717129 L7.36866602,10.0554629 C7.36866602,9.89632227 7.33161523,9.73923242 7.26038477,9.5969082 L6.62737695,8.33048242 C6.39536523,7.8665957 6.27272852,7.34733789 6.27272852,6.82862695 L6.27272852,6.76751367 C6.27272852,4.31136133 8.27100977,2.31308008 10.7271621,2.31308008 L19.5653457,2.31308008 L19.5653457,6.56981836 C19.5653457,7.25765039 19.4027871,7.94657617 19.0951699,8.56194727 L18.5776895,9.5969082 C18.506459,9.73936914 18.4694082,9.89632227 18.4694082,10.0554629 L18.4694082,12.2473379 C18.4694082,13.761498 17.8708535,15.176127 16.7838027,16.2309121 C15.697709,17.2851504 14.2625723,17.840502 12.7475918,17.7951113 L12.7475918,17.7951113 Z M14.5189199,21.253002 C13.6366738,22.1351113 12.2014004,22.1351113 11.3191543,21.253002 L10.4776504,20.4116348 C10.5801895,20.117416 10.6389785,19.8055605 10.6514199,19.4848184 C11.2979629,19.6975527 11.9801895,19.8237441 12.6860684,19.8449355 C12.7649551,19.8472598 12.8434316,19.8484902 12.9220449,19.8484902 C13.701752,19.8484902 14.4631387,19.7303652 15.1873379,19.5050527 C15.2015566,19.8186855 15.2596621,20.1237051 15.3600137,20.4117715 L14.5189199,21.253002 Z M21.775541,21.5398379 L18.0779824,20.4834121 C17.5797793,20.3410879 17.2319668,19.8797988 17.2319668,19.3616348 L17.2321035,18.5063223 C17.576498,18.267748 17.9048965,18.0007363 18.2119668,17.7026895 C19.7002871,16.2583926 20.519916,14.3209512 20.519916,12.2474746 L20.519916,10.2975918 L20.9291152,9.47919336 C21.3785098,8.58067773 21.6158535,7.57470117 21.6158535,6.56995508 L21.6158535,1.28782617 C21.6158535,0.721537109 21.156752,0.262435547 20.5904629,0.262435547 L10.7268887,0.262435547 C7.13979883,0.262435547 4.22167383,3.18056055 4.22167383,6.76765039 L4.22167383,6.82876367 C4.22167383,7.66397852 4.4190957,8.50056055 4.79261133,9.24772852 L5.31761133,10.2975918 L5.31761133,11.9717129 C5.31761133,14.624877 6.62505273,17.0055605 8.60542383,18.4382363 L8.60542383,19.3617715 C8.60542383,19.8797988 8.25761133,20.3410879 7.7594082,20.4834121 L4.06212305,21.5398379 C2.22024805,22.0660684 0.933861328,23.7716348 0.933861328,25.6872012 L0.933861328,31.974623 C0.933861328,32.5407754 1.39296289,33.0000137 1.95925195,33.0000137 C2.52554102,33.0000137 2.98464258,32.5407754 2.98464258,31.974623 L2.98464258,25.6870645 C2.98464258,24.6821816 3.65948633,23.7876309 4.62554102,23.5115957 L8.32268945,22.4551699 C8.64343164,22.3634316 8.9406582,22.2222012 9.20944727,22.0437832 L9.86856836,22.703041 C10.7095254,23.543998 11.8140762,23.9644082 12.918627,23.9644082 C14.0231777,23.9644082 15.1277285,23.543998 15.9685488,22.703041 L16.6276699,22.0440566 C16.8963223,22.2224746 17.1934121,22.3637051 17.514291,22.4554434 L21.2118496,23.5117324 C22.1779043,23.7879043 22.852748,24.6824551 22.852748,25.6873379 L22.852748,31.974623 C22.852748,32.5407754 23.3118496,33.0000137 23.8781387,33.0000137 C24.4444277,33.0000137 24.9035293,32.5407754 24.9035293,31.974623 L24.9035293,25.6870645 C24.9039395,23.7713613 23.6175527,22.0659316 21.775541,21.5398379 L21.775541,21.5398379 Z" transform="translate(44 37)"/>
    <path fill="#455053" d="M6.34330273 26.5654004C5.77687695 26.5654004 5.31791211 27.024502 5.31791211 27.590791L5.31791211 31.974541C5.31791211 32.5408301 5.77687695 32.9999316 6.34330273 32.9999316 6.9095918 32.9999316 7.36869336 32.5408301 7.36869336 31.974541L7.36869336 27.590791C7.36869336 27.0243652 6.9095918 26.5654004 6.34330273 26.5654004M19.4946074 26.5654004C18.9283184 26.5654004 18.4692168 27.024502 18.4692168 27.590791L18.4692168 31.974541C18.4692168 32.5408301 18.9283184 32.9999316 19.4946074 32.9999316 20.0610332 32.9999316 20.519998 32.5408301 20.519998 31.974541L20.519998 27.590791C20.519998 27.0243652 20.0610332 26.5654004 19.4946074 26.5654004" transform="translate(44 37)"/>
  </g>
</svg>
