<svg xmlns="http://www.w3.org/2000/svg" width="77" height="70" xmlns:xlink="http://www.w3.org/1999/xlink">
  <defs>
    <path id="a" d="M77,27.4790212 C76.1855442,24.7035988 75.587187,22.7206034 75.2049283,21.5300351 C74.4492172,19.1763258 72.7546388,18.5587512 70.1211933,19.6773115 C64.6538309,21.4932884 61.2501487,22.6462866 59.9101466,23.136306 C58.5701446,23.6263255 58.1185071,24.6696609 58.5552343,26.2663123 L55.8855231,29.0820482 L60.5023256,42.5838436 L63.6026075,41.888928 C65.0557941,42.9317743 67.5955086,43.4804309 71.2217507,43.5348978 L77,39.8166961 L77,76 L0,76 L0,0 L77,0 L77,27.4790212 Z M0.468062983,27.8358896 L6.13027148,27.8358896 L6.13027148,30.6027032 L20.0809926,30.6027032 L21.8292775,15.4672971 C21.8809542,12.7410077 21.2981926,10.4742083 20.0809926,8.66689899 C18.8637926,6.85958964 17.591603,5.46403117 16.2644239,4.48022359 L0.468062983,4.48022359 L0.468062983,27.8358896 Z"/>
  </defs>
  <g fill="none" fill-rule="evenodd" transform="translate(-1 -3)">
    <path fill="#F4F9FC" d="M17.8079541,45.7980051 C7.46732616,45.9353892 2.24106715,41.8700489 2.12917706,33.6019844 C1.96134191,21.1998877 13.1489354,9.90182044 24.1318691,14.0920338 C29.1872243,6.80926312 34.900937,3.47002825 41.2730072,4.0743292 C50.8311126,4.98078063 58.9877591,9.11079994 61.6525847,21.8067852 L61.6525847,23.8705879 C67.683835,25.6594518 70.4606367,29.4533534 69.98299,35.2522927 C69.26652,43.9507016 60.9716455,45.7980051 58.4820276,45.7980051 C56.8222823,45.7980051 43.2642578,45.7980051 17.8079541,45.7980051 Z"/>
    <mask id="b" fill="#fff">
      <use xlink:href="#a"/>
    </mask>
    <path fill="#455053" d="M68.3398138,27.0617553 C66.8344415,25.1927926 64.7902926,23.8075 62.514734,23.1013564 C62.25875,17.8135638 60.064734,12.8800532 56.2830585,9.12984043 C52.2971543,5.17726064 47.0095479,3 41.3952128,3 C34.0226862,3 27.2004787,6.84404255 23.3644415,13.0960106 C22.4313564,12.8014894 21.4612234,12.6532979 20.4700532,12.6532979 C15.9066489,12.6532979 11.9832979,15.8740426 11.0364362,20.2643085 C5.17654255,21.7849468 1,27.1257979 1,33.2489362 C1,40.6464096 7.01776596,46.6641755 14.4152394,46.6641755 L17.0106383,46.6641755 L17.0106383,59.5957447 L14.6449734,59.5957447 C14.1395213,57.4635372 12.2204787,55.8723404 9.93617021,55.8723404 C7.26723404,55.8723404 5.09574468,58.0438298 5.09574468,60.712766 C5.09574468,63.3817021 7.26723404,65.5531915 9.93617021,65.5531915 C12.2204787,65.5531915 14.1395213,63.9619947 14.6449734,61.8297872 L18.1276596,61.8297872 C18.7442553,61.8297872 19.2446809,61.3293617 19.2446809,60.712766 L19.2446809,45.5471543 C19.2446809,44.9305585 18.7442553,44.430133 18.1276596,44.430133 L14.4152394,44.430133 C8.24965426,44.430133 3.23404255,39.4145213 3.23404255,33.2489362 C3.23404255,27.9285638 7.0162766,23.3165691 12.2269947,22.2831383 C12.6974468,22.1900532 13.055266,21.8074734 13.1178191,21.3327394 C13.5985106,17.6579255 16.7589362,14.8873404 20.4700532,14.8873404 C21.490266,14.8873404 22.4808777,15.0923138 23.4124734,15.4951862 C23.9404521,15.723617 24.5555585,15.5141755 24.8335106,15.0102128 C28.1670745,8.9799734 34.513617,5.23404255 41.3952128,5.23404255 C51.7291489,5.23404255 60.212367,13.64 60.3054521,23.9717021 C60.309734,24.4881383 60.6675532,24.9338298 61.1700266,25.0501862 C65.6425798,26.0851064 68.7659574,30.0172074 68.7659574,34.612633 C68.7659574,40.0260904 64.3619149,44.430133 58.9484574,44.430133 L58.3404255,44.430133 C57.7238298,44.430133 57.2234043,44.9305585 57.2234043,45.5471543 C57.2234043,46.1644947 57.7238298,46.6641755 58.3404255,46.6641755 L58.9484574,46.6641755 C65.5938032,46.6641755 71,41.2579787 71,34.612633 C71,31.8723936 70.0553723,29.1911702 68.3398138,27.0617553 Z" mask="url(#b)"/>
    <path fill="#0BC8DA" d="M9.93617021,63.3191489 C8.49912234,63.3191489 7.32978723,62.1498138 7.32978723,60.712766 C7.32978723,59.2757181 8.49912234,58.106383 9.93617021,58.106383 C11.3732181,58.106383 12.5425532,59.2757181 12.5425532,60.712766 C12.5425532,62.1498138 11.3732181,63.3191489 9.93617021,63.3191489 Z" mask="url(#b)"/>
    <path fill="#455053" d="M55.4650266 25.1324734L55.4750798 25.1324734C56.0918617 25.1272606 56.5878191 24.6227394 56.5820479 24.0052128 56.5652926 22.1652926 56.2177128 20.3646543 55.5493617 18.6543085 55.3253989 18.0797872 54.6773404 17.7955053 54.1028191 18.0202128 53.5282979 18.2441755 53.244016 18.8920479 53.4687234 19.4665691 54.0382181 20.9239096 54.333484 22.457766 54.3480053 24.0256915 54.3537766 24.6393085 54.8527128 25.1324734 55.4650266 25.1324734zM51.3815691 15.9213298C51.6027394 16.1882979 51.9218351 16.3271809 52.2433511 16.3271809 52.4943085 16.3271809 52.7465691 16.2428457 52.9545213 16.0711968 53.4301862 15.6778191 53.4970213 14.9737234 53.1043883 14.4982447 50.1954787 10.9770213 45.9273404 8.95744681 41.3952128 8.95744681 40.778617 8.95744681 40.2781915 9.45787234 40.2781915 10.0744681 40.2781915 10.6910638 40.778617 11.1914894 41.3952128 11.1914894 45.2589894 11.1914894 48.8988032 12.9150532 51.3815691 15.9213298z" mask="url(#b)"/>
    <path fill="#455053" d="M26.5591518 28C26.5591518 26.6659159 26.8333306 25.3850508 27.3816964 24.1573661L31.8872768 36.4955357C30.2831021 35.7180021 28.9940525 34.568088 28.0200893 33.0457589 27.0461261 31.5234299 26.5591518 29.8415271 26.5591518 28zM42.3716518 27.5212054C42.3716518 27.6767121 42.3614212 27.8342626 42.3409598 27.9938616 42.3204984 28.1534606 42.2795762 28.3560256 42.218192 28.6015625 42.1568077 28.8470994 42.1097472 29.0271572 42.0770089 29.1417411 42.0442707 29.256325 41.9726568 29.497766 41.8621652 29.8660714 41.7516736 30.2343768 41.6800597 30.4717257 41.6473214 30.578125L40.7142857 33.7209821 37.3013393 23.5803571C37.6778293 23.5558034 38.0379447 23.5230657 38.3816964 23.4821429 38.5372032 23.4657737 38.6436009 23.3900676 38.7008929 23.2550223 38.7581848 23.119977 38.7479543 22.9931182 38.6702009 22.874442 38.5924475 22.7557658 38.4758192 22.7005208 38.3203125 22.7087054L35.8035714 22.8314732C35.1897291 22.8232886 34.3631004 22.7823664 33.3236607 22.7087054 33.2254459 22.7005208 33.1415554 22.7209819 33.0719866 22.7700893 33.0024178 22.8191967 32.9553573 22.88058 32.9308036 22.9542411 32.9062499 23.0279022 32.9001115 23.1036082 32.9123884 23.1813616 32.9246652 23.259115 32.9614952 23.3266366 33.0228795 23.3839286 33.0842637 23.4412205 33.164062 23.4739583 33.2622768 23.4821429L34.2444196 23.5803571 35.7176339 27.6071429 33.6551339 33.7946429 30.2176339 23.5803571C30.5941239 23.5558034 30.9542394 23.5230657 31.2979911 23.4821429 31.4534978 23.4657737 31.5598955 23.3900676 31.6171875 23.2550223 31.6744795 23.119977 31.6642489 22.9931182 31.5864955 22.874442 31.5087422 22.7557658 31.3921139 22.7005208 31.2366071 22.7087054L28.7198661 22.8314732C28.6625741 22.8314732 28.568453 22.8294271 28.4375 22.8253348 28.306547 22.8212425 28.2001492 22.8191964 28.1183036 22.8191964 28.9776829 21.5096661 30.1009975 20.4722881 31.4882812 19.7070312 32.875565 18.9417744 34.3794562 18.5591518 36 18.5591518 37.203131 18.5591518 38.350999 18.7760395 39.4436384 19.2098214 40.5362778 19.6436034 41.5122725 20.2533443 42.3716518 21.0390625L42.2488839 21.0390625C41.7987329 21.0390625 41.4222485 21.2047974 41.1194196 21.5362723 40.8165907 21.8677472 40.6651786 22.2585543 40.6651786 22.7087054 40.6651786 22.8069201 40.673363 22.9051334 40.6897321 23.0033482 40.7061013 23.101563 40.7224702 23.1895457 40.7388393 23.2672991 40.7552084 23.3450525 40.7879462 23.4391736 40.8370536 23.5496652 40.886161 23.6601568 40.9229909 23.7460934 40.9475446 23.8074777 40.9720983 23.8688619 41.021205 23.9609369 41.0948661 24.0837054 41.1685272 24.2064738 41.2196799 24.2924105 41.2483259 24.3415179 41.2769719 24.3906252 41.3363091 24.4888385 41.4263393 24.6361607 41.5163695 24.7834829 41.5736606 24.877604 41.5982143 24.9185268 42.1138419 25.7942752 42.3716518 26.6618261 42.3716518 27.5212054zM36.1595982 28.8225446L39.0691964 36.765625C39.077381 36.8147324 39.0978421 36.8597468 39.1305804 36.9006696 38.0993252 37.2607905 37.0558089 37.4408482 36 37.4408482 35.0833287 37.4408482 34.1953168 37.3098971 33.3359375 37.0479911L36.1595982 28.8225446zM44.2745536 23.4698661C45.0520872 24.8939803 45.4408482 26.4040099 45.4408482 28 45.4408482 29.710574 45.0152572 31.2881252 44.1640625 32.7327009 43.3128678 34.1772766 42.1711381 35.3169601 40.7388393 36.1517857L43.6238839 27.828125C44.1067732 26.4449336 44.3482143 25.3154806 44.3482143 24.4397321 44.3482143 24.0959804 44.323661 23.772695 44.2745536 23.4698661zM36 17C37.4895908 17 38.9136837 17.2905477 40.2723214 17.8716518 41.6309592 18.4527559 42.8013344 19.2343701 43.7834821 20.2165179 44.7656299 21.1986656 45.5472441 22.3690408 46.1283482 23.7276786 46.7094523 25.0863163 47 26.5104092 47 28 47 29.4895908 46.7094523 30.9136837 46.1283482 32.2723214 45.5472441 33.6309592 44.7656299 34.8013344 43.7834821 35.7834821 42.8013344 36.7656299 41.6309592 37.5472441 40.2723214 38.1283482 38.9136837 38.7094523 37.4895908 39 36 39 34.5104092 39 33.0863163 38.7094523 31.7276786 38.1283482 30.3690408 37.5472441 29.1986656 36.7656299 28.2165179 35.7834821 27.2343701 34.8013344 26.4527559 33.6309592 25.8716518 32.2723214 25.2905477 30.9136837 25 29.4895908 25 28 25 26.5104092 25.2905477 25.0863163 25.8716518 23.7276786 26.4527559 22.3690408 27.2343701 21.1986656 28.2165179 20.2165179 29.1986656 19.2343701 30.3690408 18.4527559 31.7276786 17.8716518 33.0863163 17.2905477 34.5104092 17 36 17zM36 38.4966518C37.4159297 38.4966518 38.772501 38.2183808 40.0697545 37.6618304 41.367008 37.10528 42.4841843 36.3584496 43.421317 35.421317 44.3584496 34.4841843 45.10528 33.367008 45.6618304 32.0697545 46.2183808 30.772501 46.4966518 29.4159297 46.4966518 28 46.4966518 26.5840703 46.2183808 25.227499 45.6618304 23.9302455 45.10528 22.632992 44.3584496 21.5158157 43.421317 20.578683 42.4841843 19.6415504 41.367008 18.89472 40.0697545 18.3381696 38.772501 17.7816192 37.4159297 17.5033482 36 17.5033482 34.5840703 17.5033482 33.227499 17.7816192 31.9302455 18.3381696 30.632992 18.89472 29.5158157 19.6415504 28.578683 20.578683 27.6415504 21.5158157 26.89472 22.632992 26.3381696 23.9302455 25.7816192 25.227499 25.5033482 26.5840703 25.5033482 28 25.5033482 29.4159297 25.7816192 30.772501 26.3381696 32.0697545 26.89472 33.367008 27.6415504 34.4841843 28.578683 35.421317 29.5158157 36.3584496 30.632992 37.10528 31.9302455 37.6618304 33.227499 38.2183808 34.5840703 38.4966518 36 38.4966518zM75.7133797 31.0490998C76.1953788 31.0490998 76.5976866 31.2065246 76.9203151 31.5213789 77.2429435 31.8362332 77.4042553 32.2307669 77.4042553 32.7049918 77.4042553 33.4590872 77.0427614 33.9644013 76.3197627 34.2209493L74.3140344 34.9089607 74.9670622 36.856383C75.0214815 37.0196408 75.0486907 37.2023312 75.0486907 37.4044599 75.0486907 37.8631365 74.8854353 38.2596137 74.5589198 38.5939034 74.2324043 38.9281932 73.8398141 39.0953355 73.3811375 39.0953355 73.015751 39.0953355 72.6834098 38.9903857 72.3841039 38.7804828 72.084798 38.57058 71.8768418 38.2907137 71.7602291 37.9408756L71.1188625 36.0167758 67.5038871 37.2528642 68.1452537 39.1653028C68.2074471 39.3518831 68.2385434 39.5345736 68.2385434 39.7133797 68.2385434 40.1720563 68.075288 40.5685335 67.7487725 40.9028232 67.422257 41.237113 67.0257797 41.4042553 66.559329 41.4042553 66.1939425 41.4042553 65.8635448 41.2993055 65.568126 41.0894026 65.2727072 40.8794998 65.0666945 40.5996335 64.9500818 40.2497954L64.3087152 38.349018 62.5245499 38.9670622C62.2990987 39.0370298 62.1047471 39.0720131 61.9414894 39.0720131 61.4672644 39.0720131 61.0727307 38.9165318 60.7578764 38.6055646 60.4430222 38.2945975 60.2855974 37.9020073 60.2855974 37.4277823 60.2855974 37.0623959 60.3924907 36.7319982 60.6062807 36.4365794 60.8200706 36.1411606 61.0979934 35.9351479 61.4400573 35.8185352L63.2592062 35.200491 62.0347791 31.5505319 60.2156301 32.1802373C60.0135014 32.2424308 59.8269239 32.273527 59.655892 32.273527 59.1894412 32.273527 58.796851 32.1161022 58.4781097 31.801248 58.1593683 31.4863937 58 31.095747 58 30.6292962 58 30.2639098 58.1068934 29.9335121 58.3206833 29.6380933 58.5344732 29.3426745 58.812396 29.1366618 59.1544599 29.0200491L60.98527 28.4020049 60.3672259 26.5478723C60.3050324 26.361292 60.2739362 26.1786015 60.2739362 25.9997954 60.2739362 25.5333446 60.4371915 25.1349239 60.763707 24.8045213 61.0902226 24.4741186 61.4866998 24.3089198 61.9531506 24.3089198 62.318537 24.3089198 62.6489347 24.4138697 62.9443535 24.6237725 63.2397723 24.8336754 63.445785 25.1135416 63.5623977 25.4633797L64.1921031 27.3291735 67.8070786 26.1047463 67.1773732 24.2389525C67.1151797 24.0523722 67.0840835 23.8696817 67.0840835 23.6908756 67.0840835 23.232199 67.2492823 22.8357218 67.5796849 22.5014321 67.9100876 22.1671424 68.3046213 22 68.7632979 22 69.1286843 22 69.4610255 22.1068934 69.7603314 22.3206833 70.0596373 22.5344732 70.2675935 22.812396 70.3842062 23.1544599L71.0022504 25.0319149 72.8913666 24.3905483C73.0546244 24.3439032 73.2217667 24.320581 73.3927987 24.320581 73.8592495 24.320581 74.2576702 24.4741188 74.5880728 24.7811989 74.9184755 25.0882789 75.0836743 25.4711516 75.0836743 25.9298282 75.0836743 26.2796662 74.9670634 26.5964593 74.733838 26.8802169 74.5006126 27.1639744 74.2129723 27.3641565 73.8709083 27.4807692L72.0400982 28.1104746 73.2645254 31.7954173 75.176964 31.1423895C75.3635443 31.0801961 75.5423478 31.0490998 75.7133797 31.0490998zM66.4543781 34.1043372L70.0693535 32.87991 68.8449264 29.2066285 65.2299509 30.4543781 66.4543781 34.1043372zM18.997563 14.8416603C19.1246533 15.4347484 19.1105324 16.154916 18.9551998 17.0021847 18.34093 20.1370787 16.3463483 21.7045023 12.9713947 21.7045023L12.5053993 21.7045023C12.328885 21.7045023 12.1735547 21.7627511 12.0394038 21.8792506 11.905253 21.99575 11.8205274 22.1457849 11.7852245 22.3293598L11.7428613 22.5305851 11.160367 26.1950038 11.1391854 26.3538659C11.1038825 26.5374408 11.0173918 26.6874757 10.8797106 26.8039751 10.7420295 26.9204746 10.5849341 26.9787234 10.4084198 26.9787234L7.75012763 26.9787234C7.60185561 26.9787234 7.48535791 26.9257699 7.40063105 26.8198613 7.31590418 26.7139527 7.28413208 26.5868643 7.3053138 26.4385923 7.36885895 26.0432003 7.46241013 25.4501211 7.58597014 24.659337 7.70953016 23.8685529 7.80308134 23.2754737 7.86662649 22.8800817 7.93017164 22.4846896 8.02548793 21.8933756 8.15257823 21.1061218 8.27966853 20.318868 8.37498483 19.7275539 8.43852998 19.3321619 8.47383284 19.0709207 8.62563287 18.9403021 8.89393462 18.9403021L10.2813301 18.9403021C11.2203862 18.9544232 12.0535213 18.8802883 12.7807602 18.7178951 14.0163604 18.4425328 15.0295373 17.9341792 15.8203214 17.1928191 16.5404998 16.5220648 17.0876859 15.6536274 17.4618962 14.587481 17.63135 14.0932409 17.7549081 13.6237199 17.8325744 13.1789039 17.839635 13.1365404 17.8484606 13.1100637 17.8590514 13.0994728 17.8696423 13.088882 17.8819981 13.0853517 17.8961193 13.088882 17.9102404 13.0924123 17.9314218 13.1047681 17.9596641 13.1259498 18.5174493 13.5425236 18.8634122 14.1144214 18.997563 14.8416603zM17.1759445 11.8550532C17.1759445 12.6105344 17.0135538 13.4436695 16.6887674 14.3544833 16.1239217 15.9995966 15.0577912 17.1116201 13.4903442 17.690587 12.6924995 17.9730099 11.8028808 18.1212797 10.8214612 18.1354008 10.8214612 18.1424614 10.5037402 18.1459916 9.86828872 18.1459916L8.91511623 18.1354008C8.209059 18.1354008 7.79249148 18.4743032 7.66540118 19.1521182 7.65128004 19.2086027 7.35121022 21.0796263 6.76518272 24.7652451 6.75812214 24.8358508 6.71575935 24.8711531 6.63809305 24.8711531L3.51380544 24.8711531C3.35847285 24.8711531 3.22961934 24.8129043 3.12724104 24.6964048 3.02486274 24.5799054 2.98426506 24.4439914 3.00544677 24.2886588L5.46251364 8.70958397C5.49781651 8.50482737 5.59489792 8.33537618 5.75376079 8.2012253 5.91262367 8.06707443 6.09443068 8 6.29918728 8L12.6324889 8C12.8725484 8 13.2167461 8.04589303 13.6650925 8.13768047 14.1134388 8.22946791 14.5070598 8.34243537 14.8459673 8.47658625 15.6014485 8.76606971 16.1786417 9.20028839 16.577564 9.77925532 16.9764863 10.3582222 17.1759445 11.050148 17.1759445 11.8550532zM31.1595745 63.4507713L31.1595745 45.5471543C31.1595745 44.9305585 30.6591489 44.430133 30.0425532 44.430133L22.5957447 44.430133C21.9791489 44.430133 21.4787234 44.9305585 21.4787234 45.5471543 21.4787234 46.1644947 21.9791489 46.6641755 22.5957447 46.6641755L28.9255319 46.6641755 28.9255319 63.4507713C26.7933245 63.9562234 25.2021277 65.875266 25.2021277 68.1595745 25.2021277 70.8285106 27.373617 73 30.0425532 73 32.7114894 73 34.8829787 70.8285106 34.8829787 68.1595745 34.8829787 65.875266 33.2917819 63.9562234 31.1595745 63.4507713z"/>
    <path fill="#FF4CB7" d="M30.0425532,70.7659574 C28.6055053,70.7659574 27.4361702,69.5966223 27.4361702,68.1595745 C27.4361702,66.7225266 28.6055053,65.5531915 30.0425532,65.5531915 C31.4796011,65.5531915 32.6489362,66.7225266 32.6489362,68.1595745 C32.6489362,69.5966223 31.4796011,70.7659574 30.0425532,70.7659574 Z"/>
    <path fill="#455053" d="M43.0744681,63.4507713 L43.0744681,45.5471543 C43.0744681,44.9305585 42.5740426,44.430133 41.9574468,44.430133 L34.5106383,44.430133 C33.8940426,44.430133 33.393617,44.9305585 33.393617,45.5471543 C33.393617,46.1644947 33.8940426,46.6641755 34.5106383,46.6641755 L40.8404255,46.6641755 L40.8404255,63.4507713 C38.7082181,63.9562234 37.1170213,65.875266 37.1170213,68.1595745 C37.1170213,70.8285106 39.2885106,73 41.9574468,73 C44.626383,73 46.7978723,70.8285106 46.7978723,68.1595745 C46.7978723,65.875266 45.2066755,63.9562234 43.0744681,63.4507713 Z"/>
    <path fill="#DBE3E9" d="M41.9574468,70.7659574 C40.5203989,70.7659574 39.3510638,69.5966223 39.3510638,68.1595745 C39.3510638,66.7225266 40.5203989,65.5531915 41.9574468,65.5531915 C43.3944947,65.5531915 44.5638298,66.7225266 44.5638298,68.1595745 C44.5638298,69.5966223 43.3944947,70.7659574 41.9574468,70.7659574 Z"/>
    <path fill="#455053" d="M62.0638298,55.8723404 C59.7795213,55.8723404 57.8604787,57.4635372 57.3550266,59.5957447 L54.9893617,59.5957447 L54.9893617,45.5471543 C54.9893617,44.9305585 54.4889362,44.430133 53.8723404,44.430133 L46.4255319,44.430133 C45.8089362,44.430133 45.3085106,44.9305585 45.3085106,45.5471543 C45.3085106,46.1644947 45.8089362,46.6641755 46.4255319,46.6641755 L52.7553191,46.6641755 L52.7553191,60.712766 C52.7553191,61.3293617 53.2557447,61.8297872 53.8723404,61.8297872 L57.3550266,61.8297872 C57.8604787,63.9619947 59.7795213,65.5531915 62.0638298,65.5531915 C64.732766,65.5531915 66.9042553,63.3817021 66.9042553,60.712766 C66.9042553,58.0438298 64.732766,55.8723404 62.0638298,55.8723404 Z"/>
    <path fill="#14C3A2" d="M62.0638298,63.3191489 C60.6267819,63.3191489 59.4574468,62.1498138 59.4574468,60.712766 C59.4574468,59.2757181 60.6267819,58.106383 62.0638298,58.106383 C63.5008777,58.106383 64.6702128,59.2757181 64.6702128,60.712766 C64.6702128,62.1498138 63.5008777,63.3191489 62.0638298,63.3191489 Z"/>
  </g>
</svg>
