<svg xmlns="http://www.w3.org/2000/svg" width="21" height="18">
  <path fill="#7F8C8C" fill-rule="evenodd" d="M20.420794.3327673c-.833204.5202012-1.753878.89852936-2.737911 1.100958C16.89902.55134407 15.778736 0 14.538462 0c-2.37738 0-4.306758 2.03466726-4.306758 4.54397488 0 .3564128.037006.70186793.111019 1.03463523C6.7620751 5.3888693 3.5879369 3.58200636 1.4617521.829323c-.3711853.67360866-.5831309 1.4550639-.5831309 2.2872705 0 1.57559836.7603129 2.96664638 1.9170427 3.78155138-.7053641-.02191535-1.3709182-.228381-1.9529277-.5663388v.0553651c0 2.20249272 1.4853016 4.03992182 3.4578539 4.45573672-.3610926.1066932-.7423705.1603281-1.1354231.1603281-.2775479 0-.5483673-.0276825-.8107762-.0807407.5483673 1.8045561 2.1385203 3.1189004 4.0241637 3.1540803-1.4740876 1.2191855-3.3328172 1.9458524-5.3507864 1.9458524-.3476357 0-.6913465-.0207619-1.0277681-.0622857C1.9063893 17.2473807 4.1721891 18 6.6045177 18 14.530051 18 18.862601 11.0770562 18.862601 5.07167345c0-.19781487-.003364-.39505303-.010653-.58883086C19.693563 3.84210693 20.424719 3.04219664 21 2.13097944c-.771527.36102656-1.602488.60555574-2.473821.7151325.889836-.56172505 1.572772-1.45218033 1.894615-2.51334467"/>
</svg>