<svg width="215" height="110" viewBox="0 0 215 110" xmlns="http://www.w3.org/2000/svg">
  <g fill="none" fill-rule="evenodd">
    <g fill="#FFF">
      <path d="M49 26.933h2.933V24H49m0 10.933h2.933V32H49m-4-1.068h2.933V28H45m8 2.932h2.933V28H53M29 99.933h2.933V97H29m0 10.933h2.933V105H29m-4-1.068h2.933V101H25m8 2.932h2.933V101H33m133-36.067h2.933V62H166m0 10.933h2.933V70H166m-4-1.068h2.933V66H162m8 2.932h2.933V66H170m32 30h3v-3h-3m0 11h3v-3h-3m-4-1h3v-3h-3m8 3h3v-3h-3M4 56h3v-3H4m0 11h3v-3H4m-4-1h3v-3H0m8 3h3v-3H8m143.065-10.58c-.64-.692-1.552-1.128-2.566-1.128h-8.59V21.436c0-.793-.65-1.436-1.44-1.436H75.52c-.794 0-1.436.643-1.436 1.436v23.856H65.5c-1.013 0-1.925.436-2.565 1.127-.578.62-.935 1.45-.935 2.37v57.71c0 1.93 1.57 3.5 3.5 3.5h83c1.93 0 3.5-1.57 3.5-3.5V48.79c0-.917-.357-1.75-.935-2.374zM75.52 52.454c.793 0 1.436-.642 1.436-1.436V22.87h60.088v28.15c0 .793.642 1.435 1.436 1.435.793 0 1.436-.642 1.436-1.436v-2.86h7.278l-38.577 40.18c-.433.45-1.007.69-1.617.69-.61 0-1.185-.25-1.617-.7L66.806 48.16h7.278v2.855c0 .79.643 1.43 1.436 1.43zm72.98 54.673h-83c-.34 0-.628-.288-.628-.63V50.3l26.26 27.348-23.106 24.064c-.55.573-.53 1.48.04 2.03.28.27.638.4.996.4.377 0 .754-.147 1.036-.44l23.025-23.98 10.188 10.61c.98 1.02 2.29 1.58 3.69 1.58s2.71-.56 3.69-1.58l10.19-10.61 9.01 9.38c.28.292.66.44 1.04.44.36 0 .72-.133 1-.4.57-.55.59-1.46.04-2.03l-9.08-9.464 26.26-27.35V106.5c0 .34-.29.628-.63.628z"/>
      <path d="M136.526 91.87c-.55-.572-1.46-.59-2.03-.04-.573.548-.59 1.457-.042 2.03l9.448 9.84c.282.293.66.44 1.036.44.358 0 .716-.132.995-.4.572-.55.59-1.457.04-2.03l-9.447-9.84zm-42.41-56.636h19.55c.615 0 1.116-.5 1.116-1.117s-.5-1.117-1.117-1.117H94.117C93.5 33 93 33.5 93 34.117s.5 1.117 1.117 1.117zM133.214 27H94.117C93.5 27 93 27.5 93 28.117s.5 1.117 1.117 1.117h39.096c.616 0 1.117-.5 1.117-1.117S133.83 27 133.213 27zm-43.16-1h-8.936C80.5 26 80 26.5 80 27.117v8.936c0 .617.5 1.117 1.117 1.117h8.936c.617 0 1.117-.5 1.117-1.117v-8.936c0-.617-.5-1.117-1.117-1.117zm-7.82 8.936h6.703v-6.702h-6.702v6.702zM113.664 47H94.118C93.5 47 93 47.5 93 48.117s.5 1.117 1.117 1.117h19.548c.616 0 1.117-.5 1.117-1.117s-.5-1.117-1.117-1.117zm0 13H94.118C93.5 60 93 60.5 93 61.117s.5 1.117 1.117 1.117h19.548c.616 0 1.117-.5 1.117-1.117s-.5-1.117-1.117-1.117zm0 12H94.118C93.5 72 93 72.5 93 73.117s.5 1.117 1.117 1.117h19.548c.616 0 1.117-.5 1.117-1.117s-.5-1.117-1.117-1.117zm19.55-31H94.116C93.5 41 93 41.5 93 42.117s.5 1.117 1.117 1.117h39.096c.616 0 1.117-.5 1.117-1.117S133.83 41 133.213 41zm0 13H94.116C93.5 54 93 54.5 93 55.117s.5 1.117 1.117 1.117h39.096c.616 0 1.117-.5 1.117-1.117S133.83 54 133.213 54zm-4.404 12H93.996c-.55 0-.995.5-.995 1.117s.45 1.117 1 1.117h34.82c.55 0 1-.5 1-1.117s-.45-1.117-1-1.117zM90.053 39h-8.936C80.5 39 80 39.5 80 40.117v8.936c0 .617.5 1.117 1.117 1.117h8.936c.617 0 1.117-.5 1.117-1.117v-8.936c0-.617-.5-1.117-1.117-1.117zm-7.82 8.936h6.703v-6.702h-6.702v6.702zM90.053 52h-8.936C80.5 52 80 52.5 80 53.117v8.936c0 .617.5 1.117 1.117 1.117h8.936c.617 0 1.117-.5 1.117-1.117v-8.936c0-.617-.5-1.117-1.117-1.117zm-7.82 8.936h6.703v-6.702h-6.702v6.702z"/>
    </g>
    <path d="M213 14.334c0-.762-.087-1.11-.613-1.42l-18.475-10.69c-.515-.3-1.15-.3-1.663 0l-18.42 10.69c-.52.297-.83.824-.83 1.42v21.4c0 .55.29 1.06.76 1.336l2.75 1.593c.1.062.17.174.17.296v6.69c0 .36.39.58.7.39l5.59-3.44c.1-.07.23-.07.34-.01l8.92 5.16c.51.3 1.14.3 1.66 0l18.47-10.705c.4-.26.61-.57.61-1.337v-21.4z" stroke="#FFF" stroke-width="2.5"/>
    <path d="M205 18.71c0 .427-.15.79-.452 1.088l-13.87 13.754c-.302.3-.667.448-1.097.448-.43 0-.79-.15-1.09-.448l-8.03-7.964c-.3-.3-.45-.662-.45-1.088 0-.426.15-.79.46-1.088l2.2-2.175c.3-.298.67-.447 1.1-.447.43 0 .795.15 1.096.447l4.74 4.718 10.58-10.507c.3-.3.67-.448 1.1-.448.43 0 .797.15 1.1.448l2.19 2.175c.3.298.45.66.45 1.087z" fill="#FFF"/>
  </g>
</svg>
