<svg xmlns="http://www.w3.org/2000/svg" width="21" height="19">
  <path fill="#7F8C8C" fill-rule="evenodd" d="M4.80274426 6.17370572V19H.5316271V6.17370572h4.27111716zm.27179836-3.96049046c.00862857.62988507-.20923937 1.1562195-.65361035 1.57901907-.44437098.42279957-1.02894733.6341962-1.7537466.6341962h-.02588555c-.70754214 0-1.27701874-.21139663-1.70844687-.6341962S.2857143 2.84310033.2857143 2.21321526c0-.63851364.22218214-1.16700517.66655312-1.58549046C1.3966384.2092395 1.97690052 0 2.69307122 0c.71617072 0 1.28996153.2092395 1.72138966.6277248.43142813.4184853.65145318.94697682.66008174 1.58549046zM11.4165045 7.9963589c.1643626-.2590503.3326172-.48694442.5047684-.6836886.1811998-.2070855.424953-.43142477.731267-.67302452.306314-.24159976.6816508-.42926818 1.1260218-.5630109.444371-.13374272.9383488-.20061308 1.4819482-.20061308 1.4754842 0 2.6618938.48966358 3.5592643 1.46900545.8973705.97934186 1.3460491 2.41381885 1.3460491 4.30347415V19h-4.2581744v-6.859673c0-.9059991-.1747258-1.6156877-.5241826-2.1290872-.3494568-.5133995-.8952052-.7700954-1.6372616-.7700954-.5435994 0-.9987493.1488405-1.3654632.4465259-.3667139.2976854-.6406666.6665509-.8218665 1.1066076-.0949141.2588569-.1423705.6083085-.1423705 1.0483652V19H7.1583301c.0172571-3.4427965.02588555-6.2340947.02588555-8.3739782 0-2.13988354-.00431422-3.41689166-.01294278-3.83106267l-.01294278-.6212534h4.2581744V7.9963589z"/>
</svg>