<svg xmlns="http://www.w3.org/2000/svg" width="102" height="100" xmlns:xlink="http://www.w3.org/1999/xlink">
  <defs>
    <path id="a" d="M74.3565891,79.6144982 L109,79.6144982 L109,0 L0,0 L0,79.6144982 L34.6434109,79.6144982 L34.6434109,70.7974372 C34.6434109,70.211212 34.9580286,69.6927662 35.4689281,69.399771 L53.7540759,58.883237 C54.2649755,58.590007 54.8944471,58.590007 55.4053466,58.883237 L73.7484345,69.399771 C74.2699097,69.7064435 74.3565891,70.0478938 74.3565891,70.7974372 L74.3565891,79.6144982 Z"/>
  </defs>
  <g fill="none" fill-rule="evenodd">
    <g transform="translate(-4)">
      <mask id="b" fill="#fff">
        <use xlink:href="#a"/>
      </mask>
      <path fill="#14C3A2" d="M5.73741714 76.2840671L5.73741714 62.6506315C7.41022449 60.1600349 10.8244484 58.4451548 15.9800888 57.5059913L21.5162222 62.6506315 26.478081 57.5059913 33.0276403 59.4889872 29.168766 62.6506315 28.3352428 76.2840671 5.73741714 76.2840671zM79.9259366 60.194289L84.3411409 58.0928646C85.907469 60.6758522 87.7083627 61.9673461 89.7438222 61.9673461 91.7792817 61.9673461 93.5330919 60.6758522 95.0052527 58.0928646L102.536282 61.9673461 104.197417 66.2557734 104.197417 76.642452 81.8101321 76.642452 81.8101321 64.9220186 79.9259366 60.194289z" mask="url(#b)"/>
      <path fill="#455053" d="M87.4272995,59.4897958 L86.0494692,58.1912635 C86.2819076,57.7592035 86.4095906,57.2691173 86.4095906,56.7560951 L86.4095906,55.1915441 C87.4448905,55.5101001 88.5430437,55.6833945 89.6803318,55.6833945 C90.8174224,55.6833945 91.9157732,55.5101001 92.9508754,55.1915441 L92.9506777,56.7557031 C92.9506777,57.2691173 93.0783608,57.7592035 93.3109969,58.1914595 L91.9333642,59.4897958 C90.6701718,60.6809012 88.6908872,60.6807052 87.4272995,59.4897958 Z M71.8027309,56.1019281 C75.0987715,54.9347389 77.3407353,53.6675721 78.5305988,52.9034297 C79.5528537,52.2469103 80.0821651,51.0522763 79.8787814,49.8594065 C79.867713,49.7941271 79.8556562,49.7225745 79.8437971,49.6520021 C80.6774922,51.3147664 81.9240818,52.7252344 83.445012,53.763825 L83.445012,56.7560951 C83.445012,56.7947139 83.423468,56.829412 83.3886813,56.8466631 L78.7442604,59.149872 C78.6891156,59.1241915 78.6361449,59.0953744 78.5804071,59.0708701 L71.8027309,56.1019281 Z M54.8236547,63.7429596 C50.0005567,63.7429596 45.632453,61.0690495 43.454133,56.8592093 L45.6118972,55.9139311 C47.2958901,55.1762534 48.383963,53.5199581 48.383963,51.6940931 L48.383963,48.1662568 C50.3756997,48.9600004 52.5490784,49.3977454 54.8236547,49.3977454 C57.0982311,49.3977454 59.2714121,48.9600004 61.2633465,48.1662568 L61.2633465,51.6940931 C61.2633465,53.5199581 62.3514194,55.1764494 64.0354123,55.9139311 L66.1927812,56.8590132 C64.0160424,61.0735583 59.6647391,63.7429596 54.8236547,63.7429596 Z M27.7864763,55.7845483 L27.7868716,53.7589242 C28.2847563,53.416844 28.7595158,53.0339887 29.2036393,52.6064375 C29.5024888,52.318855 29.7807824,52.0161777 30.0416828,51.7025226 C30.2798531,52.1816308 30.6449159,52.6001644 31.1167106,52.9030377 C32.304993,53.6661999 34.5473521,54.9339548 37.8449739,56.1015361 L33.6927059,57.9205399 L29.009743,56.5935826 C27.7862786,56.2469936 27.7864763,56.1117298 27.7864763,55.7845483 Z M21.2143579,55.6782976 C21.3284029,55.6818263 21.441855,55.6833945 21.5555048,55.6833945 C22.6797479,55.6833945 23.7773081,55.5150009 24.8217,55.1937004 L24.8217,55.7839602 C24.8217,56.1029083 24.8547078,56.3922552 24.9134104,56.6565096 L21.5513541,59.9910559 L18.1734857,56.6408269 C18.2432567,56.3648103 18.2806129,56.0776198 18.2806129,55.7845483 L18.2806129,55.1642953 C19.2131339,55.4679527 20.196649,55.6481083 21.2143579,55.6782976 Z M13.5270883,44.3892607 L13.5270883,41.6416416 C13.5270883,41.4134575 13.4735246,41.1882139 13.3705481,40.984142 L12.4552228,39.1684708 C12.1200054,38.5031298 11.9427118,37.7585909 11.9427118,37.0148361 L11.9427118,36.9272087 C11.9427118,33.4054495 14.8315898,30.5402097 18.3824036,30.5402097 L31.1597987,30.5402097 L31.1597987,36.6437429 C31.1597987,37.6299923 30.9247908,38.61781 30.4798767,39.4999651 L29.7317648,40.983946 C29.6287882,41.1882139 29.5752246,41.4132615 29.5752246,41.6414456 L29.5752246,44.7842702 C29.5752246,46.9551559 28.7099053,48.9837206 27.1385738,50.4959304 C25.568033,52.0075522 23.4944685,52.8048244 21.3033011,52.7387608 C17.015444,52.6115344 13.5270883,48.8657078 13.5270883,44.3892607 Z M41.6523396,8.87918518 C45.0351494,5.57345595 49.5896387,3.82600471 54.8236547,3.82600471 C60.0576708,3.82600471 64.6121601,5.57345595 67.9949699,8.87918518 C71.4552591,12.2607798 73.5118256,17.1065558 73.9425087,22.8925131 C75.1096423,38.5735062 76.4382574,47.3180157 76.955512,50.3496887 C76.9634181,50.3963449 76.947606,50.4169286 76.9193418,50.4349637 C75.5094918,51.3400549 72.450238,53.0283037 67.6777388,54.2948824 L65.2331819,53.2239461 C64.6226357,52.9565551 64.2281228,52.3559055 64.2281228,51.6938971 L64.2281228,46.6391483 C68.9919253,43.5737574 72.1502026,38.2524017 72.1502026,32.2129718 L72.1502026,29.4561391 C72.1502026,27.6643841 71.3821279,25.9741749 70.0428397,24.8191398 C67.0644254,22.2499121 60.3223265,17.7664078 48.6335972,16.6070599 C47.8210508,16.5262937 47.0925065,17.1155733 47.0110739,17.9238235 C46.9296414,18.7318775 47.5239802,19.4523042 48.3387008,19.5330704 C59.2105354,20.61126 65.3845832,24.6979905 68.0973535,27.038054 C68.7889369,27.6343908 69.1854264,28.5159578 69.1854264,29.4561391 L69.1854264,32.2129718 C69.1854264,40.0670928 62.7427698,46.4570323 54.8238524,46.4570323 C46.9049349,46.4570323 40.4622784,40.0670928 40.4622784,32.2129718 L40.4622784,30.9830516 C40.4622784,30.4180803 40.7781259,29.9005493 41.307042,29.5984601 C43.1604225,28.5400701 45.6045841,26.5793333 46.7238859,23.2492958 C46.9828097,22.4790764 46.5629974,21.646322 45.786226,21.3895168 C45.0098499,21.1327117 44.1700277,21.5490889 43.9111039,22.3195043 C43.0865007,24.7730717 41.2352944,26.2462708 39.8276187,27.0502081 C38.3902951,27.8710044 37.4973045,29.3781174 37.4973045,30.9832476 L37.4973045,32.2131679 C37.4973045,38.2527938 40.6553842,43.5739534 45.4193844,46.6393444 L45.4193844,51.6940931 C45.4193844,52.3561015 45.0248715,52.9565551 44.4143252,53.2241421 L41.9695707,54.2950784 C37.195095,53.0281077 34.1358412,51.3388787 32.7279677,50.4349637 C32.6999012,50.4169286 32.684089,50.3963449 32.6919951,50.3498848 C33.2090521,47.3184078 34.5376672,38.5742903 35.7049984,22.8927091 C36.1354839,17.1067518 38.1920504,12.2607798 41.6523396,8.87918518 Z M89.6805295,30.5404058 C94.9785847,30.5404058 99.2889741,34.8155254 99.2889741,40.0702293 C99.2889741,41.0831394 99.1223537,42.0864438 98.8015649,43.0442683 C94.5923732,38.8030625 87.1877456,37.1408863 86.8307865,37.0628646 C86.3923949,36.9670037 85.9334476,37.0736465 85.5832087,37.3526035 C85.2331674,37.6317566 85.0293885,38.0532307 85.0293885,38.498621 C85.0293885,38.5082267 84.9617916,39.528194 83.8792529,40.6018748 C83.3003309,41.1760598 83.3003309,42.1070275 83.8792529,42.6810164 C84.4581749,43.2552013 85.3968231,43.2552013 85.9755474,42.6810164 C86.8092425,41.854143 87.2990235,41.0149194 87.5864092,40.3062548 C90.0807743,41.0411881 95.2578666,42.8972424 97.581263,46.1551392 C96.9218967,49.9442895 93.6124158,52.7426815 89.6805295,52.7426815 C85.5760932,52.7426815 82.1480212,49.6943455 81.7066649,45.6519187 C81.6829466,45.4353007 81.6111991,45.22672 81.4961657,45.0408793 C80.5644354,43.5359227 80.0720849,41.8170925 80.0720849,40.0700333 C80.0720849,34.8155254 84.3822766,30.5404058 89.6805295,30.5404058 Z M84.8254119,28.2844411 C84.8254119,26.0623904 87.0035342,24.2545606 89.6805295,24.2545606 C92.3575248,24.2545606 94.5356471,26.0623904 94.5356471,28.2844411 C94.5356471,28.3775575 94.5281364,28.4698897 94.5206256,28.5620259 C93.0299361,27.9429491 91.3949608,27.5998888 89.6805295,27.5998888 C87.9662958,27.5998888 86.3315182,27.9429491 84.841224,28.5618299 C84.8335156,28.4696937 84.8254119,28.3775575 84.8254119,28.2844411 Z M101.975457,59.8234465 L95.9723777,56.8468591 C95.937591,56.8296081 95.9158493,56.7947139 95.9158493,56.7562912 L95.9162446,53.763825 C98.3805667,52.0808691 100.124843,49.4202893 100.561258,46.2978523 C101.669689,44.3980823 102.25375,42.252289 102.25375,40.0704254 C102.25375,36.00173 100.278419,32.3825417 97.2296405,30.1050132 C97.4083177,29.5147534 97.5006211,28.9058704 97.5006211,28.2846371 C97.5006211,24.4411854 93.9925001,21.3142396 89.6807271,21.3142396 C85.3689542,21.3142396 81.8608332,24.4411854 81.8608332,28.2846371 C81.8608332,28.9066545 81.9521483,29.5157336 82.1308255,30.1056013 C80.3130223,31.4637281 78.8796518,33.300179 78.0167043,35.4232323 C77.6492697,31.8418786 77.2666159,27.6081222 76.8995766,22.6762871 C76.4153298,16.1691189 74.0557632,10.6738807 70.0762428,6.78494896 C66.1269631,2.92542236 60.8526261,0.885487691 54.8236547,0.885487691 C48.7946833,0.885487691 43.5203463,2.92542236 39.571462,6.78475293 C35.5919416,10.6738807 33.232375,16.1691189 32.7481282,22.676091 C32.6194569,24.4037428 32.4890068,26.0412187 32.3579636,27.5998888 L18.3824036,27.5998888 C13.1968122,27.5998888 8.97793554,31.7842445 8.97793554,36.9274048 L8.97793554,37.0150322 C8.97793554,38.2128028 9.26334467,39.4123377 9.80352691,40.483666 L10.562312,41.9890147 L10.562312,44.3894568 C10.562312,48.1937017 12.4524557,51.6072498 15.3154413,53.661495 L15.3154413,55.7849404 C15.3154413,56.0572323 15.1310322,56.2995309 14.8671671,56.374416 L8.74727594,58.108733 C6.08451154,58.8630736 4.2248062,61.3084076 4.2248062,64.0550465 L4.2248062,76.2133002 C4.2248062,77.025275 4.88852079,77.6835587 5.70719434,77.6835587 C6.5258679,77.6835587 7.18958248,77.025275 7.18958248,76.2133002 L7.18958248,64.0550465 C7.18958248,62.6141931 8.16519153,61.3315396 9.56179881,60.935746 L15.6818877,59.2014291 C15.9026647,59.1388941 16.1123732,59.0540112 16.3120015,58.9532495 L20.0687683,62.6792766 L20.0687683,76.2133002 C20.0687683,77.025275 20.7324829,77.6835587 21.5511564,77.6835587 C22.36983,77.6835587 23.0335446,77.025275 23.0335446,76.2133002 L23.0335446,62.6792766 L26.8165991,58.9271769 C27.3221923,59.1732001 27.8260066,59.3163053 28.1952201,59.4209877 L29.6979664,59.8467746 C27.6615604,61.2829231 26.4064717,63.6253389 26.4064717,66.1653575 L26.4064717,76.2129081 C26.4064717,77.0248829 27.0701863,77.6831666 27.8888599,77.6831666 C28.7075334,77.6831666 29.371248,77.0248829 29.371248,76.2129081 L29.371248,66.1653575 C29.371248,64.2595104 30.5071526,62.5304864 32.2650673,61.760463 L40.7403745,58.0477662 C43.396221,63.3228577 48.8233429,66.6832806 54.8238524,66.6832806 C60.8466966,66.6832806 66.2556344,63.3303071 68.9098998,58.0489425 L77.3826375,61.760463 C79.1405522,62.5304864 80.2764568,64.2595104 80.2764568,66.1653575 L80.2764568,76.2129081 C80.2764568,77.0248829 80.9401714,77.6831666 81.7588449,77.6831666 C82.5775185,77.6831666 83.2412331,77.0248829 83.2412331,76.2129081 L83.2412331,66.1653575 C83.2412331,64.2846028 82.5520214,62.5128433 81.3690757,61.1355052 L83.6632195,59.9979171 L85.3853593,61.6210825 C86.589849,62.7565142 88.1350904,63.3238379 89.6809248,63.3238379 C91.2261662,63.3238379 92.7721982,62.7561221 93.9762927,61.6210825 L95.6982347,59.9981132 L100.649806,62.4534449 C101.765155,63.0064581 102.457925,64.1183656 102.457925,65.3551471 L102.457925,76.2131042 C102.457925,77.0250789 103.121639,77.6833627 103.940313,77.6833627 C104.758986,77.6833627 105.422701,77.0250789 105.422701,76.2131042 L105.422701,65.3551471 C105.422503,62.9976366 104.101597,60.8779159 101.975457,59.8234465 L101.975457,59.8234465 Z" mask="url(#b)"/>
      <path fill="#455053" d="M25.6413618 39.8138163C25.8542327 39.9194788 26.0803463 39.9692716 26.3030999 39.9692716 26.8468398 39.9692716 27.3704193 39.6712992 27.6301337 39.1563167 27.9963824 38.430009 27.6995095 37.5468737 26.9672098 37.1838178 23.5249068 35.4767497 17.0709842 35.4571463 16.7978295 35.4571463 15.9793536 35.4571463 15.3158366 36.1150379 15.315639 36.9270127 15.3154413 37.7387914 15.9787606 38.3972712 16.7974342 38.3976633 18.4652196 38.3986434 23.3047228 38.6550565 25.6413618 39.8138163M12.0447001 65.3143719C11.2260266 65.3143719 10.562312 65.9726556 10.562312 66.7846304L10.562312 76.2133002C10.562312 77.025275 11.2260266 77.6835587 12.0447001 77.6835587 12.8633737 77.6835587 13.5270883 77.025275 13.5270883 76.2133002L13.5270883 66.7846304C13.5270883 65.9726556 12.8635713 65.3143719 12.0447001 65.3143719M97.6026094 67.2570735C96.7839358 67.2570735 96.1202212 67.9153572 96.1202212 68.727332L96.1202212 76.2133002C96.1202212 77.025275 96.7839358 77.6835587 97.6026094 77.6835587 98.4212829 77.6835587 99.0849975 77.025275 99.0849975 76.2133002L99.0849975 68.727332C99.0849975 67.9153572 98.4212829 67.2570735 97.6026094 67.2570735" mask="url(#b)"/>
    </g>
    <path fill="#455053" fill-rule="nonzero" d="M2.3875903,29.3270866 C1.62758431,28.8919726 1.62758431,28.8919726 1.35543283,28.735913 C0.514290198,28.246876 4.82540837e-15,27.3582564 4.82540837e-15,26.3999496 L0,10.6510092 C0,9.65254436 0.539690527,8.74780804 1.41435166,8.24745532 L15.1274457,0.380219219 C16.0128332,-0.126676857 17.106716,-0.126676857 17.9914444,0.379842029 L31.7621682,8.25529997 C32.7039108,8.8077412 33,9.54697649 33,10.6510092 L32.99999,26.405503 C32.996262,27.4392707 32.6159906,28.1938863 31.747666,28.741144 L17.9916185,36.6202651 C17.1064755,37.1266154 16.0130738,37.1266154 15.1275413,36.6200422 L9.19355886,33.2230987 L5.72525267,35.3302446 C4.41596724,36.1263166 2.74027732,35.1955904 2.74027732,33.7015065 L2.73997743,29.5288836 C2.64430009,29.4740933 2.52897133,29.4080495 2.3875903,29.3270866 Z" transform="translate(35 63)"/>
    <path fill="#0BC8DA" d="M8.23946658,30.0837737 C8.81564788,29.7324624 9.53936746,29.7192546 10.1492686,30.0571144 L16.5593749,33.7352941 L29.7,26.1921502 L29.7,10.79771 L16.5597181,3.26470588 L3.3,10.890265 L3.3,26.126525 C3.41885271,26.1945521 3.59478539,26.295575 4.0899121,26.5798835 C4.85253566,27.0176633 4.85253566,27.0176633 5.12188264,27.1723869 C5.68163165,27.5018695 6.02331748,28.0952033 6.02331747,28.7347121 L6.02351095,31.4333235 L8.23946658,30.0837737 Z" transform="translate(35 63)"/>
    <path fill="#F3F9FC" d="M25.3,15.6090315 C25.3,15.9021603 25.2006462,16.1513161 25.0019355,16.3565062 L15.8470968,25.8098633 C15.6483861,26.0150535 15.4070982,26.1176471 15.1232258,26.1176471 C14.8393534,26.1176471 14.5980655,26.0150535 14.3993548,25.8098633 L9.09806452,20.33571 C8.89935385,20.1305199 8.8,19.8813641 8.8,19.5882353 C8.8,19.2951065 8.89935385,19.0459507 9.09806452,18.8407605 L10.5458065,17.3458111 C10.7445171,17.1406209 10.985805,17.0380273 11.2696774,17.0380273 C11.5535498,17.0380273 11.7948377,17.1406209 11.9935484,17.3458111 L15.1232258,20.5885324 L22.1064516,13.3666072 C22.3051623,13.1614171 22.5464502,13.0588235 22.8303226,13.0588235 C23.114195,13.0588235 23.3554829,13.1614171 23.5541935,13.3666072 L25.0019355,14.8615567 C25.2006462,15.0667469 25.3,15.3159027 25.3,15.6090315 Z" transform="translate(35 63)"/>
  </g>
</svg>
