<svg xmlns="http://www.w3.org/2000/svg" width="70" height="81" xmlns:xlink="http://www.w3.org/1999/xlink">
  <defs>
    <path id="a" d="M67.1478689,44.3278689 L67.1478689,0.0655737705 L0.00983606557,0.0655737705 L0.00983606557,67.2134426 L20.6655738,67.2134426 L20.6655738,44.3278689 L67.1478689,44.3278689 Z"/>
  </defs>
  <g fill="none" fill-rule="evenodd">
    <mask id="b" fill="#fff">
      <use xlink:href="#a"/>
    </mask>
    <path fill="#0BC8DA" d="M1 4L12.7431323 4 12.7431323 9.36780327 18.1412928 9.36780327 18.1412928 4 30.6378463 4 30.6378463 9.36780327 36.5001291 9.36780327 36.5001291 4 48.8771661 4 48.8771661 9.36780327 54.4937762 9.36780327 54.4937762 4 66 4 66 20 1 20" mask="url(#b)"/>
    <path fill="#455053" d="M55.3790164,2.76901639 L55.3790164,2.42245902 C55.3790164,1.08672131 54.292459,0 52.9565574,0 L50.1877049,0 C48.8518033,0 47.7644262,1.08672131 47.7644262,2.42245902 L47.7644262,2.76901639 L37.3808197,2.76901639 L37.3808197,2.42245902 C37.3808197,1.08672131 36.2942623,0 34.9583607,0 L32.1893443,0 C30.8536066,0 29.7662295,1.08672131 29.7662295,2.42245902 L29.7662295,2.76901639 L19.382623,2.76901639 L19.382623,2.42245902 C19.382623,1.08672131 18.2959016,0 16.9601639,0 L14.1911475,0 C12.8547541,0 11.7680328,1.08672131 11.7680328,2.42245902 L11.7680328,2.76901639 L2,2.76901639 L2,2.76901639 C0.8954305,2.76901639 3.55256646e-16,3.66444689 0,4.76901639 L0,65.1478689 L0,65.1478689 C1.3527075e-16,66.2524384 0.8954305,67.1478689 2,67.1478689 L67.1478689,67.1478689 L67.1478689,4.76901639 L67.1478689,4.76901639 C67.1478689,3.66444689 66.2524384,2.76901639 65.1478689,2.76901639 L55.3790164,2.76901639 Z M49.8411475,2.42245902 C49.8411475,2.23557377 50,2.07672131 50.1877049,2.07672131 L52.9565574,2.07672131 C53.1442623,2.07672131 53.302459,2.23557377 53.302459,2.42245902 L53.302459,8.30688525 L49.8411475,8.30688525 L49.8411475,2.42245902 Z M31.8429508,2.42245902 C31.8429508,2.23557377 32.0018033,2.07672131 32.1893443,2.07672131 L34.9583607,2.07672131 C35.1460656,2.07672131 35.3040984,2.23557377 35.3040984,2.42245902 L35.3040984,8.30688525 L31.8429508,8.30688525 L31.8429508,2.42245902 Z M13.8447541,2.42245902 C13.8447541,2.23557377 14.0036066,2.07672131 14.1911475,2.07672131 L16.9601639,2.07672131 C17.1472131,2.07672131 17.3059016,2.23557377 17.3059016,2.42245902 L17.3059016,8.30688525 L13.8447541,8.30688525 L13.8447541,2.42245902 Z M2.07672131,65.0711475 L65.0711475,65.0711475 L65.0711475,21.4593443 L2.07672131,21.4593443 L2.07672131,65.0711475 Z M65.0711475,19.382623 L2.07672131,19.382623 L2.07672131,15.9214754 L57.8022951,15.9214754 L57.8022951,13.8447541 L2.07672131,13.8447541 L2.07672131,4.8457377 L11.7680328,4.8457377 L11.7680328,10.3836066 L19.382623,10.3836066 L19.382623,4.8457377 L29.7662295,4.8457377 L29.7662295,10.3836066 L37.3808197,10.3836066 L37.3808197,4.8457377 L47.7644262,4.8457377 L47.7644262,10.3836066 L55.3790164,10.3836066 L55.3790164,4.8457377 L65.0711475,4.8457377 L65.0711475,19.382623 Z" mask="url(#b)"/>
    <path fill="#FFF" d="M5.92834281 34.3317435L33.5781101 34.3317435 33.5781101 25.3889268 61.4244605 25.3889268 61.174423 43.4047051 19.9153437 43.4047051 19.9153437 61.32764 5.92834281 61.32764" mask="url(#b)"/>
    <path fill="#DBE3E9" d="M33 25L61.3896157 25 61.3896157 34 47.5743258 34 47.5 53.293661 33 53.293661 33 43.346073 19.4435399 43.346073 19.4435399 34.3092414 33 34.3092414M6 53H20V61H6z" mask="url(#b)"/>
    <path fill="#455053" d="M32.5352459,24.2939344 L32.5352459,33.2929508 L4.8457377,33.2929508 L4.8457377,62.3677049 L48.4567213,62.3677049 L48.4567213,54.0608197 L62.3014754,54.0608197 L62.3014754,24.2939344 L32.5352459,24.2939344 Z M6.91999817,51.9834426 L18.688031,51.9834426 L18.688031,44.3688525 L6.91999817,44.3688525 L6.91999817,51.9834426 Z M6.92245902,42.2921311 L18.6904918,42.2921311 L18.6904918,35.3696721 L6.92245902,35.3696721 L6.92245902,42.2921311 Z M20.7672131,60.2903279 L32.5352459,60.2903279 L32.5352459,54.0601639 L20.7672131,54.0601639 L20.7672131,60.2903279 Z M6.91999817,60.2903279 L18.688031,60.2903279 L18.688031,54.0601639 L6.91999817,54.0601639 L6.91999817,60.2903279 Z M20.7700043,51.9834426 L32.5380371,51.9834426 L32.5380371,44.3688525 L20.7700043,44.3688525 L20.7700043,51.9834426 Z M34.6100006,60.2903279 L46.3780334,60.2903279 L46.3780334,54.0601639 L34.6100006,54.0601639 L34.6100006,60.2903279 Z M48.4567213,51.9834426 L60.2247541,51.9834426 L60.2247541,44.3688525 L48.4567213,44.3688525 L48.4567213,51.9834426 Z M34.6100006,51.9834426 L46.3780334,51.9834426 L46.3780334,44.3688525 L34.6100006,44.3688525 L34.6100006,51.9834426 Z M48.4600067,42.2921311 L60.2280395,42.2921311 L60.2280395,35.3696721 L48.4600067,35.3696721 L48.4600067,42.2921311 Z M34.6100006,42.2921311 L46.3780334,42.2921311 L46.3780334,35.3696721 L34.6100006,35.3696721 L34.6100006,42.2921311 Z M34.6100006,33.2921311 L46.3780334,33.2921311 L46.3780334,26.3696721 L34.6100006,26.3696721 L34.6100006,33.2921311 Z M48.4600067,33.2921311 L60.2280395,33.2921311 L60.2280395,26.3696721 L48.4600067,26.3696721 L48.4600067,33.2921311 Z M20.7700043,42.2921311 L32.5380371,42.2921311 L32.5380371,35.3696721 L20.7700043,35.3696721 L20.7700043,42.2921311 Z" mask="url(#b)"/>
    <g transform="translate(22 46)">
      <rect width="47.704918" height="34.0983607" x=".29508197" y=".39344262" fill="#455053" rx="2"/>
      <rect width="43.2786885" height="29.6721311" x="2.42622951" y="2.52459016" fill="#FFF" rx="1"/>
      <path fill="#455053" d="M14.4754098,8.42622951 L38.4098361,8.42622951 L38.4098361,8.42622951 C38.9983362,8.42622951 39.4754098,7.94915588 39.4754098,7.36065574 L39.4754098,7.36065574 L39.4754098,7.36065574 C39.4754098,6.77215559 38.9983362,6.29508197 38.4098361,6.29508197 L14.4754098,6.29508197 L14.4754098,6.29508197 C13.8869097,6.29508197 13.4098361,6.77215559 13.4098361,7.36065574 L13.4098361,7.36065574 L13.4098361,7.36065574 C13.4098361,7.94915588 13.8869097,8.42622951 14.4754098,8.42622951 Z"/>
      <path fill="#ED1D59" d="M8.40991844,13.3442623 C6.64700552,13.3442623 5.21311475,14.7781531 5.21311475,16.5409012 C5.21311475,18.3036494 6.64700552,19.7377049 8.40991844,19.7377049 C10.1726666,19.7377049 11.6065574,18.3036494 11.6065574,16.5409012 C11.6065574,14.7781531 10.1726666,13.3442623 8.40991844,13.3442623 Z M8.40991844,17.6067221 C7.82222588,17.6067221 7.34409754,17.1285938 7.34409754,16.5409012 C7.34409754,15.9533734 7.82222588,15.4757394 8.40991844,15.4757394 C8.99744625,15.4757394 9.47491556,15.9533734 9.47491556,16.5409012 C9.47491556,17.1285938 8.99744625,17.6067221 8.40991844,17.6067221 Z"/>
      <path fill="#455053" d="M8.40991844,22.5245902 C6.64700552,22.5245902 5.21311475,23.9584809 5.21311475,25.7212291 C5.21311475,27.4839773 6.64700552,28.9180328 8.40991844,28.9180328 C10.1726666,28.9180328 11.6065574,27.4839773 11.6065574,25.7212291 C11.6065574,23.9584809 10.1726666,22.5245902 8.40991844,22.5245902 Z M8.40991844,26.78705 C7.82222588,26.78705 7.34409754,26.3089217 7.34409754,25.7212291 C7.34409754,25.1337013 7.82222588,24.6560672 8.40991844,24.6560672 C8.99744625,24.6560672 9.47491556,25.1337013 9.47491556,25.7212291 C9.47491556,26.3089217 8.99744625,26.78705 8.40991844,26.78705 Z"/>
      <path fill="#455053" d="M42.5081967,21.704918 L42.5081967,21.704918 L42.5081967,21.704918 C43.0966969,21.704918 43.5737705,21.2278444 43.5737705,20.6393443 L43.5737705,20.6393443 L43.5737705,20.6393443 C43.5737705,20.0508441 43.0966969,19.5737705 42.5081967,19.5737705 L42.5081967,19.5737705 L42.5081967,19.5737705 C41.9196966,19.5737705 41.442623,20.0508441 41.442623,20.6393443 L41.442623,20.6393443 L41.442623,20.6393443 C41.442623,21.2278444 41.9196966,21.704918 42.5081967,21.704918 Z" transform="rotate(90 42.508 20.64)"/>
      <path fill="#455053" d="M42.5081967,30.2295082 L42.5081967,30.2295082 L42.5081967,30.2295082 C43.0966969,30.2295082 43.5737705,29.7524346 43.5737705,29.1639344 L43.5737705,29.1639344 L43.5737705,29.1639344 C43.5737705,28.5754343 43.0966969,28.0983607 42.5081967,28.0983607 L42.5081967,28.0983607 L42.5081967,28.0983607 C41.9196966,28.0983607 41.442623,28.5754343 41.442623,29.1639344 L41.442623,29.1639344 L41.442623,29.1639344 C41.442623,29.7524346 41.9196966,30.2295082 42.5081967,30.2295082 Z" transform="rotate(90 42.508 29.164)"/>
      <path fill="#455053" d="M42.5081967,25.9672131 L42.5081967,25.9672131 L42.5081967,25.9672131 C43.0966969,25.9672131 43.5737705,25.4901395 43.5737705,24.9016393 L43.5737705,24.9016393 L43.5737705,24.9016393 C43.5737705,24.3131392 43.0966969,23.8360656 42.5081967,23.8360656 L42.5081967,23.8360656 L42.5081967,23.8360656 C41.9196966,23.8360656 41.442623,24.3131392 41.442623,24.9016393 L41.442623,24.9016393 L41.442623,24.9016393 C41.442623,25.4901395 41.9196966,25.9672131 42.5081967,25.9672131 Z" transform="rotate(90 42.508 24.902)"/>
      <path fill="#455053" d="M14.4754098 15.4754098L36.6065574 15.4754098 36.6065574 15.4754098C37.1950575 15.4754098 37.6721311 14.9983362 37.6721311 14.4098361L37.6721311 14.4098361 37.6721311 14.4098361C37.6721311 13.8213359 37.1950575 13.3442623 36.6065574 13.3442623L14.4754098 13.3442623 14.4754098 13.3442623C13.8869097 13.3442623 13.4098361 13.8213359 13.4098361 14.4098361L13.4098361 14.4098361 13.4098361 14.4098361C13.4098361 14.9983362 13.8869097 15.4754098 14.4754098 15.4754098zM14.4754098 19.7377049L30.704918 19.7377049 30.704918 19.7377049C31.2934182 19.7377049 31.7704918 19.2606313 31.7704918 18.6721311L31.7704918 18.6721311 31.7704918 18.6721311C31.7704918 18.083631 31.2934182 17.6065574 30.704918 17.6065574L14.4754098 17.6065574 14.4754098 17.6065574C13.8869097 17.6065574 13.4098361 18.083631 13.4098361 18.6721311L13.4098361 18.6721311 13.4098361 18.6721311C13.4098361 19.2606313 13.8869097 19.7377049 14.4754098 19.7377049zM14.4754098 26.7868852L30.704918 26.7868852 30.704918 26.7868852C31.2934182 26.7868852 31.7704918 26.3098116 31.7704918 25.7213115L31.7704918 25.7213115 31.7704918 25.7213115C31.7704918 25.1328113 31.2934182 24.6557377 30.704918 24.6557377L14.4754098 24.6557377 14.4754098 24.6557377C13.8869097 24.6557377 13.4098361 25.1328113 13.4098361 25.7213115L13.4098361 25.7213115 13.4098361 25.7213115C13.4098361 26.3098116 13.8869097 26.7868852 14.4754098 26.7868852z"/>
      <path fill="#14C3A2" d="M8.40991844,4.16393443 C6.64700552,4.16393443 5.21311475,5.59782519 5.21311475,7.36057336 C5.21311475,9.12348628 6.64700552,10.557377 8.40991844,10.557377 C10.1726666,10.557377 11.6065574,9.12348628 11.6065574,7.36057336 C11.6065574,5.59782519 10.1726666,4.16393443 8.40991844,4.16393443 Z M8.40991844,8.42639427 C7.82222588,8.42639427 7.34409754,7.94826592 7.34409754,7.36057336 C7.34409754,6.77304556 7.82222588,6.29557624 8.40991844,6.29557624 C8.99744625,6.29557624 9.47491556,6.77304556 9.47491556,7.36057336 C9.47491556,7.94826592 8.99744625,8.42639427 8.40991844,8.42639427 Z"/>
    </g>
  </g>
</svg>
