<svg xmlns="http://www.w3.org/2000/svg" width="180" height="170" xmlns:xlink="http://www.w3.org/1999/xlink">
  <defs>
    <path id="a" d="M82,21.5685529 L82,0 L0,0 L0,108 L82,108 L82,83.5868087 L76.2731719,106.904762 C76.0729,107.388478 71.063903,106.873635 70.4658089,106.904762 C69.9722736,106.904762 65.9894456,108.084954 65.7492554,107.648496 L61.5715074,96.1648455 L49.4947451,98.257729 C48.9923642,98.4031393 48.4500651,98.2479592 48.101914,97.8573961 C47.7528557,97.4668331 47.6580498,96.9104113 47.8583217,96.4266948 L58.7894657,65.1503886 C55.3830286,60.5733712 56.8393746,55.0784739 56.8393746,48.9439754 C56.8393746,34.5603555 67.9337062,22.7232359 82,21.5685529 Z"/>
    <path id="c" d="M64.0451559 0.00819149L0.00004731 0.00819149 0.00004731 77 64.0451559 77 64.0451559 0.00819149z"/>
  </defs>
  <g fill="none" fill-rule="evenodd">
    <circle cx="90" cy="85" r="85" fill="#EDEFF2"/>
    <g transform="translate(36 36)">
      <mask id="b" fill="#fff">
        <use xlink:href="#a"/>
      </mask>
      <path fill="#EDEFF2" d="M15.3066667 5.0952381H76.5333334V83.952381H15.3066667z" mask="url(#b)"/>
      <path fill="#FFF" d="M6.56 13.8571429L54.8608923 13.8571429 67.7866667 27.3317098 67.7866667 92.7142857 6.56 92.7142857" mask="url(#b)"/>
      <path fill="#455053" d="M55.0056976,11.6666667 L7.37333333,11.6666667 L7.37333333,11.6666667 C5.71647908,11.6666667 4.37333333,13.0098124 4.37333333,14.6666667 L4.37333333,91.9047619 L4.37333333,91.9047619 C4.37333333,93.5616162 5.71647908,94.9047619 7.37333333,94.9047619 L68.0666667,94.9047619 L68.0666667,94.9047619 C69.7235209,94.9047619 71.0666667,93.5616162 71.0666667,91.9047619 L71.0666667,27.6812119 L71.0666667,27.6812119 C71.0666667,26.8837114 70.749128,26.1190313 70.1842069,25.5561182 L57.1232379,12.541573 L57.1232379,12.541573 C56.5609389,11.9812726 55.7994964,11.6666667 55.0056976,11.6666667 Z M57.0210187,16.7186738 L65.8636361,25.528899 L57.0210187,25.5466979 L57.0210187,16.7186738 Z M7.40946038,90.8791859 L7.40946038,15.69104 L7.40946038,15.69104 C7.40946038,15.1387553 7.85717563,14.69104 8.40946038,14.69104 L52.9858571,14.69104 L52.9858571,14.69104 C53.5381419,14.69104 53.9858571,15.1387553 53.9858571,15.69104 L53.9858571,27.5758517 L53.9858571,27.5758517 C53.9858571,28.1281365 54.4335724,28.5758517 54.9858571,28.5758517 C54.9865079,28.5758517 54.9871587,28.5758511 54.9878095,28.5758498 L68.0305396,28.550386 L68.0305396,90.8791859 L68.0305396,90.8791859 C68.0305396,91.4314707 67.5828244,91.8791859 67.0305396,91.8791859 L8.40946038,91.8791859 L8.40946038,91.8791859 C7.85717563,91.8791859 7.40946038,91.4314707 7.40946038,90.8791859 Z" mask="url(#b)"/>
      <path fill="#455053" d="M13.12,7 L13.12,10.0031649 L16.1301649,10.0031649 L16.1301649,8.00194046 L16.1301649,8.00194046 C16.1301649,7.44965571 16.5778801,7.00194046 17.1301649,7.00194046 L73.6174591,7.00194046 L73.6174591,7.00194046 C74.1697438,7.00194046 74.6174591,7.44965571 74.6174591,8.00194046 L74.6174591,82.0456786 L71.8073656,82.0456786 L71.8073656,85.047619 L77.6266667,85.047619 L77.6266667,7 L77.6266667,7 C77.6266667,5.34314575 76.2835209,4 74.6266667,4 L45.3733333,4 L16.12,4 L16.12,4 C14.4631458,4 13.12,5.34314575 13.12,7 Z" mask="url(#b)"/>
      <path fill="#455053" d="M13.12 27L48.1066667 27 48.1066667 23.7142857 13.12 23.7142857M13.12 36.8571429L59.04 36.8571429 59.04 33.5714286 13.12 33.5714286M13.12 45.6190476L59.04 45.6190476 59.04 42.3333333 13.12 42.3333333M13.12 55.4761905L59.04 55.4761905 59.04 52.1904762 13.12 52.1904762M13.12 64.2380952L59.04 64.2380952 59.04 60.952381 13.12 60.952381M13.12 73L59.04 73 59.04 69.7142857 13.12 69.7142857M13.12 82.8571429L59.04 82.8571429 59.04 79.5714286 13.12 79.5714286" mask="url(#b)"/>
    </g>
    <g transform="translate(88 61)">
      <mask id="d" fill="#fff">
        <use xlink:href="#c"/>
      </mask>
      <path fill="#0299BC" d="M13.0917041 39.6L1.10169492 68.6938347 11.8695741 65.8667325 17.2121097 75.5620164 28.7549563 48.1485912C24.6470155 47.2053866 21.6347125 46.2529455 19.7180473 45.2912679 17.8013821 44.3295904 15.592601 42.4325011 13.0917041 39.6zM35.5859433 48.4822188L46.5080164 75.7046236 51.8202843 66.0253056 62.617289 69.081062 50.6826754 39.6969903C47.9083261 42.7555978 45.4633046 44.7448711 43.347611 45.6648102 41.2319174 46.5847493 38.6446948 47.5238855 35.5859433 48.4822188z" mask="url(#d)"/>
      <circle cx="32" cy="25" r="23" fill="#FFF" mask="url(#d)"/>
      <path fill="#455053" d="M63.9512509,68.5429016 L53.7416449,43.932391 C53.4821899,43.3061516 52.7618689,43.0077766 52.1338442,43.2676516 C51.5064348,43.5277314 51.2076001,44.246125 51.4680806,44.8731835 L60.6977056,67.1214734 L52.2788519,64.6855293 C51.7258948,64.5255904 51.1362243,64.769492 50.85831,65.2726543 L46.6305265,72.9394787 L36.7269338,49.0666117 C48.1575167,46.8659681 56.8181865,36.8033378 56.8181865,24.7577527 C56.8181865,11.1064309 45.6954629,0 32.0224914,0 C18.3503403,0 7.22659124,11.1064309 7.22659124,24.7577527 C7.22659124,30.287008 9.05180085,35.3984973 12.1322395,39.5239362 L0.093731969,68.5429016 C-0.0873737829,68.9788936 -0.00164082221,69.4804176 0.314012351,69.8324468 C0.628845114,70.1844761 1.11924585,70.3243457 1.5735485,70.1932819 L11.5058556,67.3197074 L16.4939551,76.3641356 C16.7111589,76.7575319 17.1252614,77 17.5715651,77 C18.1124211,76.9719441 18.527344,76.6776649 18.7084498,76.2416729 L28.2481901,53.2471383 C28.5076451,52.6206941 28.2096308,51.9014814 27.5816061,51.6424255 C26.9533763,51.3823457 26.2338758,51.6799016 25.9736003,52.3071649 L17.4144564,72.9394787 L13.1866728,65.2726543 C12.9087586,64.769492 12.3182677,64.5255904 11.766131,64.6855293 L3.34727732,67.1214734 L13.9141724,41.6510612 C18.4424315,46.4867021 24.8847097,49.5153005 32.0224914,49.5153005 C32.7596308,49.5153005 33.4885661,49.4808963 34.208887,49.417617 L45.3365331,76.2416729 C45.5176388,76.6776649 45.9333822,76.9719441 46.4053237,76.9983617 C46.9205418,77 47.3346443,76.7575319 47.5518482,76.3641356 L52.5399477,67.3197074 L62.4722548,70.1932819 C62.9265574,70.3243457 63.4159327,70.1844761 63.7315858,69.8324468 C64.0474441,69.4804176 64.1323567,68.9788936 63.9512509,68.5429016 Z M9.68782456,24.7577527 C9.68782456,12.4617128 19.7075054,2.45744681 32.0224914,2.45744681 C44.3382979,2.45744681 54.3569532,12.4617128 54.3569532,24.7577527 C54.3569532,37.0544069 44.3382979,47.0578537 32.0224914,47.0578537 C19.7075054,47.0578537 9.68782456,37.0544069 9.68782456,24.7577527 Z" mask="url(#d)"/>
    </g>
    <path fill="#14C3A2" d="M32.1522119 11.2781889L27.7161467 19.1949351 19.4578603 20.304561 25.3137291 27.0557176 24.2568973 35.3850516 32.1522119 31.8083898 40.0274258 35.8451122 38.7433017 27.0557176 45.067671 20.304561 36.2272379 19.1949351" transform="translate(88 61)"/>
    <path fill="#455053" d="M46.2418567,20.1443059 C46.1001307,19.709133 45.727459,19.3884362 45.2747972,19.3124601 L36.9945929,17.9252314 L33.1136382,10.4906356 C32.9021772,10.084133 32.4815114,9.82978723 32.0224914,9.82978723 C31.5642918,9.82978723 31.143626,10.084133 30.9313447,10.4906356 L27.0512103,17.9252314 L18.7701857,19.3124601 C18.3175239,19.3884362 17.9448521,19.709133 17.8031261,20.1443059 C17.661195,20.5802979 17.7742066,21.0586809 18.0956027,21.3851117 L23.9777452,27.3671516 L22.7407704,35.6593963 C22.6734967,36.1121809 22.8634218,36.5657846 23.2342477,36.8344654 C23.6052786,37.1033511 24.0954742,37.1441037 24.5065002,36.9409548 L32.0224914,33.2035878 L39.5382776,36.9409548 C39.7122047,37.0265559 39.8996687,37.069766 40.0871326,37.069766 C40.3426907,37.069766 40.596813,36.9905133 40.8107352,36.8344654 C41.181561,36.5657846 41.3723066,36.113 41.3042125,35.6593963 L40.0672376,27.3679707 L45.9493802,21.3851117 C46.2707762,21.0586809 46.3835828,20.5802979 46.2418567,20.1443059 Z M37.8814574,26.0823165 C37.6115421,26.3575505 37.4858141,26.7431649 37.5426276,27.1246835 L38.5224035,33.6899574 L32.5713465,30.7307819 C32.3982397,30.6445665 32.2107758,30.6021755 32.0224914,30.6021755 C31.8350275,30.6021755 31.6467431,30.6445665 31.4744568,30.7307819 L25.5231946,33.6899574 L26.5023553,27.1246835 C26.5599892,26.7431649 26.4342612,26.3575505 26.1633204,26.0823165 L21.5060517,21.3457926 L28.0621619,20.2475186 C28.4428327,20.183625 28.7720226,19.9452527 28.9498467,19.6036676 L32.0224914,13.7166489 L35.094931,19.6036676 C35.2735755,19.9452527 35.6021502,20.183625 35.982821,20.2475186 L42.5387261,21.3457926 L37.8814574,26.0823165 Z" transform="translate(88 61)"/>
    <path fill="#455053" d="M50.6644879,25.9967154 C49.9905202,25.9072234 49.3721353,26.3806915 49.2823003,27.0534176 C48.1415187,35.6561197 40.7209002,42.1429601 32.0224914,42.1429601 C22.4210151,42.1429601 14.6102912,34.3442527 14.6102912,24.7577527 C14.6102912,15.1710479 22.4210151,7.37234043 32.0224914,7.37234043 C40.7209002,7.37234043 48.1415187,13.8591809 49.2823003,22.461883 C49.3721353,23.134609 49.9913406,23.6088963 50.6644879,23.5185851 C51.3382505,23.4288883 51.8116277,22.8114548 51.7228182,22.1385239 C50.4200054,12.32 41.9506964,4.91489362 32.0224914,4.91489362 C21.0646705,4.91489362 12.1490579,13.8159707 12.1490579,24.7577527 C12.1490579,35.6993298 21.0646705,44.6004069 32.0224914,44.6004069 C41.9506964,44.6004069 50.4200054,37.1961197 51.7228182,27.3767766 C51.8116277,26.7038457 51.3382505,26.0864122 50.6644879,25.9967154 Z" transform="translate(88 61)"/>
    <path fill="#455053" d="M24 3.02468507L26.8485929 3.02468507 26.8485929 0 24 0M6 10.0246851L8.84859287 10.0246851 8.84859287 7 6 7M31 36.0246851L33.8493165 36.0246851 33.8493165 33 31 33M18 19.0246851L20.8485929 19.0246851 20.8485929 16 18 16M0 19.0246851L2.84859287 19.0246851 2.84859287 16 0 16M12 32.0246851L14.8485929 32.0246851 14.8485929 29 12 29" transform="translate(0 90)"/>
    <path fill="#455053" d="M24 3.02468507L26.8485929 3.02468507 26.8485929 0 24 0M6 10.0246851L8.84859287 10.0246851 8.84859287 7 6 7M18 19.0246851L20.8485929 19.0246851 20.8485929 16 18 16M0 19.0246851L2.84859287 19.0246851 2.84859287 16 0 16M12 32.0246851L14.8485929 32.0246851 14.8485929 29 12 29" transform="matrix(-1 0 0 1 180 90)"/>
  </g>
</svg>
