<?xml version="1.0" encoding="utf-8"?>
<!-- Generator: Adobe Illustrator 22.0.0, SVG Export Plug-In . SVG Version: 6.00 Build 0)  -->
<svg version="1.1" xmlns="http://www.w3.org/2000/svg" xmlns:xlink="http://www.w3.org/1999/xlink" x="0px" y="0px"
	 viewBox="0 0 135 38" style="enable-background:new 0 0 135 38;" xml:space="preserve">
<style type="text/css">
	.st0{display:none;}
	.st1{display:inline;}
	.st2{fill:#1A103A;}
	.st3{fill:#5160AB;}
</style>
<g id="esurance" class="st0">
	<g class="st1">
		<title>Layer 1</title>
		<g id="svg_1">
			<g id="svg_2">
				<g id="svg_4">
					<g id="svg_5">
						<g id="svg_6">
							<path id="svg_7" class="st2" d="M34.1,13c0-1.2,1-2.2,2.2-2.2c1.2,0,2.2,1,2.2,2.2v7.3c0,2,1.2,3.4,3.3,3.4s3.3-1.4,3.3-3.4
								V13c0-1.2,1-2.2,2.2-2.2c1.2,0,2.2,1,2.2,2.2v7c0,4.5-3.2,7.7-7.8,7.7c-4.5,0-7.8-3.2-7.8-7.7L34.1,13L34.1,13L34.1,13z"/>
						</g>
						<path id="svg_8" class="st2" d="M14.6,20.6H4.7c0.2,1.9,1.5,3.5,4,3.5c1.4,0,2.6-0.4,3.4-1.1c0.5-0.4,1-0.7,1.6-0.7
							c1.1,0,1.8,0.7,1.8,1.6c0,1-0.8,1.8-1.6,2.2c-1.2,0.8-2.9,1.5-5.4,1.5c-5.6,0-8.5-3.9-8.5-8.5c0-4.9,3.5-8.5,8.4-8.5
							c4.7,0,7.8,3.7,7.8,8.5C16.2,19.9,15.8,20.6,14.6,20.6z M8.4,14.2c-2.1,0-3.5,1.3-3.7,3.2h7.2C11.6,15.7,10.4,14.2,8.4,14.2z"
							/>
						<path id="svg_9" class="st2" d="M29.7,15.5c-0.6,0-1.3-0.4-2-0.7c-1-0.4-1.8-0.6-2.8-0.6c-1.4,0-2.3,0.3-2.3,1.2
							c0,0.9,0.7,1.3,3.1,1.9c3.5,1,6.1,2.1,6.1,5.4c0,3-2.5,5-6.7,5c-2.3,0-4.5-0.6-5.9-1.7c-0.7-0.5-1-1.2-1-1.9
							c0-0.9,0.7-1.5,1.6-1.5c0.7,0,1.2,0.3,1.8,0.6c0.8,0.5,2,1.1,3.6,1.1c1.4,0,2.4-0.5,2.4-1.3c0-0.9-0.9-1.3-3.1-1.9
							c-4.7-1.3-6.1-3.1-6.1-5.7c0-2.7,2.3-4.9,6.7-4.9c1.4,0,2.8,0.3,4.1,0.9c1.3,0.6,2.3,1.4,2.3,2.4
							C31.4,14.8,30.9,15.5,29.7,15.5z"/>
						<path id="svg_10" class="st2" d="M61.2,14.9c-2.4,0-3.8,1.2-3.8,4.4v6c0,1.2-1,2.2-2.2,2.2c-1.2,0-2.3-1-2.3-2.2V13.1
							c0-1.3,0.9-2.3,2.3-2.3c1.2,0,2.2,1,2.2,2.3v0.4c0.4-1.6,1.5-2.8,3.5-2.8c1.6,0,2.3,0.9,2.3,2.2
							C63.2,14.1,62.5,14.9,61.2,14.9z"/>
						<path id="svg_11" class="st2" d="M81,25.3c0,1.2-0.7,2.3-2.2,2.3c-1.5,0-2.2-1.1-2.2-2.3v-0.1c-0.9,1.5-2.5,2.5-4.9,2.5
							c-5.1,0-8.1-3.8-8.1-8.5c0-5.1,3.6-8.5,8.7-8.5c5.3,0,8.6,3.4,8.6,8.5V25.3z M72.4,14.5c-2.6,0-4.3,2.1-4.3,4.7
							c0,2.5,1.5,4.7,4.3,4.7c2.7,0,4.2-2.2,4.2-4.7C76.6,16.4,75.1,14.5,72.4,14.5z"/>
						<path id="svg_12" class="st2" d="M92,10.6c4.5,0,7.9,3.2,7.9,7.7v7c0,1.2-1,2.2-2.2,2.2c-1.2,0-2.2-1-2.2-2.2V18
							c0-2-1.3-3.4-3.4-3.4c-2.1,0-3.4,1.4-3.4,3.4v7.3c0,1.2-1,2.2-2.2,2.2c-1.2,0-2.2-1-2.2-2.2v-7C84.1,13.9,87.5,10.6,92,10.6z"
							/>
						<path id="svg_13" class="st2" d="M116.7,12.8c0.4,0.4,0.6,0.9,0.6,1.5c0,1-0.7,1.7-1.8,1.7c-0.6,0-1-0.1-1.4-0.4
							c-0.6-0.4-1.6-1.2-3.2-1.2c-2.9,0-4.4,2.2-4.4,4.7c0,2.5,1.5,4.7,4.4,4.7c1.6,0,2.6-0.7,3.2-1.2c0.4-0.3,0.8-0.4,1.4-0.4
							c1,0,1.8,0.7,1.8,1.7c0,0.6-0.2,1.1-0.6,1.5c-1.1,1.2-3.1,2.2-5.7,2.2c-5.4,0-8.8-3.8-8.8-8.5s3.4-8.5,8.8-8.5
							C113.6,10.6,115.7,11.6,116.7,12.8z"/>
						<path id="svg_14" class="st2" d="M133.4,20.6h-9.9c0.2,1.9,1.5,3.5,4,3.5c1.4,0,2.6-0.4,3.4-1.1c0.5-0.4,1-0.7,1.6-0.7
							c1.1,0,1.8,0.7,1.8,1.6c0,1-0.8,1.8-1.6,2.2c-1.2,0.8-2.9,1.5-5.5,1.5c-5.6,0-8.5-3.9-8.5-8.5c0-4.9,3.5-8.5,8.4-8.5
							c4.7,0,7.8,3.7,7.8,8.5C135,19.9,134.6,20.6,133.4,20.6z M127.2,14.2c-2.1,0-3.5,1.3-3.7,3.2h7.2
							C130.4,15.7,129.2,14.2,127.2,14.2z"/>
					</g>
				</g>
			</g>
		</g>
	</g>
</g>
<g id="kissmetrics">
	<g>
		<path class="st3" d="M11.3,10.5c-3.1,0-5.6,2.4-5.8,5.5c-3.2,0.1-5.7,2.8-5.5,6c0.1,3.1,2.7,5.6,5.8,5.5h9c1.3,0,2.3-1,2.3-2.3
			c0,0,0,0,0,0v-8.9C17.1,13.1,14.5,10.5,11.3,10.5z M5.1,25c-1.2-0.3-2.1-1.2-2.5-2.4l0,0c0-0.1,0-0.2-0.1-0.4h2.5V25z M5.8,25.1
			v-5.5h2.4v5.5L5.8,25.1z M11.4,25.1H9v-10h2.4V25.1z M14.6,24.6c0,0.3-0.2,0.5-0.5,0.5c0,0,0,0,0,0h-1.9V17h2.4V24.6z"/>
		<path class="st3" d="M32.4,27.6l-4.3-5v5h-2.8V10.5H28V20l3.2-3.5h3.6l-4.5,4.9l5.6,6.3H32.4z"/>
		<path class="st3" d="M36.2,12.5c0-1,0.8-1.7,1.8-1.7c1,0,1.8,0.7,1.8,1.7S39,14.2,38,14.2C37,14.2,36.2,13.5,36.2,12.5z
			 M36.7,16.5h2.8v11.1h-2.8L36.7,16.5z"/>
		<path class="st3" d="M41,24.1h2.6c0,0.8,0.7,1.5,1.8,1.5c1.1,0,1.8-0.5,1.8-1.2c0-0.6-0.5-0.9-1.3-1.1l-1.5-0.4
			c-2.5-0.7-3.1-2-3.1-3.4c0-1.7,1.7-3.3,4.1-3.3c2,0,4.2,1,4.2,3.5H47c0-0.8-0.7-1.3-1.5-1.3c-0.9,0-1.5,0.5-1.5,1.2
			c0,0.6,0.5,0.9,1.2,1l1.8,0.5c2.5,0.6,2.9,2.2,2.9,3.2c0,2.3-2.3,3.4-4.5,3.4C43.3,27.8,41.1,26.5,41,24.1z"/>
		<path class="st3" d="M51,24.1h2.6c0,0.8,0.7,1.5,1.8,1.5c1.1,0,1.8-0.5,1.8-1.2c0-0.6-0.5-0.9-1.3-1.1l-1.5-0.4
			c-2.5-0.7-3.1-2-3.1-3.4c0-1.7,1.7-3.3,4.1-3.3c2,0,4.2,1,4.2,3.5h-2.6c0-0.8-0.7-1.3-1.5-1.3c-0.9,0-1.5,0.5-1.5,1.2
			c0,0.6,0.5,0.9,1.2,1l1.8,0.5c2.5,0.6,2.9,2.2,2.9,3.2c0,2.3-2.3,3.4-4.5,3.4C53.2,27.8,51,26.5,51,24.1z"/>
		<path class="st3" d="M79.1,21.3v6.2h-2.7v-6c0-1.8-0.9-2.7-2.2-2.7c-1.6,0-2.6,1.2-2.5,3.2l0-0.1v5.6h-2.8v-6
			c0-1.8-0.9-2.7-2.1-2.7c-1.3,0-2.6,0.7-2.6,2.8v5.9h-2.8V16.5h2.8v1.9c0.4-1.4,1.9-2.1,3.3-2.1c1.6,0,2.9,0.8,3.6,2.2
			c0.9-1.8,2.6-2.2,3.7-2.2C77.6,16.2,79.1,18.1,79.1,21.3z"/>
		<path class="st3" d="M91.9,23h-8.6c0.3,1.5,1.5,2.3,3.1,2.3c1.2,0,2.4-0.5,3-1.4l1.8,1.4c-1,1.6-3,2.5-5,2.5
			c-3.3,0-5.9-2.3-5.9-5.8c0-3.5,2.7-5.8,5.8-5.8c3.2,0,5.7,2.2,5.7,5.7C92,22.3,92,22.6,91.9,23z M89.2,21.1
			c-0.2-1.5-1.3-2.4-2.9-2.4c-1.5,0-2.7,0.7-3,2.4L89.2,21.1z"/>
		<path class="st3" d="M99.6,18.7h-2.4v8.9h-2.8v-8.9h-2v-2.2h2v-4.1h2.8v4.1h2.4L99.6,18.7z"/>
		<path class="st3" d="M108.9,16.6l-0.5,2.6c-0.5-0.3-1.1-0.4-1.6-0.4c-1.8,0-2.8,1.8-2.8,4.9v3.9h-2.8V16.5h2.8v2.4
			c0.6-1.9,1.8-2.6,3.2-2.6C107.7,16.2,108.3,16.3,108.9,16.6z"/>
		<path class="st3" d="M109.9,12.5c0-1,0.8-1.7,1.8-1.7s1.8,0.7,1.8,1.7s-0.8,1.7-1.8,1.7S109.9,13.5,109.9,12.5z M110.4,16.5h2.8
			v11.1h-2.8V16.5z"/>
		<path class="st3" d="M114.7,22c0-3.5,2.8-5.8,6-5.8c1.8,0,3.4,0.8,4.5,2.1l-2,1.5c-0.6-0.7-1.5-1.1-2.5-1.1
			c-1.9,0-3.3,1.3-3.3,3.2c0,1.9,1.4,3.2,3.3,3.2c1,0,1.9-0.4,2.5-1.1l2,1.5c-1.1,1.4-2.8,2.2-4.5,2.1
			C117.5,27.8,114.7,25.5,114.7,22z"/>
		<path class="st3" d="M126,24.1h2.6c0,0.8,0.7,1.5,1.8,1.5c1.1,0,1.8-0.5,1.8-1.2c0-0.6-0.5-0.9-1.3-1.1l-1.5-0.4
			c-2.5-0.7-3.1-2-3.1-3.4c0-1.7,1.7-3.3,4.1-3.3c2,0,4.2,1,4.2,3.5H132c0-0.8-0.7-1.3-1.5-1.3c-0.9,0-1.5,0.5-1.5,1.2
			c0,0.6,0.5,0.9,1.2,1l1.8,0.5c2.5,0.6,2.9,2.2,2.9,3.2c0,2.3-2.3,3.4-4.5,3.4C128.3,27.8,126.1,26.5,126,24.1z"/>
	</g>
</g>
</svg>
