<svg xmlns="http://www.w3.org/2000/svg" id="Layer_1" viewBox="0 0 1176 381">
  <style>
    .st0{opacity:0.4;fill:#FFFFFF;enable-background:new ;} .st1{opacity:0.333;fill:url(#SVGID_1_);enable-background:new ;}
  </style>
  <path d="M1301.2 791.4c-6.3-3.6-14-3.6-20.3 0-8 4.6-16.1 9.2-16.1 9.2-1.2.7-2 2-2 3.4v75.7c0 4.9-5.4 7.9-9.6 5.3l-63.8-38.8c-1.2-.8-2.8-.8-4-.1l-103.5 59.4c-6.3 3.6-14 3.6-20.3 0L846.8 782.3c-5.6-3.2-9-9.1-9-15.5V520.4c0-7.2 3.9-13.8 10.1-17.4l213.7-122.5c6.3-3.6 14-3.6 20.3 0l199 114.1c6.3 3.6 14 3.6 20.3 0l102.8-58.9c15.5-8.9 15.5-31.2 0-40.1l-316.3-181.4c-9.8-5.6-21.8-5.6-31.6 0L705.8 415c-9.8 5.6-15.8 16-15.8 27.2v402.9c0 10.3 5.5 19.9 14.5 25.1.1 0 52.3 30 52.3 30 2 1.2 3.2 3.3 3.2 5.6v126.1c0 6.8 7.5 11 13.4 7.5l106.3-64.7c2-1.2 4.5-1.3 6.6-.1l169.7 97.3c9.8 5.6 21.8 5.6 31.6 0L1404 890.4c15.5-8.9 15.5-31.2 0-40.1l-102.8-58.9" class="st0"/>
  <linearGradient id="SVGID_1_" x1="672.8685" x2="673.0734" y1="220.5976" y2="220.6959" gradientUnits="userSpaceOnUse" gradientTransform="matrix(841.0002 0 0 -1003.662 -565057.188 221970.328)">
    <stop offset="0" stop-color="#095D98" stop-opacity="0"/>
    <stop offset="1" stop-color="#095D98"/>
  </linearGradient>
  <path d="M1201.4 673.8c-7.3-4.2-16.2-4.2-23.5 0-9.3 5.3-18.6 10.7-18.6 10.7-1.4.8-2.3 2.3-2.3 4v87.7c0 5.7-6.2 9.1-11.1 6.2l-74-45c-1.4-.9-3.2-.9-4.7-.1l-120 68.8c-7.3 4.2-16.2 4.2-23.5 0l-249-142.8c-6.4-3.7-10.4-10.5-10.4-17.9V359.8c0-8.3 4.5-16 11.7-20.2l247.7-142c7.3-4.2 16.2-4.2 23.5 0l230.6 132.2c7.3 4.2 16.2 4.2 23.5 0l119.1-68.3c18-10.3 18-36.1 0-46.4L953.9 4.9c-11.4-6.5-25.3-6.5-36.7 0L511.3 237.6c-11.3 6.5-18.3 18.5-18.3 31.5V736c0 12 6.4 23.1 16.8 29.1.1 0 60.6 34.7 60.6 34.7 2.3 1.3 3.7 3.8 3.7 6.5v146.1c0 7.9 8.7 12.8 15.6 8.6L713 886c2.3-1.4 5.3-1.5 7.6-.1l196.6 112.7c11.4 6.5 25.3 6.5 36.7 0l366.6-210.2c18-10.3 18-36.1 0-46.4l-119.1-68.2" class="st1"/>
  <path d="M996.1 1062.4c-10.9-6.2-24.3-6.2-35.2 0l-27.8 16c-2.1 1.2-3.4 3.5-3.4 5.9v131.3c0 8.5-9.3 13.7-16.6 9.2l-110.7-67.4c-2.1-1.3-4.8-1.4-7-.1l-179.6 103c-10.9 6.2-24.3 6.2-35.1 0L208 1046.6c-9.6-5.5-15.6-15.8-15.6-26.8V592.5c0-12.5 6.7-24 17.6-30.2l370.7-212.5c10.9-6.2 24.3-6.2 35.1 0L961 547.6c10.9 6.2 24.3 6.2 35.2 0l178.2-102.2c26.9-15.4 26.9-54.1 0-69.5L625.7 61.3c-17-9.7-37.9-9.7-54.9 0L-36.6 409.6c-17 9.7-27.4 27.7-27.4 47.2v698.8c0 18 9.6 34.5 25.2 43.6.1.1 90.6 52 90.6 52 3.4 2 5.6 5.7 5.6 9.7v218.7c0 11.9 13.1 19.1 23.3 12.9l184.4-112.2c3.5-2.1 7.9-2.2 11.4-.2l294.3 168.7c17 9.7 37.9 9.7 54.9 0l548.7-314.6c26.9-15.4 26.9-54.1 0-69.5l-178.3-102.3" class="st0"/>
</svg>