<svg xmlns="http://www.w3.org/2000/svg" viewBox="0 0 122 24" xmlns:xlink="http://www.w3.org/1999/xlink">
  <defs>
    <path id="a" d="M0 12.0112073v11.9813316h20.1514093V.02987565H0z"/>
  </defs>
  <g fill="none" fill-rule="evenodd">
    <mask id="b" fill="#fff">
      <use xlink:href="#a"/>
    </mask>
    <path fill="#FFF" d="M16.9740247 16.1227772c-.1742478-.0994819-.3888226-.0994819-.5629448.0001244-.2226151.1272124-.4457328.2547979-.4457328.2547979-.0337942.0198964-.0547743.0557098-.0547743.0947565v2.0952124c0 .1350466-.1496245.2179896-.2659572.1473575l-1.7722524-1.0749015c-.0342968-.0208912-.0771364-.021513-.112187-.0022384l-2.8752776 1.6431917c-.1739965.0994819-.3884457.0994819-.5625679 0l-5.96688882-3.4099896c-.15452403-.0882902-.24975103-.2515648-.24975103-.4281451V8.62308808c0-.19896373.1072874-.38288083.28128398-.4823627l5.93535587-3.39195854c.1741222-.09948187.3885714-.09948187.5625679 0l5.5264325 3.15830052c.1741222.09948186.3885714.09948186.5628192 0l2.853795-1.63100518c.4312854-.24646633.4312854-.86263213 0-1.1092228L11.0428146.14636268c-.2717361-.15531605-.6065382-.15531605-.8782743 0L.43907437 5.70429018C.16733822 5.85948185 0 6.14648705 0 6.4569948v11.1519171c0 .2865078.15364462.5510052.40301876.6957513.0016332.0009948 1.45114394.8296788 1.45114394.8296788.05515126.0323316.0891968.0909015.0891968.1545699l.00025126 3.4901969c0 .1892643.20954965.3055337.37261647.2065492l2.95329336-1.7912953c.055905-.0339482.1258805-.0350674.1831675-.0034819l4.7118522 2.6927254c.2717361.1551917.6065382.1551917.8782743 0l8.7851307-5.020601c.4312854-.2464663.4312854-.8627565 0-1.1092228l-2.8539206-1.6310052" mask="url(#b)"/>
    <path fill="#FFF" d="M22.1526316 11.9999396C22.1526316 7.92516495 25.3016875 4.8 29.6445935 4.8c3.2930113 0 6.0922279 1.9779311 6.9359875 4.8658747.0824038.3362145-.1028792.5538787-.4527184.5538787h-2.4286508c-.2881621 0-.452844-.138349-.5763241-.3956104-.5763241-1.206509-1.9141296-1.93845458-3.4782942-1.93845458-2.5522565 0-4.198825 1.64183734-4.198825 4.11425118 0 2.4725346 1.6465685 4.1142513 4.198825 4.1142513 1.5641646 0 2.9019701-.7318249 3.4782942-1.9383339.1234801-.2571407.288162-.3957311.5763241-.3957311h2.4286508c.3498392 0 .5351222.1978656.4527184.5142814C35.7780233 17.1823509 32.9582057 19.2 29.6445935 19.2c-4.342906 0-7.4919619-3.1252857-7.4919619-7.2000604m15.4105263 6.7053403V5.29472008c0-.31665466.173406-.49472008.4816573-.49472008h1.9262766c.3081337 0 .4815398.17806542.4815398.49472008V18.7052799c0 .3166547-.1734061.4947201-.4815398.4947201h-1.9262766c-.3082513 0-.4816573-.1780654-.4816573-.4947201m11.4050592-5.8653021c-.3149747-1.1378805-1.2137653-1.5399593-2.1124315-1.5399593-1.145498 0-1.9379707.5424524-2.2528209 1.5399593h4.3652524zM52.0105263 13.92c0 .2601184-.0203931.4999741-.0407863.7399519-.0407863.3200518-.244469.4600592-.5501175.4600592h-6.80385c.3703097 1.1881709 1.3208293 1.6600703 2.3826407 1.6600703.5703864 0 1.1408971-.2000629 1.5076007-.5000962.2038071-.1600259.3667036-.2599963.6316901-.2599963l1.9560012-.0198964c.3667036 0 .5703863.2399778.4073655.5600296C50.7064841 18.3000222 49.0358626 19.2 46.957627 19.2c-3.3821536 0-5.5418375-2.2999297-5.5418375-5.28 0-2.9799482 2.2411321-5.28 5.4603892-5.28 2.9746637 0 5.1343476 2.2600148 5.1343476 5.28zm6.1958111 2.3599852c-1.2833377 0-2.2706967-.9400148-2.2706967-2.3599852s.987359-2.3599852 2.2706967-2.3599852c1.2834582 0 2.2708172.9400148 2.2708172 2.3599852s-.987359 2.3599852-2.2708172 2.3599852zm4.8684644-7.3555761h-1.9745975c-.2436763 0-.4040784.10802663-.4651783.30393934C59.9101433 8.8519031 59.0848736 8.64 58.2063374 8.64c-2.9025438 0-5.2326532 2.3000518-5.2326532 5.28 0 2.9800703 2.3301094 5.28 5.2326532 5.28.8670875 0 1.6822341-.2065323 2.4002477-.5738228v.0737266c0 .3200518.1776354.5000962.4936192.5000962h1.9745975c.3158633 0 .4936193-.1800444.4936193-.5000962V9.42450527c0-.32005178-.177756-.50009617-.4936193-.50009617zm7.6621525-.27441794c.3509339-.06064286.5367299.16146778.5367299.48464986v2.38306718c0 .3230588-.1446059.4846499-.4129079.4846499-1.1558399-.0403053-2.2702378.5252016-2.2702378 2.1408655v4.5519123c0 .3230588-.1857959.5048641-.5159459.5048641h-2.0639098c-.330276 0-.515946-.1818053-.515946-.5048641V9.31644634c0-.32318207.18567-.5049874.515946-.5049874h2.0639098c.33015 0 .5159459.18180533.5159459.5049874v1.09144826c.3078545-1.01367256 1.121074-1.6074056 2.1464158-1.75778018v-.00012326m4.6334373 10.13435844L71.3030192 5.3541201C71.2028696 5.01766417 71.3630601 4.8 71.7237945 4.8h2.4644887c.2803946 0 .4808162.11891248.5609115.41565044l2.7849921 10.03874886 2.7851143-10.03874886C80.3993964 4.91891248 80.599818 4.8 80.8802126 4.8h2.4644887c.3606121 0 .520925.21766417.420653.5541201l-4.0672501 13.4302295c-.0802175.27706-.2805169.4156504-.5610337.4156504h-3.2056451c-.2805169 0-.4809385-.1385904-.5610338-.4156504M90.4277616 13.92c0-1.4199704-.9995587-2.3599852-2.2988752-2.3599852-1.2991946 0-2.2987533.9400148-2.2987533 2.3599852s.9995587 2.3599852 2.2987533 2.3599852c1.2993165 0 2.2988752-.9400148 2.2988752-2.3599852zm-7.5961827 0c0-2.9799482 2.3589001-5.28 5.2973075-5.28 2.9385294 0 5.2974294 2.3000518 5.2974294 5.28 0 2.9800703-2.3589 5.28-5.2974294 5.28-2.9384074 0-5.2973075-2.2999297-5.2973075-5.28zm12.5210527-6.7541971V5.31432115c0-.329235.1734131-.51432116.4816769-.51432116h1.9262374c.3082638 0 .4815594.1850861.4815594.5143211v1.8514818c0 .32911094-.1732956.5141971-.4815594.5141971h-1.9262374c-.3082638 0-.4816769-.18508616-.4816769-.5141971m0 11.5208629V9.1533342c0-.32852386.1734131-.5133342.4816769-.5133342h1.9262374c.3082638 0 .4815594.18481034.4815594.5133342v9.5333316c0 .3285239-.1732956.5133342-.4815594.5133342h-1.9262374c-.3082638 0-.4816769-.1848103-.4816769-.5133342m14.4112274-3.0066251C109.123241 17.7600111 107.098358 19.2 104.680782 19.2c-3.140542 0-5.4755188-2.2999297-5.4755188-5.28 0-2.9799482 2.3349768-5.28 5.4755188-5.28 2.417576 0 4.442459 1.4399889 5.083077 3.5200814.123836.3399482-.082725.5600296-.434057.5600296h-2.272806c-.268606 0-.454612-.120111-.619811-.3400703-.371886-.5000962-1.012504-.7799889-1.756403-.7799889-1.342902 0-2.376088.9400148-2.376088 2.3199482 0 1.3800555 1.033186 2.3200703 2.376088 2.3200703.743899 0 1.384517-.2800148 1.756403-.7600925.165199-.2399778.330524-.3599667.619811-.3599667h2.272806c.351332 0 .557893.2199593.434057.5600296m8.551727-2.8400629c-.314975-1.1378805-1.213766-1.5399593-2.112432-1.5399593-1.145498 0-1.937971.5424524-2.252945 1.5399593h4.365377zM121.357895 13.92c0 .2601184-.020393.4999741-.040787.7399519-.040786.3200518-.244469.4600592-.550117.4600592h-6.80385c.370185 1.1881709 1.320829 1.6600703 2.382516 1.6600703.570511 0 1.141022-.2000629 1.507725-.5000962.203807-.1600259.366704-.2599963.63169-.2599963l1.956002-.0198964c.366703 0 .570386.2399778.407365.5600296C120.053853 18.3000222 118.383231 19.2 116.304995 19.2c-3.382153 0-5.541837-2.2999297-5.541837-5.28 0-2.9799482 2.241132-5.28 5.460389-5.28 2.974664 0 5.134348 2.2600148 5.134348 5.28zM8.5481141 9.6h5.0564034c.4654571 0 .8428509.32241215.8428509.7200158 0 .3976037-.3773938.7200158-.8428509.7200158H8.5481141c-.4654571 0-.84285094-.3224121-.84285094-.7200158 0-.39760365.37739384-.7200158.84285094-.7200158zm.00983162 2.1600475h2.55804768c.4709347 0 .8526826.3222855.8526826.7200158 0 .3976037-.3817479.7198892-.8526826.7198892H8.55794572c-.4709347 0-.85268256-.3222855-.85268256-.7198892 0-.3977303.38174785-.7200158.85268256-.7200158zm-.85268256 2.8799367c0-.3976037.37739384-.7200158.84285094-.7200158h5.0564034c.4654571 0 .8428509.3224121.8428509.7200158S14.0699746 15.36 13.6045175 15.36H8.5481141c-.4654571 0-.84285094-.3224121-.84285094-.7200158z"/>
  </g>
</svg>
