<svg xmlns="http://www.w3.org/2000/svg" width="70" height="75">
  <g fill="none" fill-rule="evenodd">
    <path fill="#FF4CB7" d="M1.02491066 50.4017955L1.02491066 41.8812826 2.42805177 39.7361999 7.06851021 37.686383 10.7878188 40.4429399 14.4276161 37.9389484 17.3542731 39.400923 16.4410005 41.8812826 16.4410005 50.4017955"/>
    <path fill="#0BC8DA" d="M69.2454731 50.4166318L69.2454731 41.4308858 67.4696487 38.7162521 61.6242885 37.115038 58.412201 40.0228576 54.8479207 37.115038 51.1417231 38.1705018 53.7638505 41.4308858 53.7638505 50.4166318"/>
    <path fill="#DBE3E9" d="M16.4593249 50.4874227L16.4593249 40.757493 18.5023331 38.4769394 26.6608088 35.6594035 28.4939754 32.7628824 35.19417 37.1960805 41.4617136 32.7628824 44.1336572 35.6594035 52.0321886 38.4769394 53.9354989 41.6251526 53.9354989 50.4874227"/>
    <path fill="#455053" d="M60.8414844,24.9845313 C60.9887305,25.0582227 61.1451367,25.0929492 61.2992187,25.0929492 C61.675332,25.0929492 62.0375,24.8851367 62.2171484,24.5259766 C62.4704883,24.0194336 62.2651367,23.4035156 61.7585937,23.1501758 C59.3766797,21.9593555 54.9107617,21.9455469 54.7218164,21.9455469 C54.1555273,21.9455469 53.6964258,22.4046484 53.6964258,22.9709375 C53.6964258,23.5372266 54.1555273,23.9963281 54.7218164,23.9963281 C55.8742187,23.9964648 59.2201367,24.1739258 60.8414844,24.9845313"/>
    <path fill="#455053" d="M57.7777539,36.0530078 C57.8567773,36.0554687 57.9351172,36.0565625 58.0138672,36.0565625 C58.7920703,36.0565625 59.5516797,35.9389844 60.2746484,35.7146289 L60.2746484,36.1275195 C60.2746484,36.3320508 60.3003516,36.5324805 60.34875,36.7251172 L58.0108594,39.0628711 L55.6839062,36.7360547 C55.7245117,36.5516211 55.7474805,36.3496875 55.7473437,36.1269727 L55.747207,35.6942578 C56.3929297,35.9061719 57.0735156,36.0319531 57.7777539,36.0530078 Z M52.4580273,28.1771875 L52.4580273,26.2602539 C52.4580273,26.1009766 52.4209766,25.9440234 52.3497461,25.8016992 L51.7163281,24.5348633 C51.4843164,24.0707031 51.3616797,23.5511719 51.3616797,23.0321875 L51.3616797,22.9710742 C51.3616797,20.5136914 53.360918,18.5145898 55.8181641,18.5145898 L64.6601758,18.5145898 L64.6601758,22.7733789 C64.6601758,23.4616211 64.4974805,24.1508203 64.1897266,24.7664648 L63.6721094,25.8016992 C63.6008789,25.9441602 63.5638281,26.1009766 63.5638281,26.2602539 L63.5638281,28.4529492 C63.5638281,29.967793 62.965,31.3831055 61.8776758,32.4383008 C60.7908984,33.4929492 59.3552148,34.0499414 57.8394141,34.0031836 C54.8720703,33.9141797 52.4580273,31.3005273 52.4580273,28.1771875 Z M39.2870898,39.9278906 C39.2814844,39.9363672 39.2683594,39.955918 39.235,39.9591992 C39.2015039,39.9634375 39.1850977,39.9458008 39.1778516,39.9388281 L36.6120508,37.3730273 L41.4498437,34.0660742 L42.4761914,35.144375 L39.2870898,39.9278906 Z M30.848125,39.9386914 C30.8410156,39.9458008 30.8244727,39.9626172 30.7909766,39.9590625 C30.7576172,39.9557813 30.7444922,39.9362305 30.7388867,39.9277539 L27.5499219,35.1442383 L28.5761328,34.0659375 L33.4139258,37.3727539 L30.848125,39.9386914 Z M34.2167383,31.6451953 C34.4870313,31.6626953 34.7556836,31.6713086 35.0235156,31.6713086 C36.9841992,31.6713086 38.8711914,31.2026367 40.5658203,30.3130078 L40.5658203,32.1860547 L35.0129883,35.9816406 L29.4601563,32.1860547 L29.4601563,30.2719922 C30.8969336,31.0486914 32.5057031,31.5344531 34.2167383,31.6451953 Z M25.0746289,19.3063281 L25.0746289,16.7622656 C25.0746289,16.6079102 25.0397656,16.4554687 24.9726367,16.3164258 C24.312832,14.9500586 23.9782813,13.500293 23.9782813,12.0073242 L23.9782813,9.81449219 C23.9782813,5.54353516 27.4529883,2.06896484 31.7238086,2.06896484 L46.0476953,2.06896484 L46.0476953,12.0073242 C46.0476953,13.500293 45.7131445,14.9500586 45.0533398,16.3164258 C44.9862109,16.4554687 44.9513477,16.6079102 44.9513477,16.7622656 L44.9513477,19.6818945 C44.9513477,22.4587891 43.8350391,25.0344336 41.8080469,26.9344141 C41.5549805,27.1714844 41.2923438,27.3937891 41.0208203,27.600918 C41.0148047,27.6050195 41.0090625,27.6095312 41.0031836,27.6137695 C39.1042969,29.0554687 36.7784375,29.7561523 34.3494922,29.5987891 C29.1485742,29.2620508 25.0746289,24.7410352 25.0746289,19.3063281 Z M9.33337891,38.7130078 L8.37976563,37.8068359 C8.54068359,37.5053711 8.62914063,37.1635742 8.62914063,36.8055078 L8.62914063,35.7125781 C9.34445313,35.9361133 10.1048828,36.0566992 10.8929297,36.0566992 C11.6800195,36.0566992 12.4400391,35.9355664 13.156582,35.7132617 L13.1564453,36.8053711 C13.1564453,37.1635742 13.2447656,37.5055078 13.4058203,37.8071094 L12.4523438,38.7131445 C11.5777539,39.5441211 10.2076953,39.5439844 9.33337891,38.7130078 Z M3.28740234,33.8253125 C3.56740234,33.0933203 3.74896484,32.2549609 3.871875,31.3699805 C4.43734375,32.7258203 5.38439453,33.8832813 6.57822266,34.7090625 L6.57822266,35.9380273 C4.66019531,35.2478711 3.69810547,34.3277539 3.28740234,33.8253125 Z M4.24101562,25.2365039 C4.37199219,23.394082 5.10822266,21.6963086 6.31408203,20.4557227 C7.53074219,19.2039258 9.156875,18.5145898 10.8929297,18.5145898 C12.6289844,18.5145898 14.2549805,19.2039258 15.4717773,20.4557227 C16.6776367,21.6963086 17.4138672,23.394082 17.5448438,25.2365039 C17.5853125,25.8075781 17.6074609,26.4733984 17.6307031,27.1783203 C17.6327539,27.2388867 17.6348047,27.3002734 17.6368555,27.36125 C16.5212305,25.6424219 14.7983008,24.3757227 12.5721094,23.6604102 C10.5154492,22.9996484 8.74658203,23.0405273 8.67193359,23.0424414 C8.40341797,23.0499609 8.14857422,23.1623437 7.96222656,23.3556641 L6.11214844,25.274375 C5.71908203,25.6820703 5.73083984,26.3312109 6.13853516,26.7242773 C6.54623047,27.1173437 7.19537109,27.1054492 7.5884375,26.6978906 L9.12789062,25.1014258 C10.4536523,25.1662305 14.7188672,25.6622461 16.3776758,29.3149609 C15.9602734,32.0068164 13.6467188,34.0057813 10.8932031,34.0057813 C7.83125,34.0057813 5.34037109,31.5147656 5.34037109,28.4529492 C5.34037109,27.8866602 4.88126953,27.4275586 4.31498047,27.4275586 C4.25755859,27.4275586 4.20150391,27.4334375 4.14667969,27.4425977 C4.1496875,27.3544141 4.15255859,27.2660937 4.15556641,27.1787305 C4.17839844,26.4736719 4.20041016,25.8077148 4.24101562,25.2365039 Z M15.2070898,35.9414453 L15.2072266,34.7184961 C16.4000977,33.8972266 17.3485156,32.7419531 17.9143945,31.3758594 C18.0373047,32.2587891 18.2187305,33.0952344 18.4981836,33.8255859 C18.0898047,34.3231055 17.1232031,35.2515625 15.2070898,35.9414453 Z M62.635918,36.5391797 C62.453125,36.4869531 62.3254297,36.3176953 62.3254297,36.1275195 L62.3254297,34.7139844 C62.6699609,34.4752734 62.9986328,34.208125 63.3058398,33.9099414 C64.794707,32.4650977 65.6146094,30.5271094 65.6146094,28.4528125 L65.6146094,26.5022461 L66.024082,25.6834375 C66.4734766,24.7845117 66.710957,23.778125 66.710957,22.7732422 L66.710957,17.4890625 C66.710957,16.9227734 66.2518555,16.4636719 65.6855664,16.4636719 L55.8181641,16.4636719 C52.2301172,16.4636719 49.3108984,19.3828906 49.3108984,22.9709375 C49.3108984,23.8676758 49.508457,24.7045312 49.8821094,25.4518359 L50.4072461,26.5021094 L50.4072461,28.1769141 C50.4072461,30.8311719 51.7152344,33.2126758 53.6964258,34.6457617 L53.6966992,36.1272461 C53.6966992,36.3557031 53.6966992,36.4503125 52.85,36.6923047 L50.7836328,37.2826562 L44.8061523,35.1091016 C44.8276172,34.8270508 44.7324609,34.5402148 44.5266992,34.3240625 L42.6166016,32.3173047 L42.6166016,28.9485547 C42.8185352,28.782168 43.0175977,28.6112695 43.2105078,28.4305273 C45.6201758,26.1719336 47.0021289,22.9831055 47.0021289,19.6817578 L47.0021289,16.9914062 C47.7297461,15.4080664 48.0984766,13.7325781 48.0984766,12.0070508 L48.0984766,1.04357422 C48.0984766,0.477285156 47.639375,0.0181835937 47.0730859,0.0181835937 L31.7238086,0.0181835937 C26.3220508,0.0181835937 21.9275,4.41287109 21.9275,9.81449219 L21.9275,12.0073242 C21.9275,13.7328516 22.2962305,15.4083398 23.0238477,16.9916797 L23.0238477,19.3064648 C23.0238477,23.1395117 24.7281836,26.5927539 27.409375,28.8693945 L27.409375,32.3174414 L25.4992773,34.3241992 C25.2935156,34.5403516 25.1983594,34.8271875 25.2198242,35.1092383 L18.9109375,37.4032422 C18.45375,37.5694922 18.0289648,37.794668 17.6432813,38.0674219 L16.6526172,37.5720898 C19.6016406,36.2884375 20.5358398,34.4830664 20.5806836,34.3933789 C20.7250586,34.1047656 20.7250586,33.7648828 20.5806836,33.4762695 C19.8414453,31.997793 19.7518945,29.2878906 19.6799805,27.1105078 C19.6560547,26.385625 19.6333594,25.7008008 19.5900195,25.0910352 C19.2404297,20.1727148 15.5014453,16.4636719 10.8926562,16.4636719 C6.28386719,16.4636719 2.54474609,20.1725781 2.19529297,25.0910352 C2.15195312,25.7009375 2.12925781,26.3857617 2.10533203,27.1107812 C2.03341797,29.2880273 1.94373047,31.9976562 1.20462891,33.4761328 C1.06025391,33.7647461 1.06025391,34.1046289 1.20462891,34.3932422 C1.24947266,34.4829297 2.18175781,36.2846094 5.13666016,37.5697656 L2.38492187,38.9455664 C0.913828125,39.6815234 0,41.1601367 0,42.8048633 L0,50.3803125 C0,50.9466016 0.459101563,51.4057031 1.02539062,51.4057031 C1.59167969,51.4057031 2.05078125,50.9466016 2.05078125,50.3803125 L2.05078125,42.8048633 C2.05078125,41.9418945 2.53025391,41.1660156 3.30203125,40.7800586 L6.72861328,39.0668359 L7.92052734,40.1995508 C8.75396484,40.9915625 9.82310547,41.3873633 10.8926562,41.3873633 C11.9619336,41.3873633 13.0316211,40.9912891 13.8647852,40.1995508 L15.0565625,39.0669727 L16.1738281,39.6256055 C15.6477344,40.4673828 15.3491406,41.4544922 15.3491406,42.4884961 L15.3491406,50.3805859 C15.3491406,50.946875 15.8082422,51.4059766 16.3745313,51.4059766 C16.9408203,51.4059766 17.3999219,50.946875 17.3999219,50.3805859 L17.3999219,42.4884961 C17.3999219,41.0808398 18.2887305,39.8118164 19.6117578,39.3307031 L26.2633984,36.9120117 L29.0323633,41.0656641 C29.3863281,41.5966797 29.9535742,41.9372461 30.5886328,42.0001367 C30.6594531,42.0071094 30.7298633,42.0105273 30.8001367,42.0105273 C31.3604102,42.0105273 31.8970313,41.79 32.2981641,41.3890039 L33.9874609,39.699707 L33.9874609,41.3807227 C33.9874609,41.9470117 34.4465625,42.4061133 35.0128516,42.4061133 C35.5791406,42.4061133 36.0382422,41.9470117 36.0382422,41.3807227 L36.0382422,39.699707 L37.7275391,41.3890039 C38.1285352,41.7901367 38.6651562,42.0106641 39.2255664,42.0106641 C39.2957031,42.0106641 39.36625,42.0072461 39.4369336,42.0002734 C40.0721289,41.9373828 40.639375,41.5968164 40.9933398,41.0658008 L43.7624414,36.9122852 L50.4139453,39.3309766 C51.7368359,39.8120898 52.6257813,41.0811133 52.6257813,42.4887695 L52.6257813,50.3808594 C52.6257813,50.9471484 53.0848828,51.40625 53.6511719,51.40625 C54.2174609,51.40625 54.6765625,50.9471484 54.6765625,50.3808594 L54.6765625,42.4887695 C54.6765625,41.0630664 54.1101367,39.725957 53.1599414,38.7370703 L53.4132813,38.6647461 C53.6688086,38.5917383 54.0174414,38.4917969 54.3674414,38.3202148 L56.9854687,40.9382422 L56.9854687,50.3808594 C56.9854687,50.9471484 57.4445703,51.40625 58.0108594,51.40625 C58.5771484,51.40625 59.03625,50.9471484 59.03625,50.3808594 L59.03625,40.9382422 L61.6360938,38.3383984 C61.7743164,38.4086719 61.9195117,38.4680078 62.0723633,38.5116211 L66.3073633,39.721582 C67.2739648,39.9977539 67.9492188,40.8928516 67.9492188,41.8982812 L67.9492188,50.3808594 C67.9492188,50.9471484 68.4083203,51.40625 68.9746094,51.40625 C69.5408984,51.40625 70,50.9471484 70,50.3808594 L70,41.8982812 C70,39.9816211 68.7132031,38.2756445 66.8707813,37.7491406 L62.635918,36.5391797 Z"/>
    <path fill="#455053" d="M64.589082 42.7766992C64.022793 42.7766992 63.5636914 43.2358008 63.5636914 43.8020898L63.5636914 50.3803125C63.5636914 50.9466016 64.022793 51.4057031 64.589082 51.4057031 65.1553711 51.4057031 65.6144727 50.9466016 65.6144727 50.3803125L65.6144727 43.8020898C65.6144727 43.2358008 65.1553711 42.7766992 64.589082 42.7766992M5.41091797 44.1321289C4.84462891 44.1321289 4.38552734 44.5912305 4.38552734 45.1575195L4.38552734 50.3803125C4.38552734 50.9466016 4.84462891 51.4057031 5.41091797 51.4057031 5.97720703 51.4057031 6.43630859 50.9466016 6.43630859 50.3803125L6.43630859 45.1575195C6.43630859 44.5912305 5.97720703 44.1321289 5.41091797 44.1321289M28.3636719 11.837793C28.3636719 11.8029297 28.3866406 11.773125 28.4172656 11.7684766 29.7389258 11.5692773 32.3616016 11.2619336 35.0788867 11.4430859 38.2764648 11.655957 40.5924805 12.4586328 41.9625391 13.8288281 42.3629883 14.2292773 43.0122656 14.2292773 43.4125781 13.8288281 43.8130273 13.4283789 43.8130273 12.7791016 43.4125781 12.3787891 39.5344141 8.500625 31.420293 9.24205078 28.1114258 9.74080078 27.0692187 9.89789062 26.3128906 10.7798633 26.3128906 11.8379297L26.3128906 14.2001562C26.3128906 14.7664453 26.7719922 15.2255469 27.3382813 15.2255469 27.9045703 15.2255469 28.3636719 14.7664453 28.3636719 14.2001562L28.3636719 11.837793"/>
    <path fill="#14C3A2" stroke="#455053" stroke-width="2" d="M23.6786469,7.30130999 C23.6786469,6.85029688 23.626965,6.64484037 23.3160399,6.46031024 L12.3791287,0.132331145 C12.0745092,-0.0441103816 11.6991921,-0.0441103816 11.3945726,0.132331145 L0.492207679,6.46031024 C0.187588162,6.6366105 -1.42108547e-14,6.94856821 -1.42108547e-14,7.30130999 L-1.03431098e-14,19.9700659 C-1.03431098e-14,20.2955433 0.17223748,20.5960166 0.451788908,20.7604505 C0.453619723,20.7615806 2.07853881,21.7029788 2.07853881,21.7029788 C2.14036403,21.739708 2.17852949,21.8062444 2.17852949,21.8785727 L2.17881116,25.8434921 C2.17881116,26.0584993 2.41371886,26.1905832 2.59651873,26.0781353 L5.9071963,24.0431952 C5.96986652,24.0046295 6.04830992,24.0033581 6.11252929,24.0392397 L11.3945726,27.0982188 C11.6991921,27.274519 12.0745092,27.274519 12.3791287,27.0982188 L23.3160399,20.7604505 C23.5537686,20.6083618 23.6770314,20.423286 23.6786469,19.9700659 L23.6786469,7.30130999 Z" transform="translate(23 46)"/>
    <path fill="#FFF" d="M20.1268499,10.0689061 C20.1268499,10.3246952 20.0359554,10.5421127 19.8541635,10.7211651 L11.478797,18.9703234 C11.2970052,19.1493758 11.0762613,19.2389006 10.8165587,19.2389006 C10.5568561,19.2389006 10.3361122,19.1493758 10.1543204,18.9703234 L5.30439883,14.1934852 C5.12260702,14.0144328 5.03171247,13.7970153 5.03171247,13.5412262 C5.03171247,13.2854371 5.12260702,13.0680196 5.30439883,12.8889672 L6.6288754,11.5844491 C6.81066721,11.4053968 7.0314111,11.3158719 7.29111369,11.3158719 C7.55081627,11.3158719 7.77156016,11.4053968 7.95335197,11.5844491 L10.8165587,14.4141023 L17.2052104,8.11212904 C17.3870022,7.93307665 17.6077461,7.8435518 17.8674487,7.8435518 C18.1271513,7.8435518 18.3478952,7.93307665 18.529687,8.11212904 L19.8541635,9.41664709 C20.0359554,9.59569948 20.1268499,9.81311698 20.1268499,10.0689061 Z" transform="translate(23 46)"/>
  </g>
</svg>
