<?xml version="1.0" encoding="UTF-8"?>
<svg width="32px" height="32px" viewBox="0 0 32 32" version="1.1" xmlns="http://www.w3.org/2000/svg" xmlns:xlink="http://www.w3.org/1999/xlink">
    <!-- Generator: Sketch 46.2 (44496) - http://www.bohemiancoding.com/sketch -->
    <title>Icon</title>
    <desc>Created with Sketch.</desc>
    <defs></defs>
    <g id="Desktop-1440px" stroke="none" stroke-width="1" fill="none" fill-rule="evenodd">
        <g id="DD---How-it-works" transform="translate(-568.000000, -113.000000)">
            <g id="How-It-Works-Dropdowns" transform="translate(547.000000, 89.000000)">
                <g id="For-Brands" transform="translate(21.000000, 24.000000)">
                    <g id="Icon">
                        <rect id="Rectangle-8-Copy" fill="#FFFFFF" x="0.592592593" y="2.96296296" width="30.8148148" height="23.7037037" rx="1"></rect>
                        <path d="M1.59259259,2.96296296 L30.4074074,2.96296296 L30.4074074,2.96296296 C30.9596922,2.96296296 31.4074074,3.41067821 31.4074074,3.96296296 L31.4074074,22.5185185 L0.592592593,22.5185185 L0.592592593,3.96296296 L0.592592593,3.96296296 C0.592592593,3.41067821 1.04030784,2.96296296 1.59259259,2.96296296 Z" id="Rectangle-8-Copy" fill="#EDEFF2"></path>
                        <path d="M25.50311,7.7037037 L23.7491009,11.9126967 L23.7491009,27.6877588 C23.5282953,30.1853176 24.112965,31.4251367 25.50311,31.4072159 C26.8932549,31.3892951 27.4580844,30.1494761 27.1975983,27.6877588 L27.1975983,11.9126967 L25.50311,7.7037037 Z" id="Path-23" fill="#FFFFFF"></path>
                        <path d="M23.7037037,27.8518519 L27.2592593,27.8518519 L27.2592593,29.6296296 L27.2592593,29.6296296 C27.2592593,30.6114692 26.463321,31.4074074 25.4814815,31.4074074 L25.4814815,31.4074074 L25.4814815,31.4074074 C24.4996419,31.4074074 23.7037037,30.6114692 23.7037037,29.6296296 L23.7037037,27.8518519 Z" id="Rectangle-24" fill="#EDEFF2"></path>
                        <rect id="Rectangle-8" fill="#FFFFFF" x="6.51851852" y="0.592592593" width="18.962963" height="21.9259259"></rect>
                        <rect id="Rectangle-15" fill="#DBE3E9" x="9.48148148" y="17.7777778" width="7.7037037" height="4.14814815"></rect>
                        <path d="M30.7852766,2.22842553 L26.1011064,2.22842553 L26.1011064,0.510638298 C26.1011064,0.228765957 25.8726809,0 25.5904681,0 L6.40953191,0 C6.12731915,0 5.89889362,0.228765957 5.89889362,0.510638298 L5.89889362,2.22842553 L1.2147234,2.22842553 C0.544851064,2.22842553 0,2.7732766 0,3.44280851 L0,25.856766 C0,26.5266383 0.544851064,27.0714894 1.2147234,27.0714894 L12.3676596,27.0714894 L12.3676596,30.9787234 L7.55123404,30.9787234 C7.2692766,30.9787234 7.04059574,31.2074894 7.04059574,31.4893617 C7.04059574,31.7713191 7.2692766,32 7.55123404,32 L22.1881702,32 C22.4700426,32 22.6988085,31.7713191 22.6988085,31.4893617 C22.6988085,31.2074894 22.4700426,30.9787234 22.1881702,30.9787234 L19.6323404,30.9787234 L19.6323404,27.0714894 L21.7340426,27.0714894 C22.0162553,27.0714894 22.2446809,26.8430638 22.2446809,26.5608511 C22.2446809,26.2789787 22.0162553,26.0502128 21.7340426,26.0502128 L1.2147234,26.0502128 C1.10970213,26.0502128 1.0212766,25.9617872 1.0212766,25.856766 L1.0212766,3.44280851 C1.0212766,3.33812766 1.10970213,3.2493617 1.2147234,3.2493617 L5.89889362,3.2493617 L5.89889362,21.8956596 L2.62297872,21.8956596 C2.34076596,21.8956596 2.11234043,22.124 2.11234043,22.4062979 C2.11234043,22.6881702 2.34076596,22.9169362 2.62297872,22.9169362 L21.7340426,22.9169362 C22.0162553,22.9169362 22.2446809,22.6881702 22.2446809,22.4062979 C22.2446809,22.124 22.0162553,21.8956596 21.7340426,21.8956596 L17.7251064,21.8956596 L17.7251064,17.7221277 C17.7251064,17.4401702 17.4963404,17.2114894 17.2144681,17.2114894 L9.13293617,17.2114894 C8.8507234,17.2114894 8.62229787,17.4401702 8.62229787,17.7221277 L8.62229787,21.8956596 L6.92017021,21.8956596 L6.92017021,1.0212766 L25.0800851,1.0212766 L25.0800851,5.67421277 C25.0800851,5.95617021 25.3085106,6.18485106 25.5907234,6.18485106 C25.8726809,6.18485106 26.1013617,5.95617021 26.1013617,5.67421277 L26.1013617,3.24970213 L30.7852766,3.24970213 C30.8902979,3.24970213 30.9787234,3.33812766 30.9787234,3.44314894 L30.9787234,25.8571064 C30.9787234,25.9617872 30.8902979,26.0502128 30.7852766,26.0502128 L29.4468085,26.0502128 C29.1649362,26.0502128 28.9361702,26.2789787 28.9361702,26.5608511 C28.9361702,26.8430638 29.1649362,27.0714894 29.4468085,27.0714894 L30.7852766,27.0714894 C31.4551489,27.0714894 32,26.5266383 32,25.8571064 L32,3.44280851 C32,2.7732766 31.4551489,2.22842553 30.7852766,2.22842553 Z M13.3889362,30.9787234 L18.6114043,30.9787234 L18.6114043,27.0714894 L13.3889362,27.0714894 L13.3889362,30.9787234 Z M9.64357447,21.8956596 L16.7038298,21.8956596 L16.7038298,18.232766 L9.64357447,18.232766 L9.64357447,21.8956596 Z" id="Fill-1" fill="#455053"></path>
                        <rect id="Rectangle-14" fill="#0299BC" x="23.7037037" y="12.4444444" width="3.55555556" height="15.4074074"></rect>
                        <path d="M27.8454296,12.0815759 C27.844041,12.0742287 27.8433467,12.0665397 27.8420449,12.0595343 C27.8396149,12.0485135 27.8369245,12.0381761 27.8342341,12.0278388 C27.8324983,12.0224566 27.8315437,12.016818 27.8298079,12.0114358 C27.8264233,12.0007567 27.8226914,11.9900776 27.8186124,11.9793986 C27.8169635,11.9754687 27.815922,11.9714533 27.8141863,11.967438 L27.811843,11.961116 C27.8111487,11.9600908 27.8108016,11.9590656 27.8104544,11.9577841 L25.9649286,7.4325083 C25.8856052,7.23823472 25.6944134,7.11111111 25.4815249,7.11111111 C25.2688967,7.11111111 25.0777049,7.23823472 24.9983816,7.4325083 L23.1525085,11.9583822 C23.1514671,11.9604325 23.1487767,11.967438 23.1487767,11.967438 C23.1470409,11.9717951 23.1456523,11.9764084 23.1440034,11.9807655 C23.1402715,11.9907611 23.1361926,12.0010984 23.133155,12.0114358 C23.1314193,12.016818 23.1304646,12.0224566 23.1287289,12.0281805 C23.1260385,12.0385179 23.1233481,12.0488552 23.1212652,12.0595343 C23.1196162,12.0668815 23.1189219,12.0742287 23.1178805,12.0815759 C23.1162315,12.0905463 23.114843,12.0992604 23.1138015,12.1082308 C23.1121526,12.1249756 23.1111111,12.1416349 23.1111111,12.158636 L23.1111111,29.6666667 C23.1111111,30.9531097 24.1745992,32 25.4817852,32 C26.7887109,32 27.8518519,30.9534515 27.8518519,29.6666667 L27.8518519,12.158636 C27.8518519,12.1416349 27.8511576,12.1249756 27.8495086,12.1082308 C27.8484672,12.0992604 27.8467314,12.0905463 27.8454296,12.0815759 Z M24.1525553,27.3099248 L26.8104077,27.3099248 L26.8104077,12.6708895 L24.1525553,12.6708895 L24.1525553,27.3099248 Z M25.4815249,8.99934095 L26.560895,11.6460408 L24.402068,11.6460408 L25.4815249,8.99934095 Z M25.4815249,30.9748096 C24.7488689,30.9748096 24.1525553,30.3878027 24.1525553,29.6666667 L24.1525553,28.3351152 L26.8104077,28.3351152 L26.8104077,29.6666667 C26.8104077,30.3878027 26.2144412,30.9748096 25.4815249,30.9748096 Z" id="Fill-3" fill="#455053"></path>
                        <rect id="Rectangle-13" fill="#B94CC4" x="8.88888889" y="2.96296296" width="13.6296296" height="4.14814815"></rect>
                        <path d="M8.80898174,7.7037037 L22.5984257,7.7037037 C22.8815135,7.7037037 23.1111111,7.46909232 23.1111111,7.17923713 L23.1111111,3.48742953 C23.1111111,3.19792399 22.8815135,2.96296296 22.5984257,2.96296296 L8.80898174,2.96296296 C8.52563758,2.96296296 8.2962963,3.19792399 8.2962963,3.48742953 L8.2962963,7.17923713 C8.2962963,7.46909232 8.52563758,7.7037037 8.80898174,7.7037037 Z M9.32166718,6.65477056 L22.0857402,6.65477056 L22.0857402,4.0118961 L9.32166718,4.0118961 L9.32166718,6.65477056 Z" id="Fill-5" fill="#455053"></path>
                        <path d="M22.5981693,8.2962963 L8.80898174,8.2962963 C8.52563758,8.2962963 8.2962963,8.56167901 8.2962963,8.88888889 C8.2962963,9.21639506 8.52563758,9.48148148 8.80898174,9.48148148 L22.5984257,9.48148148 C22.8815135,9.48148148 23.1111111,9.21639506 23.1111111,8.88888889 C23.1111111,8.56167901 22.8815135,8.2962963 22.5981693,8.2962963 Z" id="Fill-6" fill="#455053"></path>
                        <path d="M16.6865471,11.2592593 L8.79493439,11.2592593 C8.51935374,11.2592593 8.2962963,11.524642 8.2962963,11.8518519 C8.2962963,12.179358 8.51935374,12.4444444 8.79493439,12.4444444 L16.6865471,12.4444444 C16.9617953,12.4444444 17.1851852,12.179358 17.1851852,11.8518519 C17.1851852,11.524642 16.9617953,11.2592593 16.6865471,11.2592593 Z" id="Fill-7" fill="#455053"></path>
                        <path d="M22.013719,11.2592593 L19.4677625,11.2592593 C19.1886925,11.2592593 18.962963,11.524642 18.962963,11.8518519 C18.962963,12.179358 19.1886925,12.4444444 19.4677625,12.4444444 L22.013719,12.4444444 C22.2924525,12.4444444 22.5185185,12.179358 22.5185185,11.8518519 C22.5185185,11.524642 22.2924525,11.2592593 22.013719,11.2592593 Z" id="Fill-8" fill="#455053"></path>
                        <path d="M16.6865471,13.037037 L8.79493439,13.037037 C8.51935374,13.037037 8.2962963,13.3024198 8.2962963,13.6296296 C8.2962963,13.9571358 8.51935374,14.2222222 8.79493439,14.2222222 L16.6865471,14.2222222 C16.9617953,14.2222222 17.1851852,13.9571358 17.1851852,13.6296296 C17.1851852,13.3024198 16.9617953,13.037037 16.6865471,13.037037 Z" id="Fill-9" fill="#455053"></path>
                        <path d="M21.9995225,13.037037 L19.481959,13.037037 C19.1950407,13.037037 18.962963,13.3024198 18.962963,13.6296296 C18.962963,13.9571358 19.1950407,14.2222222 19.481959,14.2222222 L21.9995225,14.2222222 C22.2863543,14.2222222 22.5185185,13.9571358 22.5185185,13.6296296 C22.5185185,13.3024198 22.2863543,13.037037 21.9995225,13.037037 Z" id="Fill-10" fill="#455053"></path>
                        <path d="M16.6865471,15.4074074 L8.79493439,15.4074074 C8.51935374,15.4074074 8.2962963,15.6727901 8.2962963,16 C8.2962963,16.3275062 8.51935374,16.5925926 8.79493439,16.5925926 L16.6865471,16.5925926 C16.9617953,16.5925926 17.1851852,16.3275062 17.1851852,16 C17.1851852,15.6727901 16.9617953,15.4074074 16.6865471,15.4074074 Z" id="Fill-11" fill="#455053"></path>
                        <path d="M21.9995225,15.4074074 L19.481959,15.4074074 C19.1950407,15.4074074 18.962963,15.6727901 18.962963,16 C18.962963,16.3275062 19.1950407,16.5925926 19.481959,16.5925926 L21.9995225,16.5925926 C22.2863543,16.5925926 22.5185185,16.3275062 22.5185185,16 C22.5185185,15.6727901 22.2863543,15.4074074 21.9995225,15.4074074 Z" id="Fill-12" fill="#455053"></path>
                    </g>
                </g>
            </g>
        </g>
    </g>
</svg>