<svg xmlns="http://www.w3.org/2000/svg" width="100" height="100" xmlns:xlink="http://www.w3.org/1999/xlink">
  <defs>
    <path id="a" d="M99.1735537 49.8424916L99.1735537 99.4214876 0.01582557 99.4214876 0.01582557 0.26349569 99.1735537 0.26349569z"/>
  </defs>
  <g fill="none" fill-rule="evenodd">
    <mask id="b" fill="#fff">
      <use xlink:href="#a"/>
    </mask>
    <path fill="#14C3A2" d="M28.0991736 55.3719008H53.7190083V68.59504129999999H28.0991736z" mask="url(#b)"/>
    <path fill="#455053" d="M95.4089151,6.90627747 L80.8918586,6.90627747 L80.8918586,1.58255671 C80.8918586,0.708985405 80.1839283,0 79.3093019,0 L19.8642518,0 C18.9896255,0 18.2816951,0.708985405 18.2816951,1.58255671 L18.2816951,6.90627747 L3.76463865,6.90627747 C1.68858801,6.90627747 0,8.59486548 0,10.6698611 L0,80.1346052 C0,82.2106559 1.68858801,83.8992439 3.76463865,83.8992439 L38.3295235,83.8992439 L38.3295235,96.0084403 L23.4025848,96.0084403 C22.5287498,96.0084403 21.8200281,96.7174257 21.8200281,97.590997 C21.8200281,98.4648321 22.5287498,99.1735537 23.4025848,99.1735537 L68.7649903,99.1735537 C69.6385616,99.1735537 70.347547,98.4648321 70.347547,97.590997 C70.347547,96.7174257 69.6385616,96.0084403 68.7649903,96.0084403 L60.8440302,96.0084403 L60.8440302,83.8992439 L67.3575699,83.8992439 C68.2321962,83.8992439 68.9401266,83.1913135 68.9401266,82.3166872 C68.9401266,81.4431159 68.2321962,80.7341305 67.3575699,80.7341305 L3.76463865,80.7341305 C3.43915949,80.7341305 3.16511342,80.4600844 3.16511342,80.1346052 L3.16511342,10.6698611 C3.16511342,10.345437 3.43915949,10.0703359 3.76463865,10.0703359 L18.2816951,10.0703359 L18.2816951,67.8584491 L8.12906629,67.8584491 C7.25443995,67.8584491 6.54650958,68.5661157 6.54650958,69.4410058 C6.54650958,70.3145771 7.25443995,71.0235625 8.12906629,71.0235625 L67.3575699,71.0235625 C68.2321962,71.0235625 68.9401266,70.3145771 68.9401266,69.4410058 C68.9401266,68.5661157 68.2321962,67.8584491 67.3575699,67.8584491 L54.9331809,67.8584491 L54.9331809,54.9239494 C54.9331809,54.0501143 54.2241955,53.3413926 53.3506242,53.3413926 L28.3045542,53.3413926 C27.4299279,53.3413926 26.7219975,54.0501143 26.7219975,54.9239494 L26.7219975,67.8584491 L21.4468085,67.8584491 L21.4468085,3.16511342 L77.7275365,3.16511342 L77.7275365,17.5853701 C77.7275365,18.4592052 78.4354669,19.1679269 79.3100932,19.1679269 C80.1839283,19.1679269 80.8926499,18.4592052 80.8926499,17.5853701 L80.8926499,10.0713909 L95.4089151,10.0713909 C95.7343942,10.0713909 96.0084403,10.345437 96.0084403,10.6709161 L96.0084403,80.1356603 C96.0084403,80.4600844 95.7343942,80.7341305 95.4089151,80.7341305 L91.2607702,80.7341305 C90.3871989,80.7341305 89.6782135,81.4431159 89.6782135,82.3166872 C89.6782135,83.1913135 90.3871989,83.8992439 91.2607702,83.8992439 L95.4089151,83.8992439 C97.4849657,83.8992439 99.1735537,82.2106559 99.1735537,80.1356603 L99.1735537,10.6698611 C99.1735537,8.59486548 97.4849657,6.90627747 95.4089151,6.90627747 Z M41.4946369,96.0084403 L57.6799719,96.0084403 L57.6799719,83.8992439 L41.4946369,83.8992439 L41.4946369,96.0084403 Z M29.887111,67.8584491 L51.7680675,67.8584491 L51.7680675,56.5065061 L29.887111,56.5065061 L29.887111,67.8584491 Z" mask="url(#b)"/>
    <path fill="#0BC8DA" d="M73.553719 38.0165289H85.1239669V85.9504132H73.553719z" mask="url(#b)"/>
    <path fill="#455053" d="M86.4935819,37.9420608 C86.4893617,37.9193775 86.4872516,37.8956392 86.4832952,37.8740109 C86.47591,37.8399859 86.4677334,37.808071 86.4595569,37.7761561 C86.4542817,37.7595393 86.4513803,37.7421312 86.4461052,37.7255143 C86.4358185,37.6925444 86.4244769,37.6595745 86.4120802,37.6266045 C86.4070688,37.6144716 86.4039036,37.6020749 86.3986285,37.5896782 L86.3915069,37.57016 C86.3893969,37.5669949 86.3883418,37.5638298 86.3872868,37.5598734 L80.7784421,23.588799 C80.5373659,22.98901 79.9563039,22.596536 79.3093019,22.596536 C78.6630913,22.596536 78.0820292,22.98901 77.8409531,23.588799 L72.2310533,37.5617197 C72.2278882,37.5680499 72.2197116,37.5896782 72.2197116,37.5896782 C72.2144364,37.6031299 72.2102163,37.617373 72.2052049,37.6308247 C72.1938632,37.6616845 72.1814665,37.6935994 72.1722349,37.7255143 C72.1669597,37.7421312 72.1640584,37.7595393 72.1587832,37.7772112 C72.1506066,37.8091261 72.1424301,37.841041 72.1360999,37.8740109 C72.1310884,37.8966942 72.1289784,37.9193775 72.1258133,37.9420608 C72.1208018,37.9697556 72.1165817,37.996659 72.1134166,38.0243538 C72.1084051,38.0760506 72.10524,38.1274837 72.10524,38.1799719 L72.10524,92.2332513 C72.10524,96.2049411 75.3373483,99.4370494 79.3100932,99.4370494 C83.2820468,99.4370494 86.5131001,96.2059961 86.5131001,92.2332513 L86.5131001,38.1799719 C86.5131001,38.1274837 86.51099,38.0760506 86.5059785,38.0243538 C86.5028134,37.996659 86.4975382,37.9697556 86.4935819,37.9420608 Z M75.2703534,84.957183 L83.3479866,84.957183 L83.3479866,39.7614735 L75.2703534,39.7614735 L75.2703534,84.957183 Z M79.3093019,28.4261474 L82.5896782,36.5974152 L76.0286619,36.5974152 L79.3093019,28.4261474 Z M79.3093019,96.271936 C77.0826446,96.271936 75.2703534,94.4596448 75.2703534,92.2332513 L75.2703534,88.1222965 L83.3479866,88.1222965 L83.3479866,92.2332513 C83.3479866,94.4596448 81.5367505,96.271936 79.3093019,96.271936 Z" mask="url(#b)"/>
    <path fill="#0BC8DA" d="M28.0991736 9.91735537H71.07438020000001V22.31404957H28.0991736z" mask="url(#b)"/>
    <path fill="#455053" d="M28.3045542 23.008792L70.8697908 23.008792C71.7436258 23.008792 72.4523475 22.3008616 72.4523475 21.4262353L72.4523475 10.2863548C72.4523475 9.41278354 71.7436258 8.70379814 70.8697908 8.70379814L28.3045542 8.70379814C27.4299279 8.70379814 26.7219975 9.41278354 26.7219975 10.2863548L26.7219975 21.4262353C26.7219975 22.3008616 27.4299279 23.008792 28.3045542 23.008792zM29.887111 19.8436786L69.287234 19.8436786 69.287234 11.8689116 29.887111 11.8689116 29.887111 19.8436786zM70.8689995 26.1739054L28.3045542 26.1739054C27.4299279 26.1739054 26.7219975 26.882627 26.7219975 27.7564621 26.7219975 28.6310884 27.4299279 29.3390188 28.3045542 29.3390188L70.8697908 29.3390188C71.7436258 29.3390188 72.4523475 28.6310884 72.4523475 27.7564621 72.4523475 26.882627 71.7436258 26.1739054 70.8689995 26.1739054zM53.3506242 34.6142078L28.3045542 34.6142078C27.4299279 34.6142078 26.7219975 35.3229295 26.7219975 36.1967646 26.7219975 37.0713909 27.4299279 37.7793213 28.3045542 37.7793213L53.3506242 37.7793213C54.2241955 37.7793213 54.9331809 37.0713909 54.9331809 36.1967646 54.9331809 35.3229295 54.2241955 34.6142078 53.3506242 34.6142078zM67.6624758 34.6142078L59.6808511 34.6142078C58.805961 34.6142078 58.0982944 35.3229295 58.0982944 36.1967646 58.0982944 37.0713909 58.805961 37.7793213 59.6808511 37.7793213L67.6624758 37.7793213C68.5363109 37.7793213 69.2450325 37.0713909 69.2450325 36.1967646 69.2450325 35.3229295 68.5363109 34.6142078 67.6624758 34.6142078zM53.3506242 40.9444347L28.3045542 40.9444347C27.4299279 40.9444347 26.7219975 41.6531563 26.7219975 42.5269914 26.7219975 43.4016177 27.4299279 44.1095481 28.3045542 44.1095481L53.3506242 44.1095481C54.2241955 44.1095481 54.9331809 43.4016177 54.9331809 42.5269914 54.9331809 41.6531563 54.2241955 40.9444347 53.3506242 40.9444347zM67.3575699 40.9444347L59.6808511 40.9444347C58.805961 40.9444347 58.0982944 41.6531563 58.0982944 42.5269914 58.0982944 43.4016177 58.805961 44.1095481 59.6808511 44.1095481L67.3575699 44.1095481C68.2321962 44.1095481 68.9401266 43.4016177 68.9401266 42.5269914 68.9401266 41.6531563 68.2321962 40.9444347 67.3575699 40.9444347zM53.3506242 47.2746615L28.3045542 47.2746615C27.4299279 47.2746615 26.7219975 47.9833832 26.7219975 48.8572182 26.7219975 49.7318446 27.4299279 50.4397749 28.3045542 50.4397749L53.3506242 50.4397749C54.2241955 50.4397749 54.9331809 49.7318446 54.9331809 48.8572182 54.9331809 47.9833832 54.2241955 47.2746615 53.3506242 47.2746615zM67.3575699 47.2746615L59.6808511 47.2746615C58.805961 47.2746615 58.0982944 47.9833832 58.0982944 48.8572182 58.0982944 49.7318446 58.805961 50.4397749 59.6808511 50.4397749L67.3575699 50.4397749C68.2321962 50.4397749 68.9401266 49.7318446 68.9401266 48.8572182 68.9401266 47.9833832 68.2321962 47.2746615 67.3575699 47.2746615z" mask="url(#b)"/>
  </g>
</svg>
