<svg xmlns="http://www.w3.org/2000/svg" width="47" height="38" viewBox="0 0 47 38"><path fill="#FFF" fill-rule="evenodd" d="M46.194 0c.446 0 .806.364.806.81v35.657c0 .447-.36.81-.806.81H.81a.813.813 0 0 1-.81-.81V.81C0 .364.363 0 .81 0h45.384zM29.23 17.727l-8.8-5.602a.805.805 0 0 0-.817-.027.804.804 0 0 0-.414.703V24c0 .293.16.563.413.703a.81.81 0 0 0 .817-.027l8.8-5.602a.798.798 0 0 0 .372-.676.79.79 0 0 0-.372-.67zm-27.607.103h6.48v-7.297h-6.48v7.297zm0 8.91h6.48v-7.292h-6.48v7.293zm37.273-8.91h6.486v-7.297h-6.486v7.297zm0 8.91h6.486v-7.292h-6.486v7.293zm0-17.825h6.486V1.623h-6.486v7.292zm-37.273 0h6.48V1.623h-6.48v7.292zm0 26.74h6.48v-7.292h-6.48v7.293zm37.273 0h6.486v-7.292h-6.486v7.293z"/></svg>