<?xml version="1.0" encoding="UTF-8"?>
<svg width="32px" height="29px" viewBox="0 0 32 29" version="1.1" xmlns="http://www.w3.org/2000/svg" xmlns:xlink="http://www.w3.org/1999/xlink">
    <!-- Generator: Sketch 46.2 (44496) - http://www.bohemiancoding.com/sketch -->
    <title>Icon</title>
    <desc>Created with Sketch.</desc>
    <defs></defs>
    <g id="Desktop-1440px" stroke="none" stroke-width="1" fill="none" fill-rule="evenodd">
        <g id="DD---How-it-works" transform="translate(-568.000000, -294.000000)">
            <g id="How-It-Works-Dropdowns" transform="translate(547.000000, 89.000000)">
                <g id="Managed-Services" transform="translate(21.000000, 204.000000)">
                    <g id="Icon" transform="translate(0.000000, 1.000000)">
                        <g id="handshake">
                            <polygon id="Path-8" fill="#AEE239" points="0.702791945 12.5268195 3.4222368 15.0705149 11.889134 6.61251638 6.29596298 0.933806523"></polygon>
                            <polygon id="Path-9" fill="#0299BC" points="25.7553217 0.920903397 20.0421053 6.63703704 28.6149212 15.1764095 31.3121193 12.3864424"></polygon>
                            <polygon id="Fill-1" fill="#FFFFFF" points="2.69473684 12.1802227 3.70017158 12.1802227 3.70017158 11.1844055 2.69473684 11.1844055"></polygon>
                            <polygon id="Fill-1-Copy-2" fill="#FFFFFF" points="27.9578947 12.1802227 28.9633295 12.1802227 28.9633295 11.1844055 27.9578947 11.1844055"></polygon>
                            <path d="M20.8792804,7.72879463 L19.5080806,9.0752976 L16.4729972,9.0752976 L7.17516431,19.3885908 C6.68403009,20.7584769 7.15265691,21.5155838 8.58104478,21.6599114 C8.82310879,23.1912903 9.57793865,23.876934 10.8455344,23.7168425 C10.7234514,25.3727565 11.4566497,25.9890389 13.0451291,25.5656896 C12.7559484,27.3508679 13.5443204,27.968026 15.4102451,27.417164 L26.0540555,16.5529212 L26.0540555,15.6152297 L27.2639377,14.4077121 L20.8792804,7.72879463 Z" id="Path-6" fill="#EDEFF2"></path>
                            <path d="M4.58225938,13.878832 L5.97894421,15.661996 L5.97894421,16.7152898 L16.4480376,27.102148 C17.4735693,27.798914 18.1667447,27.8959498 18.5275637,27.3932553 C18.8883827,26.8905609 19.0687922,26.2540482 19.0687922,25.4837171 C20.7530813,25.5632374 21.3892437,24.9569389 20.9772795,23.6648215 C21.971984,23.7641343 23.2835435,23.1246439 23.190799,21.754495 C24.084877,21.817288 25.6202845,20.4174504 24.9447998,19.4508583 L24.163434,18.3652485 L22.4251972,16.7152898 L17.598899,12.1432576 L13.9044793,15.661996 C12.9925492,15.6057934 12.4360052,15.4829867 12.2348474,15.2935761 C12.0336895,15.1041654 11.9589818,14.632584 12.0107243,13.878832 L15.4982259,10.3008097 L14.8469509,9.37717699 L12.8331041,9.37717699 L11.1463628,7.63946565 L4.58225938,13.878832 Z" id="Path-5" fill="#FFFFFF"></path>
                            <path d="M25.4877705,15.4920893 L25.4877705,16.4879065 L23.9796184,17.9816324 L22.3206511,16.3385339 L21.6168468,17.035606 L24.2309771,19.6247308 C24.3817923,19.7741034 24.4823358,20.0230577 24.4823358,20.272012 C24.4823358,20.5209663 24.3817923,20.7201298 24.2309771,20.9192932 C24.0801619,21.0686658 23.8288032,21.1682475 23.5774445,21.1682475 C23.3260858,21.1682475 23.1249989,21.0686658 22.9239119,20.9192932 L20.3097816,18.3301684 L19.6059773,19.0272405 L22.2201076,21.6163653 C22.3709228,21.7657379 22.4714663,22.0146922 22.4714663,22.2636465 C22.4714663,22.5126008 22.3709228,22.7117642 22.2201076,22.9109277 C22.0692924,23.0603003 21.8179337,23.159882 21.5665751,23.159882 C21.3152164,23.159882 21.1141294,23.0603003 20.9130425,22.9109277 L18.2989122,20.3218029 L17.5951079,21.0188749 L20.2092382,23.6079997 C20.3600534,23.7573723 20.4605968,24.0063266 20.4605968,24.255281 C20.4605968,24.5042353 20.3600534,24.7033987 20.2092382,24.9025622 C20.058423,25.0519347 19.8070643,25.1515165 19.5557056,25.1515165 C19.3043469,25.1515165 19.10326,25.0519347 18.902173,24.9025622 L16.2880427,22.3134373 L15.5842384,23.0105094 L18.1983687,25.5996342 C18.3491839,25.7490068 18.4497274,25.9979611 18.4497274,26.2469154 C18.4497274,26.4958697 18.3491839,26.6950332 18.1983687,26.8941966 C18.0475535,27.0435692 17.7961948,27.1431509 17.5448361,27.1431509 C17.2934774,27.1431509 17.0923905,27.0435692 16.8913035,26.8941966 L6.38451056,16.4879065 L6.38451056,15.4920893 L5.07744541,14.1975268 L10.9089669,8.42178686 L12.216032,9.71634927 L14.2269015,9.71634927 L14.7296189,10.2142579 L11.9646733,12.9527553 C11.6127712,13.3012913 11.4116842,13.7991999 11.4116842,14.2971086 C11.4116842,14.7950172 11.6127712,15.2929258 11.9646733,15.6414618 C12.3165755,15.9899979 12.8192929,16.1891613 13.3220102,16.1891613 C13.8247276,16.1891613 14.327445,15.9899979 14.6793471,15.6414618 L17.6453796,12.703801 L17.9972817,12.703801 C18.0978252,13.4506639 18.4497274,14.147736 19.0027165,14.6456446 C19.6562491,15.2929258 20.5611403,15.6912527 21.4660316,15.6912527 L22.4714663,15.6912527 C23.5774445,15.6912527 24.4823358,14.7950172 24.4823358,13.6996182 L23.4769011,13.6996182 C23.4769011,14.2473177 23.0244554,14.6954355 22.4714663,14.6954355 L21.4660316,14.6954355 C20.812499,14.6954355 20.1589664,14.4464812 19.7065208,13.9485725 C19.2038034,13.5004548 18.9524447,12.8531736 18.9524447,12.2058924 L18.9524447,11.7079837 L17.2432057,11.7079837 L13.9755428,14.9443898 C13.6236407,15.2929258 13.0203798,15.2929258 12.6684777,14.9443898 C12.5176624,14.7950172 12.417119,14.5460629 12.417119,14.2971086 C12.417119,14.0481543 12.5176624,13.8489908 12.6684777,13.6498274 L16.6399449,9.71634927 L19.6562491,9.71634927 L20.9633142,8.42178686 L26.7948357,14.1975268 L25.4877705,15.4920893 Z M14.9809775,26.8941966 C14.6290754,27.2427327 14.0258145,27.2427327 13.6739124,26.8941966 C13.5230972,26.7448241 13.4225537,26.4958697 13.4225537,26.2469154 C13.4225537,25.9979611 13.5230972,25.7987977 13.6739124,25.5996342 L13.9252711,25.3506799 L15.2323362,26.6452423 L14.9809775,26.8941966 Z M11.6630429,24.9025622 C11.5122277,24.7531896 11.4116842,24.5042353 11.4116842,24.255281 C11.4116842,24.0063266 11.5122277,23.8071632 11.6630429,23.6079997 L11.9144016,23.3590454 L13.2214668,24.6536078 L12.9701081,24.9025622 C12.6182059,25.2510982 12.0149451,25.2510982 11.6630429,24.9025622 Z M9.65217345,22.9109277 C9.50135824,22.7615551 9.40081477,22.5126008 9.40081477,22.2636465 C9.40081477,22.0146922 9.50135824,21.8155287 9.65217345,21.6163653 L9.90353214,21.367411 L11.2105973,22.6619734 L10.9592386,22.9109277 C10.6073364,23.2594637 10.0040756,23.2594637 9.65217345,22.9109277 Z M7.64130398,20.9192932 C7.49048877,20.7699206 7.3899453,20.5209663 7.3899453,20.272012 C7.3899453,20.0230577 7.49048877,19.8238942 7.64130398,19.6247308 L7.89266267,19.3757765 L9.19972782,20.6703389 L8.94836914,20.9192932 C8.59646698,21.2678292 7.99320614,21.2678292 7.64130398,20.9192932 Z M31.1684768,11.8573563 L28.5040747,14.496272 L20.6616838,6.72889755 L26.34239,1.10253016 L25.6385857,0.40545809 L19.9578795,6.03182549 C19.7567925,6.23098894 19.6562491,6.47994325 19.6562491,6.72889755 C19.6562491,6.97785186 19.7567925,7.22680617 19.9578795,7.42596962 L20.2595099,7.72471479 L19.2540752,8.72053203 L16.237771,8.72053203 L15.4334232,9.51718582 L14.6290754,8.72053203 L12.6182059,8.72053203 L11.6127712,7.72471479 L11.9144016,7.42596962 C12.1154886,7.22680617 12.216032,6.97785186 12.216032,6.72889755 C12.216032,6.47994325 12.1154886,6.23098894 11.9144016,6.03182549 L6.23369535,0.40545809 L5.52989104,1.10253016 L11.2105973,6.72889755 L3.36820636,14.496272 L0.703804314,11.8573563 L0,12.5544284 L2.66440205,15.1933441 C2.86548899,15.3925075 3.11684768,15.4920893 3.36820636,15.4920893 C3.61956504,15.4920893 3.87092373,15.3925075 4.07201067,15.1933441 L4.3736411,14.8945989 L5.37907583,15.8904161 L5.37907583,16.8862334 L7.18885835,18.6787044 L6.93749967,18.9276587 C6.58559751,19.2761948 6.38451056,19.7741034 6.38451056,20.272012 C6.38451056,20.7699206 6.58559751,21.2678292 6.93749967,21.6163653 C7.28940183,21.9649013 7.79211919,22.1640648 8.29483656,22.1640648 C8.3451083,22.1640648 8.3451083,22.1640648 8.39538003,22.1640648 C8.39538003,22.2138556 8.39538003,22.2138556 8.39538003,22.2636465 C8.39538003,22.7615551 8.59646698,23.2594637 8.94836914,23.6079997 C9.30027129,23.9565358 9.80298866,24.1556992 10.305706,24.1556992 C10.3559778,24.1556992 10.3559778,24.1556992 10.4062495,24.1556992 C10.4062495,24.2054901 10.4062495,24.2054901 10.4062495,24.255281 C10.4062495,24.7531896 10.6073364,25.2510982 10.9592386,25.5996342 C11.3111408,25.9481703 11.8138581,26.1473337 12.3165755,26.1473337 C12.3668472,26.1473337 12.3668472,26.1473337 12.417119,26.1473337 C12.417119,26.1971246 12.417119,26.1971246 12.417119,26.2469154 C12.417119,26.7448241 12.6182059,27.2427327 12.9701081,27.5912687 C13.3220102,27.9398047 13.8247276,28.1389682 14.327445,28.1389682 C14.8301623,28.1389682 15.3328797,27.9398047 15.6847819,27.5912687 L15.9361405,27.3423144 L16.1874992,27.5912687 C16.5394014,27.9398047 17.0421188,28.1389682 17.5448361,28.1389682 C18.0475535,28.1389682 18.5502709,27.9398047 18.902173,27.5912687 C19.2540752,27.2427327 19.4551621,26.7448241 19.4551621,26.2469154 C19.4551621,26.1971246 19.4551621,26.1971246 19.4551621,26.1473337 C19.5054338,26.1473337 19.5054338,26.1473337 19.5557056,26.1473337 C20.058423,26.1473337 20.5611403,25.9481703 20.9130425,25.5996342 C21.2649446,25.2510982 21.4660316,24.7531896 21.4660316,24.255281 C21.4660316,24.2054901 21.4660316,24.2054901 21.4660316,24.1556992 C21.5163033,24.1556992 21.5163033,24.1556992 21.5665751,24.1556992 C22.0692924,24.1556992 22.5720098,23.9565358 22.9239119,23.6079997 C23.2758141,23.2594637 23.4769011,22.7615551 23.4769011,22.2636465 C23.4769011,22.2138556 23.4769011,22.2138556 23.4769011,22.1640648 C23.5271728,22.1640648 23.5271728,22.1640648 23.5774445,22.1640648 C24.0801619,22.1640648 24.5828793,21.9649013 24.9347814,21.6163653 C25.2866836,21.2678292 25.4877705,20.7699206 25.4877705,20.272012 C25.4877705,19.7741034 25.2866836,19.2761948 24.9347814,18.9276587 L24.6834227,18.6787044 L26.4932053,16.8862334 L26.4932053,15.8904161 L27.49864,14.8945989 L27.8002704,15.1933441 C28.0013574,15.3925075 28.252716,15.4920893 28.5040747,15.4920893 C28.7554334,15.4920893 29.0067921,15.3925075 29.207879,15.1933441 L31.8722811,12.5544284 L31.1684768,11.8573563 L31.1684768,11.8573563 Z" id="Fill-3" fill="#455053"></path>
                        </g>
                    </g>
                </g>
            </g>
        </g>
    </g>
</svg>