<svg xmlns="http://www.w3.org/2000/svg" width="19" height="19">
  <path fill="#7F8C8C" fill-rule="evenodd" d="M16.741538 0H2.258462C1.011074 0 0 1.00848267 0 2.25327987V16.7467201C0 17.9909991 1.011074 19 2.258462 19h14.483076C17.988926 19 19 17.9909991 19 16.7467201V2.25327987C19 1.00848267 17.988926 0 16.741538 0zm-3.085045 2.9684423c0-.32752366.265854-.59337752.593377-.59337752h1.781169c.328042 0 .593896.26585386.593896.59337752v1.78168726c0 .32752366-.265854.59337752-.593896.59337752H14.24987c-.327523 0-.593377-.26585386-.593377-.59337752V2.9684423zM9.522025 5.8767695c2.018002 0 3.654065 1.63243597 3.654065 3.6452554 0 2.0133377-1.636063 3.6452555-3.654065 3.6452555-2.017484 0-3.653547-1.6319178-3.653547-3.6452555 0-2.01281943 1.636063-3.6452554 3.653547-3.6452554zm7.696806 10.7481657c0 .3275237-.265854.5938958-.593896.5938958H2.375065c-.328042 0-.593896-.2663721-.593896-.5938958V7.71857186h2.375065c-.309386.4451627-.414069 1.27589122-.414069 1.80345304 0 3.1793634 2.593241 5.7663858 5.77986 5.7663858 3.187137 0 5.780378-2.5870224 5.780378-5.7663858 0-.52756182-.075144-1.3453345-.458637-1.80345304h2.375065v8.90636334z"/>
</svg>