<svg xmlns="http://www.w3.org/2000/svg" width="180" height="170">
  <g fill="none" fill-rule="evenodd">
    <circle cx="90" cy="85" r="85" fill="#EDEFF2"/>
    <g transform="translate(40.56 45)">
      <rect width="94.5054945" height="72.5274725" x="2.1978022" y="8.79120879" fill="#FFF" rx="1"/>
      <path fill="#EDEFF2" d="M3.1978022,8.79120879 L95.7032967,8.79120879 L95.7032967,8.79120879 C96.2555815,8.79120879 96.7032967,9.23892404 96.7032967,9.79120879 L96.7032967,69.2307692 L2.1978022,69.2307692 L2.1978022,9.79120879 L2.1978022,9.79120879 C2.1978022,9.23892404 2.64551745,8.79120879 3.1978022,8.79120879 Z"/>
      <path fill="#FFF" d="M79.2614377,24.5719967 L73.6055421,37.5128768 L73.6055421,86.014546 C72.8935427,93.6934872 74.7788412,97.5054084 79.2614377,97.4503096 C83.7440341,97.3952107 85.5653568,93.5832896 84.7254056,86.014546 L84.7254056,37.5128768 L79.2614377,24.5719967 Z"/>
      <path fill="#EDEFF2" d="M73.6263736,85.7142857 L84.6153846,85.7142857 L84.6153846,91.2087912 L84.6153846,91.2087912 C84.6153846,94.2433228 82.1554107,96.7032967 79.1208791,96.7032967 L79.1208791,96.7032967 L79.1208791,96.7032967 C76.0863475,96.7032967 73.6263736,94.2433228 73.6263736,91.2087912 L73.6263736,85.7142857 Z"/>
      <path fill="#FFF" d="M19.7802198 2.1978022H79.1208791V69.2307692H19.7802198z"/>
      <path fill="#DBE3E9" d="M28.5714286 54.9450549H52.7472528V68.1318681H28.5714286z"/>
      <path fill="#455053" d="M94.8944239,6.86903547 L80.4556505,6.86903547 L80.4556505,1.57402279 C80.4556505,0.705162212 79.7515376,0 78.8816277,0 L19.7571341,0 C18.8872242,0 18.1831113,0.705162212 18.1831113,1.57402279 L18.1831113,6.86903547 L3.74433789,6.86903547 C1.67948232,6.86903547 0,8.5485178 0,10.612324 L0,79.7024805 C0,81.7673361 1.67948232,83.4468184 3.74433789,83.4468184 L38.1228321,83.4468184 L38.1228321,95.4907162 L23.2763867,95.4907162 C22.4072638,95.4907162 21.7023639,96.1958784 21.7023639,97.064739 C21.7023639,97.9338619 22.4072638,98.6387618 23.2763867,98.6387618 L68.3941761,98.6387618 C69.2630367,98.6387618 69.9681989,97.9338619 69.9681989,97.064739 C69.9681989,96.1958784 69.2630367,95.4907162 68.3941761,95.4907162 L60.5159297,95.4907162 L60.5159297,83.4468184 L66.9943452,83.4468184 C67.8642551,83.4468184 68.568368,82.7427056 68.568368,81.8727956 C68.568368,81.0039351 67.8642551,80.2987728 66.9943452,80.2987728 L3.74433789,80.2987728 C3.42061387,80.2987728 3.14804559,80.0262046 3.14804559,79.7024805 L3.14804559,10.612324 C3.14804559,10.2896493 3.42061387,10.0160317 3.74433789,10.0160317 L18.1831113,10.0160317 L18.1831113,67.4925234 L8.08523042,67.4925234 C7.21532049,67.4925234 6.51120763,68.1963739 6.51120763,69.0665462 C6.51120763,69.9354068 7.21532049,70.640569 8.08523042,70.640569 L66.9943452,70.640569 C67.8642551,70.640569 68.568368,69.9354068 68.568368,69.0665462 C68.568368,68.1963739 67.8642551,67.4925234 66.9943452,67.4925234 L54.6369546,67.4925234 L54.6369546,54.6277728 C54.6369546,53.7586498 53.9317923,53.05375 53.0629318,53.05375 L28.1519223,53.05375 C27.2820124,53.05375 26.5778996,53.7586498 26.5778996,54.6277728 L26.5778996,67.4925234 L21.3311569,67.4925234 L21.3311569,3.14804559 L77.3083919,3.14804559 L77.3083919,17.4905413 C77.3083919,18.3596642 78.0125047,19.0645641 78.8824147,19.0645641 C79.7515376,19.0645641 80.4564375,18.3596642 80.4564375,17.4905413 L80.4564375,10.0170811 L94.8944239,10.0170811 C95.2181479,10.0170811 95.4907162,10.2896493 95.4907162,10.6133734 L95.4907162,79.7035299 C95.4907162,80.0262046 95.2181479,80.2987728 94.8944239,80.2987728 L90.7686478,80.2987728 C89.8997872,80.2987728 89.194625,81.0039351 89.194625,81.8727956 C89.194625,82.7427056 89.8997872,83.4468184 90.7686478,83.4468184 L94.8944239,83.4468184 C96.9592794,83.4468184 98.6387618,81.7673361 98.6387618,79.7035299 L98.6387618,10.612324 C98.6387618,8.5485178 96.9592794,6.86903547 94.8944239,6.86903547 Z M41.2708777,95.4907162 L57.3689335,95.4907162 L57.3689335,83.4468184 L41.2708777,83.4468184 L41.2708777,95.4907162 Z M29.7259451,67.4925234 L51.488909,67.4925234 L51.488909,56.2017956 L29.7259451,56.2017956 L29.7259451,67.4925234 Z"/>
      <path fill="#0299BC" d="M73.6263736 38.4615385H84.6153846V85.7142858H73.6263736z"/>
      <path fill="#455053" d="M86.0271665,37.7374588 C86.0229691,37.7148978 86.0208704,37.6912875 86.0169353,37.6697758 C86.0095899,37.6359344 86.0014574,37.6041916 85.993325,37.5724488 C85.9880782,37.5559215 85.9851925,37.5386073 85.9799458,37.52208 C85.9697146,37.4892879 85.9584341,37.4564958 85.9461043,37.4237036 C85.9411199,37.4116361 85.9379718,37.3993063 85.9327251,37.3869764 L85.925642,37.3675635 C85.9235433,37.3644154 85.922494,37.3612674 85.9214446,37.3573323 L80.3428455,23.4615968 C80.1030693,22.8650421 79.5251406,22.4746845 78.8816277,22.4746845 C78.2389017,22.4746845 77.660973,22.8650421 77.4211968,23.4615968 L71.8415484,37.3591687 C71.8384003,37.3654648 71.8302679,37.3869764 71.8302679,37.3869764 C71.8250211,37.4003556 71.8208237,37.4145218 71.8158393,37.427901 C71.8045588,37.4585945 71.792229,37.4903372 71.7830472,37.52208 C71.7778004,37.5386073 71.7749147,37.5559215 71.769668,37.5734981 C71.7615355,37.6052409 71.7534031,37.6369837 71.747107,37.6697758 C71.7421226,37.6923368 71.7400239,37.7148978 71.7368759,37.7374588 C71.7318915,37.7650042 71.7276941,37.7917626 71.724546,37.819308 C71.7195616,37.8707261 71.7164136,37.9218818 71.7164136,37.9740869 L71.7164136,91.7358848 C71.7164136,95.6861573 74.9310928,98.9008366 78.8824147,98.9008366 C82.8329495,98.9008366 86.0465794,95.6872067 86.0465794,91.7358848 L86.0465794,37.9740869 C86.0465794,37.9218818 86.0444807,37.8707261 86.0394963,37.819308 C86.0363483,37.7917626 86.0311015,37.7650042 86.0271665,37.7374588 Z M74.8644591,84.4990527 L82.8985338,84.4990527 L82.8985338,39.5470604 L74.8644591,39.5470604 L74.8644591,84.4990527 Z M78.8816277,28.2728598 L82.1443146,36.4000641 L75.6186784,36.4000641 L78.8816277,28.2728598 Z M78.8816277,95.752791 C76.6669776,95.752791 74.8644591,93.9502725 74.8644591,91.7358848 L74.8644591,87.6470983 L82.8985338,87.6470983 L82.8985338,91.7358848 C82.8985338,93.9502725 81.0970647,95.752791 78.8816277,95.752791 Z"/>
      <path fill="#B94CC4" d="M28.5714286 9.89010989H70.3296704V21.978021990000002H28.5714286z"/>
      <path fill="#455053" d="M28.1519223 22.8847174L70.4876264 22.8847174C71.3567494 22.8847174 72.0616492 22.1806045 72.0616492 21.3106946L72.0616492 10.2308858C72.0616492 9.36202524 71.3567494 8.65686303 70.4876264 8.65686303L28.1519223 8.65686303C27.2820124 8.65686303 26.5778996 9.36202524 26.5778996 10.2308858L26.5778996 21.3106946C26.5778996 22.1806045 27.2820124 22.8847174 28.1519223 22.8847174zM29.7259451 19.7366718L68.9136036 19.7366718 68.9136036 11.8049086 29.7259451 11.8049086 29.7259451 19.7366718zM70.4868394 26.032763L28.1519223 26.032763C27.2820124 26.032763 26.5778996 26.7376629 26.5778996 27.6067858 26.5778996 28.4766957 27.2820124 29.1808086 28.1519223 29.1808086L70.4876264 29.1808086C71.3567494 29.1808086 72.0616492 28.4766957 72.0616492 27.6067858 72.0616492 26.7376629 71.3567494 26.032763 70.4868394 26.032763zM53.0629318 34.4275512L28.1519223 34.4275512C27.2820124 34.4275512 26.5778996 35.1324511 26.5778996 36.001574 26.5778996 36.871484 27.2820124 37.5755968 28.1519223 37.5755968L53.0629318 37.5755968C53.9317923 37.5755968 54.6369546 36.871484 54.6369546 36.001574 54.6369546 35.1324511 53.9317923 34.4275512 53.0629318 34.4275512zM67.2976069 34.4275512L59.3590229 34.4275512C58.4888507 34.4275512 57.7850001 35.1324511 57.7850001 36.001574 57.7850001 36.871484 58.4888507 37.5755968 59.3590229 37.5755968L67.2976069 37.5755968C68.1667298 37.5755968 68.8716297 36.871484 68.8716297 36.001574 68.8716297 35.1324511 68.1667298 34.4275512 67.2976069 34.4275512zM53.0629318 40.7236424L28.1519223 40.7236424C27.2820124 40.7236424 26.5778996 41.4285423 26.5778996 42.2976652 26.5778996 43.1675751 27.2820124 43.871688 28.1519223 43.871688L53.0629318 43.871688C53.9317923 43.871688 54.6369546 43.1675751 54.6369546 42.2976652 54.6369546 41.4285423 53.9317923 40.7236424 53.0629318 40.7236424zM66.9943452 40.7236424L59.3590229 40.7236424C58.4888507 40.7236424 57.7850001 41.4285423 57.7850001 42.2976652 57.7850001 43.1675751 58.4888507 43.871688 59.3590229 43.871688L66.9943452 43.871688C67.8642551 43.871688 68.568368 43.1675751 68.568368 42.2976652 68.568368 41.4285423 67.8642551 40.7236424 66.9943452 40.7236424zM53.0629318 47.0197336L28.1519223 47.0197336C27.2820124 47.0197336 26.5778996 47.7246335 26.5778996 48.5937564 26.5778996 49.4636663 27.2820124 50.1677792 28.1519223 50.1677792L53.0629318 50.1677792C53.9317923 50.1677792 54.6369546 49.4636663 54.6369546 48.5937564 54.6369546 47.7246335 53.9317923 47.0197336 53.0629318 47.0197336zM66.9943452 47.0197336L59.3590229 47.0197336C58.4888507 47.0197336 57.7850001 47.7246335 57.7850001 48.5937564 57.7850001 49.4636663 58.4888507 50.1677792 59.3590229 50.1677792L66.9943452 50.1677792C67.8642551 50.1677792 68.568368 49.4636663 68.568368 48.5937564 68.568368 47.7246335 67.8642551 47.0197336 66.9943452 47.0197336z"/>
    </g>
    <path fill="#455053" d="M24 3.02468507L26.8485929 3.02468507 26.8485929 0 24 0M6 10.0246851L8.84859287 10.0246851 8.84859287 7 6 7M31 36.0246851L33.8493165 36.0246851 33.8493165 33 31 33M18 19.0246851L20.8485929 19.0246851 20.8485929 16 18 16M0 19.0246851L2.84859287 19.0246851 2.84859287 16 0 16M12 32.0246851L14.8485929 32.0246851 14.8485929 29 12 29" transform="matrix(-1 0 0 1 180 103)"/>
    <path fill="#455053" d="M24 3.02468507L26.8485929 3.02468507 26.8485929 0 24 0M6 10.0246851L8.84859287 10.0246851 8.84859287 7 6 7M31 36.0246851L33.8493165 36.0246851 33.8493165 33 31 33M18 19.0246851L20.8485929 19.0246851 20.8485929 16 18 16M0 19.0246851L2.84859287 19.0246851 2.84859287 16 0 16M12 32.0246851L14.8485929 32.0246851 14.8485929 29 12 29" transform="translate(0 103)"/>
  </g>
</svg>
