<svg xmlns="http://www.w3.org/2000/svg" width="70" height="70">
  <g fill="none" fill-rule="evenodd">
    <path fill="#FF4CB7" d="M1.05273983,69.1400146 L25.2830419,69.1400146 L25.2830419,62.1456976 C24.9254865,60.6573291 24.3361648,59.678565 23.5150768,59.2094054 C22.6939888,58.7402457 21.3157004,58.0205628 19.3802117,57.0503566 C17.9532724,59.8202976 15.8824988,61.2052682 13.1678909,61.2052682 C10.453283,61.2052682 8.39810114,59.8202976 7.00234533,57.0503566 L2.53653635,59.2094054 C1.54733867,60.061208 1.05273983,61.039972 1.05273983,62.1456976 C1.05273983,63.2514232 1.05273983,65.5828622 1.05273983,69.1400146 Z"/>
    <path fill="#455053" d="M13.0810039,60.2774785 C11.1631133,60.2774785 9.38754687,59.2749199 8.38075,57.6758574 L9.04000781,57.3462285 C10.1369023,56.7975762 10.8184453,55.6949395 10.8184453,54.4685723 L10.8184453,53.2603887 C11.5403203,53.4552129 12.2984258,53.5607598 13.0810039,53.5607598 C13.8545586,53.5607598 14.6144414,53.4568535 15.3434258,53.2595684 L15.3434258,54.4685723 C15.3434258,55.6948027 16.024832,56.7974395 17.1218633,57.3462285 L17.7838555,57.6770879 C16.7795195,59.280252 15.0161211,60.2774785 13.0810039,60.2774785 M2.30537891,52.194666 C3.187625,50.0677324 4.22436328,46.0404082 4.24241016,41.6894707 C4.26141406,37.1015996 7.77508594,33.1863848 12.2418242,32.7762285 C12.7996367,32.724959 13.3619609,32.724959 13.9200469,32.7762285 C18.3866484,33.1863848 21.9003203,37.1015996 21.9193242,41.6894707 C21.9373711,46.0404082 22.9741094,50.0678691 23.8563555,52.194666 C23.8715313,52.2311699 23.8421367,52.2590605 23.8232695,52.2720488 C22.9181914,52.9061504 20.894207,54.0656621 17.437,54.7819316 C17.4092461,54.6814434 17.394207,54.5764434 17.394207,54.4685723 L17.394207,52.4116387 C18.7289922,51.648748 19.8629375,50.5349004 20.6471563,49.1548613 C22.0854375,46.6240605 21.5656328,43.3568926 19.4112188,41.386502 C17.90075,40.0052324 15.1961797,38.3585918 10.8891289,38.3585918 C10.6171953,38.3585918 10.3564727,38.4665996 10.1639727,38.6588262 L7.97209766,40.8505645 C7.57164844,41.2510137 7.57164844,41.900291 7.97209766,42.3007402 C8.37268359,42.7010527 9.02182422,42.7010527 9.42227344,42.3007402 L11.3080352,40.4149785 C14.0480156,40.491541 16.3068828,41.3266191 18.0272148,42.8998418 C19.4820391,44.230252 19.8340898,46.4348418 18.864207,48.141502 C17.6835039,50.2192168 15.4674297,51.5097051 13.0810039,51.5097051 C9.41612109,51.5097051 6.43469531,48.5281426 6.43469531,44.8633965 C6.43469531,44.2971074 5.97573047,43.8380059 5.40930469,43.8380059 C4.84287891,43.8380059 4.38391406,44.2971074 4.38391406,44.8633965 C4.38391406,48.089959 6.15141406,50.9096465 8.76766406,52.4108184 L8.76766406,54.4682988 C8.76766406,54.5761699 8.75248828,54.6813066 8.72487109,54.7817949 C5.26739063,54.0655254 3.24367969,52.9060137 2.338875,52.2720488 C2.31987109,52.2589238 2.29020313,52.2310332 2.30537891,52.194666 M23.7776055,58.3810527 L19.6940898,56.3392949 C22.4251836,55.5606816 24.1437383,54.5515605 25.0001445,53.9513652 C25.8236016,53.3741387 26.1321758,52.3285137 25.7505938,51.4086699 C24.9395781,49.454002 23.9869219,45.7334746 23.9701055,41.6808574 C23.9467266,36.0480449 19.6146563,31.2395098 14.107625,30.7337871 C13.4252617,30.6711699 12.7360625,30.6711699 12.0541094,30.7337871 C6.54707813,31.2395098 2.21487109,36.0480449 2.19149219,41.6808574 C2.17467578,45.7334746 1.22188281,49.454002 0.411003906,51.4086699 C0.029421875,52.3286504 0.338132813,53.3741387 1.16158984,53.9513652 C2.01799609,54.5515605 3.73627734,55.5606816 6.46764453,56.3392949 L2.38426563,58.3810527 C0.91371875,59.1164629 2.734375e-05,60.594666 2.734375e-05,62.2391191 L2.734375e-05,68.9745684 C2.734375e-05,69.5408574 0.458992188,69.999959 1.02541797,69.999959 C1.59184375,69.999959 2.05080859,69.5408574 2.05080859,68.9745684 L2.05080859,62.2391191 C2.05080859,61.3764238 2.53000781,60.6010918 3.30151172,60.2152715 L6.53846484,58.5967949 C7.89621875,60.8856035 10.3872344,62.3282598 13.0810039,62.3282598 C15.7986992,62.3282598 18.2689336,60.8918926 19.6239531,58.5970684 L22.8603594,60.2152715 C23.6318633,60.6010918 24.1109258,61.3764238 24.1109258,62.2391191 L24.1109258,68.9745684 C24.1109258,69.5408574 24.5698906,69.999959 25.1363164,69.999959 C25.7027422,69.999959 26.161707,69.5408574 26.161707,68.9745684 L26.161707,62.2391191 C26.161707,60.5948027 25.2482891,59.1164629 23.7776055,58.3810527"/>
    <path fill="#455053" d="M5.40914063 63.5654004C4.84271484 63.5654004 4.38375 64.024502 4.38375 64.590791L4.38375 68.974541C4.38375 69.5408301 4.84271484 69.9999316 5.40914063 69.9999316 5.97556641 69.9999316 6.43453125 69.5408301 6.43453125 68.974541L6.43453125 64.590791C6.43453125 64.0243652 5.97556641 63.5654004 5.40914063 63.5654004M20.7525391 63.5654004C20.1861133 63.5654004 19.7271484 64.024502 19.7271484 64.590791L19.7271484 68.974541C19.7271484 69.5408301 20.1861133 69.9999316 20.7525391 69.9999316 21.3189648 69.9999316 21.7779297 69.5408301 21.7779297 68.974541L21.7779297 64.590791C21.7779297 64.0243652 21.3189648 63.5654004 20.7525391 63.5654004M52.4647539 40.4798379L52.4647539 40.2479629C54.6612773 39.9341934 56.3991094 40.1916348 57.5148711 40.4851699 58.8592266 40.8388613 59.6171953 41.3197012 59.6423516 41.335834 59.8161211 41.450541 60.0121758 41.5053652 60.206043 41.5053652 60.5374492 41.5053652 60.8625664 41.3449941 61.060125 41.0485879 61.3743047 40.5774551 61.2467461 39.9407559 60.77575 39.6267129 60.627 39.5275918 57.0673906 37.2126699 51.23825 38.3784707 50.7587773 38.4743105 50.4139727 38.8951309 50.4139727 39.3839004L50.4139727 40.4798379C50.4139727 41.046127 50.8728008 41.5052285 51.4393633 41.5052285 52.0057891 41.5052285 52.4647539 41.046127 52.4647539 40.4798379"/>
    <path fill="#DBE3E9" d="M1.17047324,37.4212646 L27.5351592,37.4212646 L27.5351592,29.14517 C27.7186096,28.1188575 27.1282142,27.2620019 25.763973,26.5746034 C24.3997317,25.8872048 22.1010844,24.9414688 18.868031,23.7373953 L14.3691247,27.2275898 L9.72812107,23.7373953 L3.03907423,26.5746034 L1.17047324,29.14517 L1.17047324,37.4212646 Z" transform="translate(41.563 31.72)"/>
    <path fill="#455053" d="M13.993916,21.8378809 C14.0840137,21.840752 14.1738379,21.8419824 14.2639355,21.8419824 C15.4347949,21.8419824 16.5695605,21.6109277 17.6191504,21.171377 L17.6191504,22.5855957 C17.6191504,22.897041 17.6664551,23.201377 17.7525879,23.4916309 L14.2605176,26.1106152 L10.7684473,23.4916309 C10.8547168,23.201377 10.9021582,22.8969043 10.9021582,22.5855957 L10.9021582,21.1322754 C11.8604199,21.5550098 12.9027637,21.8052051 13.993916,21.8378809 M7.6143457,12.8230566 L7.6143457,10.9528809 C7.6143457,10.7936035 7.5771582,10.6365137 7.50606445,10.4941895 L7.10424805,9.69069336 C6.72102539,8.92424805 6.5184082,8.06592773 6.5184082,7.20473633 C6.5184082,4.39790039 8.80174805,2.11456055 11.6084473,2.11456055 L22.0027637,2.11456055 L22.0027637,7.20856445 C22.0027637,8.06592773 21.8002832,8.92424805 21.4169238,9.69069336 L21.0151074,10.4941895 C20.9440137,10.6366504 20.9068262,10.7936035 20.9068262,10.9528809 L20.9068262,13.1446191 C20.9068262,14.9579199 20.1901465,16.6518652 18.8887207,17.9150098 C17.5878418,19.1771973 15.8724316,19.8424707 14.055166,19.7880566 C10.5037598,19.6815527 7.6143457,16.5569824 7.6143457,12.8230566 M25.6387988,25.6322363 L20.4268066,23.6775684 C19.9738574,23.5079004 19.6699316,23.0690332 19.6699316,22.585459 L19.6699316,19.956084 C19.8930566,19.7782129 20.109209,19.5884473 20.316748,19.3866504 C22.0197168,17.7341309 22.9576074,15.517373 22.9576074,13.1447559 L22.9576074,11.194873 L23.2510059,10.6079395 C23.7760059,9.55821289 24.0534082,8.3828418 24.0534082,7.20856445 L24.0534082,1.08916992 C24.0534082,0.523017578 23.5945801,0.0637792969 23.0280176,0.0637792969 L11.6083105,0.0637792969 C7.67067383,0.0637792969 4.46749023,3.26709961 4.46749023,7.20856445 C4.46749023,8.38243164 4.7450293,9.55807617 5.26989258,10.6078027 L5.56342773,11.1947363 L5.56342773,12.8229199 C5.56342773,15.643291 6.85350586,18.1937793 8.85137695,19.8575098 L8.85137695,22.5853223 C8.85137695,23.0688965 8.54704102,23.5077637 8.09436523,23.6774316 L2.88264648,25.6320996 C1.20838867,26.2597754 0.0837402344,27.8827637 0.0837402344,29.6706348 L0.0837402344,37.255791 C0.0837402344,37.8220801 0.542568359,38.2811816 1.10913086,38.2811816 C1.67541992,38.2811816 2.13452148,37.8220801 2.13452148,37.255791 L2.13452148,29.6709082 C2.13452148,28.7330176 2.72432617,27.8816699 3.6024707,27.5524512 L8.81432617,25.5979199 C9.09651367,25.4920996 9.35614258,25.3466309 9.59157227,25.1724512 L13.2349902,27.9050488 L13.2349902,37.255791 C13.2349902,37.8220801 13.6940918,38.2811816 14.2603809,38.2811816 C14.8269434,38.2811816 15.2857715,37.8220801 15.2857715,37.255791 L15.2857715,27.9050488 L18.9293262,25.1724512 C19.1644824,25.3467676 19.4243848,25.4922363 19.7062988,25.5979199 L24.9184277,27.5524512 C25.7964355,27.8815332 26.3865137,28.7330176 26.3865137,29.6709082 L26.3865137,37.255791 C26.3865137,37.8220801 26.8453418,38.2811816 27.4119043,38.2811816 C27.9781934,38.2811816 28.4372949,37.8220801 28.4372949,37.255791 L28.4372949,29.6709082 C28.4375684,27.8829004 27.3127832,26.2599121 25.6387988,25.6322363" transform="translate(41.563 31.72)"/>
    <path fill="#455053" d="M48.1514414 62.4693809C47.5848789 62.4693809 47.1260508 62.9284824 47.1260508 63.4947715L47.1260508 68.9745957C47.1260508 69.5408848 47.5848789 69.9999863 48.1514414 69.9999863 48.7178672 69.9999863 49.176832 69.5408848 49.176832 68.9745957L49.176832 63.4947715C49.176832 62.9284824 48.7178672 62.4693809 48.1514414 62.4693809M63.4947715 62.4693809C62.9283457 62.4693809 62.4693809 62.9284824 62.4693809 63.4947715L62.4693809 68.9745957C62.4693809 69.5408848 62.9283457 69.9999863 63.4947715 69.9999863 64.061334 69.9999863 64.5201621 69.5408848 64.5201621 68.9745957L64.5201621 63.4947715C64.5201621 62.9284824 64.061334 62.4693809 63.4947715 62.4693809"/>
    <path fill="#DBE3E9" d="M10.0556723,25.0700183 C10.0869675,28.2446362 11.0919166,29.802194 13.0705195,29.7426918 C15.0491224,29.6831896 17.8580796,29.6534385 21.4973912,29.6534385 L30.8078398,35.5117295 L31.7735668,34.7115381 L30.8078398,29.6534385 L39.4212478,29.6534385 C41.8416906,29.6081427 43.0420293,28.572619 43.0222639,26.5468673 C43.0024984,24.5211156 42.9926157,18.4695968 42.9926157,8.3923109 C42.3720633,6.41061968 41.1816073,5.36984575 39.4212478,5.2699891 L38.3739884,5.2699891 L10.0556723,5.2699891 L10.0556723,25.0700183 Z" transform="translate(10.938)"/>
    <path fill="#14C3A2" d="M1.03216369,3.89007448 L1.03216369,22.0284391 C1.26024436,24.0387868 2.3628723,25.05396 4.34004753,25.0739587 C6.31722276,25.0939575 10.3376007,25.1039568 16.4011815,25.1039568 L14.8298533,32.5806219 L14.8298533,33.2112959 L26.3553072,25.1039568 L35.5192454,25.1039568 C37.4535662,24.6516048 38.4207266,23.6264322 38.4207266,22.0284391 C38.4207266,20.430446 38.4207266,14.4849529 38.4207266,4.19195994 C38.2077244,1.92353349 36.9120929,0.789320258 34.5338322,0.789320258 C32.1555715,0.789320258 22.0909766,0.789320258 4.34004753,0.789320258 C3.16594241,1.21554778 2.38996025,1.60576094 2.01210107,1.95995973 C1.63424188,2.31415852 1.30759609,2.9575301 1.03216369,3.89007448 Z" transform="translate(10.938)"/>
    <path fill="#455053" d="M29.6268438,29.6887363 L30.3336797,33.9298887 L22.8064922,28.9119004 L26.5877227,26.1618027 L35.0219023,26.1618027 C37.400125,26.1618027 39.3352422,24.226959 39.3352422,21.8485996 L39.3352422,6.43451758 L39.4056523,6.43451758 C40.6532109,6.43451758 41.6683477,7.44938086 41.6683477,8.69693945 L41.6683477,26.2322129 C41.6683477,27.4797715 40.6532109,28.4946348 39.4056523,28.4946348 L30.6380156,28.4946348 C30.3365508,28.4946348 30.0505352,28.627252 29.8557109,28.8572129 C29.6608867,29.0871738 29.5772148,29.3915098 29.6268438,29.6887363 L29.6268438,29.6887363 Z M15.8781328,31.4149473 L17.3855937,25.3851035 C17.4621562,25.0788535 17.3933867,24.7542832 17.1989727,24.5053184 C17.0046953,24.2564902 16.7065117,24.1110215 16.3908281,24.1110215 L4.33537891,24.1110215 C3.08782031,24.1110215 2.07282031,23.0961582 2.07282031,21.8485996 L2.07282031,4.31318945 C2.07282031,3.06563086 3.08782031,2.05076758 4.33537891,2.05076758 L35.0220391,2.05076758 C36.2695977,2.05076758 37.2845977,3.06563086 37.2845977,4.31318945 L37.2845977,21.8484629 C37.2845977,23.0960215 36.2695977,24.1108848 35.0220391,24.1108848 L26.2544023,24.1108848 C26.0377031,24.1108848 25.8266094,24.1795176 25.6513359,24.3070762 L15.8781328,31.4149473 Z M13.1030156,28.4947715 C11.855457,28.4947715 10.840457,27.4799082 10.840457,26.2323496 L10.840457,26.1618027 L15.0775078,26.1618027 L14.4942656,28.4947715 L13.1030156,28.4947715 Z M31.8400469,36.2595762 C32.3670977,35.9187363 32.6409453,35.2987168 32.5378594,34.679791 L31.8487969,30.5456895 L39.4057891,30.5456895 C41.7842852,30.5456895 43.7192656,28.6108457 43.7192656,26.2324863 L43.7192656,8.69707617 C43.7192656,6.3187168 41.7844219,4.38387305 39.4057891,4.38387305 L39.3353789,4.38387305 L39.3353789,4.31332617 C39.3353789,1.93483008 37.4003984,-1.3671875e-05 35.0220391,-1.3671875e-05 L4.33537891,-1.3671875e-05 C1.95688281,-1.3671875e-05 0.0220390625,1.93483008 0.0220390625,4.31318945 L0.0220390625,21.8484629 C0.0220390625,24.2268223 1.95688281,26.161666 4.33537891,26.161666 L8.78967578,26.161666 L8.78967578,26.2322129 C8.78967578,28.6105723 10.7245195,30.545416 13.1030156,30.545416 L13.9815703,30.545416 L13.5699102,32.1919199 C13.4074883,32.8414707 13.6612383,33.5033262 14.2164531,33.8777988 C14.4860625,34.0596348 14.7917656,34.1502793 15.0969219,34.1502793 C15.4202617,34.1502793 15.7431914,34.0485605 16.0218242,33.8459434 L20.5602031,30.5452793 L21.5603008,30.5452793 L30.1131523,36.2472715 C30.3775664,36.423502 30.6816289,36.5116855 30.9858281,36.5116855 C31.2826445,36.511959 31.5798711,36.427877 31.8400469,36.2595762 L31.8400469,36.2595762 Z" transform="translate(10.938)"/>
    <path fill="#FFF" d="M19.6565879 8.62657031L22.9439902 8.62657031C23.510416 8.62657031 23.9693809 8.16746875 23.9693809 7.60117969 23.9693809 7.03489062 23.510416 6.57578906 22.9439902 6.57578906L19.6565879 6.57578906C19.0901621 6.57578906 18.6311973 7.03489062 18.6311973 7.60117969 18.6311973 8.16746875 19.0902988 8.62657031 19.6565879 8.62657031M27.3286016 8.62657031L41.5757891 8.62657031C42.1422148 8.62657031 42.6011797 8.16746875 42.6011797 7.60117969 42.6011797 7.03489062 42.1422148 6.57578906 41.5757891 6.57578906L27.3286016 6.57578906C26.7621758 6.57578906 26.3032109 7.03489062 26.3032109 7.60117969 26.3032109 8.16746875 26.7621758 8.62657031 27.3286016 8.62657031M19.6565879 14.1063945L41.5756113 14.1063945C42.1420371 14.1063945 42.601002 13.647293 42.601002 13.0810039 42.601002 12.5147148 42.1420371 12.0556133 41.5756113 12.0556133L19.6565879 12.0556133C19.0901621 12.0556133 18.6311973 12.5147148 18.6311973 13.0810039 18.6311973 13.647293 19.0902988 14.1063945 19.6565879 14.1063945M33.9037754 17.5352461L19.6565879 17.5352461C19.0901621 17.5352461 18.6311973 17.9943477 18.6311973 18.5606367 18.6311973 19.1269258 19.0901621 19.5860273 19.6565879 19.5860273L33.9037754 19.5860273C34.4702012 19.5860273 34.929166 19.1269258 34.929166 18.5606367 34.929166 17.9943477 34.4702012 17.5352461 33.9037754 17.5352461M41.5757207 17.5352461L38.2883184 17.5352461C37.7220293 17.5352461 37.2629277 17.9943477 37.2629277 18.5606367 37.2629277 19.1269258 37.7220293 19.5860273 38.2883184 19.5860273L41.5757207 19.5860273C42.1422832 19.5860273 42.6011113 19.1269258 42.6011113 18.5606367 42.6011113 17.9943477 42.1421465 17.5352461 41.5757207 17.5352461"/>
  </g>
</svg>
