<svg xmlns="http://www.w3.org/2000/svg" width="70" height="81" xmlns:xlink="http://www.w3.org/1999/xlink">
  <defs>
    <path id="a" d="M0.01063291 0.14868354L0.01063291 28.7831139 66.6329114 28.7831139 66.6329114 0.14868354z"/>
  </defs>
  <g fill="none" fill-rule="evenodd">
    <g transform="translate(0 51.57)">
      <path fill="#DBE3E9" d="M33.4034668,5.76736257 L60.3805402,5.76736257 C63.3702239,5.94173514 65.0982463,7.28109886 65.5646075,9.78545371 L65.5646075,14.4261575 C64.3084412,12.5536468 62.9648606,11.5406903 61.5338658,11.387288 C60.102871,11.2338858 50.7260713,11.3105869 33.4034668,11.6173915 L33.4034668,5.76736257 Z"/>
      <mask id="b" fill="#fff">
        <use xlink:href="#a"/>
      </mask>
      <path fill="#455053" d="M60.9620253,4.75627848 L37.5696203,4.75627848 C36.9826835,4.75627848 36.5063291,5.23263291 36.5063291,5.81956962 C36.5063291,6.40668354 36.9826835,6.88286076 37.5696203,6.88286076 L60.9620253,6.88286076 C62.9161772,6.88286076 64.5063291,8.47301266 64.5063291,10.4271646 L64.5063291,11.676 C63.534481,10.8958987 62.3021266,10.4271646 60.9620253,10.4271646 L34.3797468,10.4271646 L34.3797468,5.81956962 C34.3797468,2.69278481 31.8358228,0.148683544 28.7088608,0.148683544 L5.67088608,0.148683544 C2.54392405,0.148683544 0,2.69278481 0,5.81956962 L0,56.3542532 C0,56.9420759 0.47635443,57.4175443 1.06329114,57.4175443 L65.5696203,57.4175443 C66.156557,57.4175443 66.6329114,56.9420759 66.6329114,56.3542532 L66.6329114,10.4271646 C66.6329114,7.30037975 64.0889873,4.75627848 60.9620253,4.75627848 Z" mask="url(#b)"/>
      <path fill="#F4F9FC" d="M64.5063291,55.290962 L2.12658228,55.290962 L2.12658228,5.81956962 C2.12658228,3.86541772 3.71673418,2.27526582 5.67088608,2.27526582 L28.7088608,2.27526582 C30.6630127,2.27526582 32.2531646,3.86541772 32.2531646,5.81956962 L32.2531646,11.4904557 C32.2531646,12.0775696 32.729519,12.5537468 33.3164557,12.5537468 L60.9620253,12.5537468 C62.9161772,12.5537468 64.5063291,14.1438987 64.5063291,16.0980506 L64.5063291,55.290962 Z" mask="url(#b)"/>
    </g>
    <path fill="#EDEFF2" d="M2,1 L25,1 L25,14.5617136 L19.8500899,14.5617136 L19.8500899,14.5617136 C18.7455204,14.5617136 17.8500899,15.4571441 17.8500899,16.5617136 L17.8500899,30 L15.9742797,30 L13.1251394,36.2090628 L10.1424139,30 L2,30 L2,1 Z" transform="translate(3.367)"/>
    <path fill="#FF4CB7" d="M17.7999859,25.9146304 L17.7999859,19.4142763 C14.9984695,17.7363378 12.1089636,17.5499688 9.13146829,18.8551694 C6.15397296,20.16037 4.8241421,22.5135237 5.14197571,25.9146304 L17.7999859,25.9146304 Z" transform="translate(3.367)"/>
    <path fill="#EDEFF2" d="M42,2 L66,2 L66,30 L56.7358458,30 L53.4690917,36.0188952 L50.3100453,30 L49.0050046,30 L49.0050046,17.3258029 L49.0050046,17.3258029 C49.0050046,15.6689487 47.6618588,14.3258029 46.0050046,14.3258029 L42,14.3258029 L42,2 Z" transform="translate(3.367)"/>
    <path fill="#14C3A2" d="M49,25.7492746 L49,19.219993 C52.9368497,17.6976192 55.9083009,17.6976192 57.9143534,19.219993 C59.9204059,20.7423669 61.0368662,22.9187941 61.2637342,25.7492746 L49,25.7492746 Z" transform="translate(3.367)"/>
    <path fill="#455053" d="M2.28306329,31.1110127 L9.49146835,31.1110127 L12.0789873,36.2862278 C12.259038,36.6468608 12.6272911,36.8738734 13.0301013,36.8738734 C13.4323797,36.8738734 13.8006329,36.6468608 13.9806835,36.2862278 L16.5689114,31.1110127 L17.096481,31.1110127 C17.6841266,31.1110127 18.1597722,30.6346582 18.1597722,30.0477215 C18.1597722,29.4598987 17.6841266,28.9844304 17.096481,28.9844304 L15.9112658,28.9844304 C15.5084557,28.9844304 15.1409114,29.211443 14.9608608,29.5720759 L13.0301013,33.4334177 L11.099519,29.5720759 C10.9194684,29.2121519 10.5512152,28.9844304 10.1484051,28.9844304 L2.28306329,28.9844304 C2.19711392,28.9844304 2.12658228,28.9144304 2.12658228,28.8279494 L2.12658228,2.28306329 C2.12658228,2.19711392 2.19711392,2.12658228 2.28306329,2.12658228 L23.7766076,2.12658228 C23.8630886,2.12658228 23.9330886,2.19711392 23.9330886,2.28306329 L23.9330886,13.8103797 C23.9330886,14.3973165 24.4092658,14.8736709 24.9963797,14.8736709 C25.5840253,14.8736709 26.0596709,14.3973165 26.0596709,13.8103797 L26.0596709,2.28306329 C26.0596709,1.02448101 25.0357215,0 23.7766076,0 L2.28306329,0 C1.02448101,0 0,1.02448101 0,2.28306329 L0,28.8279494 C0,30.0863544 1.02448101,31.1110127 2.28306329,31.1110127 Z" transform="translate(3.367)"/>
    <path fill="#455053" d="M13.0301013,4.25316456 C10.0971899,4.25316456 7.71098734,6.63936709 7.71098734,9.5724557 C7.71098734,12.5053671 10.0971899,14.8915696 13.0301013,14.8915696 C15.962481,14.8915696 18.3486835,12.5053671 18.3486835,9.5724557 C18.3486835,6.63936709 15.962481,4.25316456 13.0301013,4.25316456 Z" transform="translate(3.367)"/>
    <path fill="#FFF" d="M13.0301013,12.7642785 C11.2698228,12.7642785 9.83756962,11.3320253 9.83756962,9.57174684 C9.83756962,7.812 11.2698228,6.37974684 13.0301013,6.37974684 C14.790557,6.37974684 16.2221013,7.812 16.2221013,9.5724557 C16.2221013,11.3327342 14.790557,12.7642785 13.0301013,12.7642785 Z" transform="translate(3.367)"/>
    <path fill="#455053" d="M13.0301013 19.1440253C14.2803544 19.1440253 15.4987089 19.492962 16.5522532 20.1527342 17.0500506 20.4642785 17.7062785 20.3132911 18.0178228 19.8147848 18.3293671 19.3171646 18.1783797 18.6609367 17.6807595 18.3493924 16.2878481 17.478557 14.6797975 17.017443 13.0301013 17.017443 8.19070886 17.017443 4.25316456 20.9549873 4.25316456 25.794557 4.25316456 26.3814937 4.72951899 26.8578481 5.3164557 26.8578481L17.096481 26.8578481C17.6841266 26.8578481 18.1597722 26.3814937 18.1597722 25.794557 18.1597722 25.2067342 17.6841266 24.7312658 17.096481 24.7312658L6.46481013 24.7312658C6.97501266 21.5683291 9.72468354 19.1440253 13.0301013 19.1440253zM64.3498481 0L42.8563038 0C41.5971899 0 40.5732405 1.02448101 40.5732405 2.28306329L40.5732405 13.8103797C40.5732405 14.3973165 41.0488861 14.8736709 41.6365316 14.8736709 42.2236456 14.8736709 42.6998228 14.3973165 42.6998228 13.8103797L42.6998228 2.28306329C42.6998228 2.19711392 42.7698228 2.12658228 42.8563038 2.12658228L64.3498481 2.12658228C64.4357975 2.12658228 64.5063291 2.19711392 64.5063291 2.28306329L64.5063291 28.8279494C64.5063291 28.9137215 64.4357975 28.9844304 64.3498481 28.9844304L56.4845063 28.9844304C56.0816962 28.9844304 55.713443 29.211443 55.5333924 29.5720759L53.6028101 33.4334177 51.6720506 29.5720759C51.492 29.211443 51.1237468 28.9844304 50.7209367 28.9844304L49.5364304 28.9844304C48.9487848 28.9844304 48.4731392 29.4598987 48.4731392 30.0477215 48.4731392 30.6346582 48.9487848 31.1110127 49.5364304 31.1110127L50.064 31.1110127 52.6522278 36.2862278C52.8322785 36.6468608 53.2005316 36.8738734 53.6028101 36.8738734 54.0056203 36.8738734 54.3738734 36.6468608 54.5539241 36.2862278L57.141443 31.1110127 64.3498481 31.1110127C65.6091392 31.1110127 66.6329114 30.0863544 66.6329114 28.8279494L66.6329114 2.28306329C66.6329114 1.02448101 65.6084304 0 64.3498481 0z" transform="translate(3.367)"/>
    <path fill="#455053" d="M53.6028101,4.25316456 C50.6704304,4.25316456 48.2842278,6.63936709 48.2842278,9.5724557 C48.2842278,12.5053671 50.6704304,14.8915696 53.6028101,14.8915696 C56.5357215,14.8915696 58.9219241,12.5053671 58.9219241,9.5724557 C58.9219241,6.63936709 56.5357215,4.25316456 53.6028101,4.25316456 Z" transform="translate(3.367)"/>
    <path fill="#FFF" d="M53.6028101,12.7642785 C51.8423544,12.7642785 50.4108101,11.3320253 50.4108101,9.57174684 C50.4108101,7.812 51.8423544,6.37974684 53.6028101,6.37974684 C55.3630886,6.37974684 56.7953418,7.812 56.7953418,9.57174684 C56.7953418,11.3327342 55.3630886,12.7642785 53.6028101,12.7642785 Z" transform="translate(3.367)"/>
    <path fill="#455053" d="M48.4731392 25.794557C48.4731392 26.3814937 48.9487848 26.8578481 49.5364304 26.8578481L61.3164557 26.8578481C61.9033924 26.8578481 62.3797468 26.3814937 62.3797468 25.794557 62.3797468 20.9549873 58.4422025 17.017443 53.6028101 17.017443 51.9531139 17.017443 50.3450633 17.478557 48.9528608 18.3501013 48.4552405 18.6609367 48.3035443 19.3171646 48.6150886 19.8147848 48.9266329 20.3132911 49.5828608 20.4642785 50.0806582 20.1527342 51.1349114 19.492962 52.352557 19.1447342 53.6028101 19.1447342 56.9082278 19.1447342 59.6578987 21.5683291 60.1686329 24.7312658L49.5364304 24.7312658C48.9487848 24.7312658 48.4731392 25.207443 48.4731392 25.794557zM20.2863544 19.2826076L20.2863544 45.8267848C20.2863544 47.0858987 21.3108354 48.1098481 22.5699494 48.1098481L29.7776456 48.1098481 32.3653418 53.2857722C32.5452152 53.6456962 32.9136456 53.8734177 33.3164557 53.8734177 33.7187342 53.8734177 34.0869873 53.6456962 34.2675696 53.2857722L36.8552658 48.1098481 44.062962 48.1098481C45.3220759 48.1098481 46.3458481 47.0858987 46.3458481 45.8267848L46.3458481 19.2826076C46.3458481 18.0233165 45.3220759 16.9995443 44.062962 16.9995443L22.5699494 16.9995443C21.3108354 16.9995443 20.2863544 18.0233165 20.2863544 19.2826076zM44.2199747 19.2826076L44.2199747 45.8267848C44.2199747 45.9132658 44.149443 45.9832658 44.062962 45.9832658L36.1983291 45.9832658C35.7953418 45.9832658 35.4270886 46.2109873 35.2472152 46.5716203L33.3164557 50.4322532 31.3856962 46.5716203C31.2058228 46.2109873 30.8375696 45.9832658 30.4345823 45.9832658L22.5699494 45.9832658C22.4834684 45.9832658 22.4129367 45.9132658 22.4129367 45.8267848L22.4129367 19.2826076C22.4129367 19.1959494 22.4834684 19.1261266 22.5699494 19.1261266L44.062962 19.1261266C44.149443 19.1261266 44.2199747 19.1959494 44.2199747 19.2826076z" transform="translate(3.367)"/>
    <path fill="#455053" d="M33.3164557,31.8904051 C36.2495443,31.8904051 38.6357468,29.5042025 38.6357468,26.5712911 C38.6357468,23.6382025 36.2495443,21.252 33.3164557,21.252 C30.3833671,21.252 27.9971646,23.6382025 27.9971646,26.5712911 C27.9971646,29.5042025 30.3833671,31.8904051 33.3164557,31.8904051 Z" transform="translate(3.367)"/>
    <path fill="#F4F9FC" d="M33.3164557,23.3792911 C35.0769114,23.3792911 36.5091646,24.8108354 36.5091646,26.5712911 C36.5091646,28.3315696 35.0769114,29.7638228 33.3164557,29.7638228 C31.556,29.7638228 30.1237468,28.3315696 30.1237468,26.5712911 C30.1237468,24.8108354 31.556,23.3792911 33.3164557,23.3792911 Z" transform="translate(3.367)"/>
    <path fill="#455053" d="M25.6028101,43.8572152 L41.0301013,43.8572152 C41.6172152,43.8572152 42.0933924,43.381038 42.0933924,42.7939241 C42.0933924,37.9545316 38.1560253,34.0169873 33.3164557,34.0169873 C28.4768861,34.0169873 24.539519,37.9545316 24.539519,42.7939241 C24.539519,43.381038 25.0156962,43.8572152 25.6028101,43.8572152 Z" transform="translate(3.367)"/>
    <path fill="#0BC8DA" d="M33.3164557,36.1435696 C36.6211646,36.1435696 39.3708354,38.5671646 39.8817468,41.7301013 L26.7511646,41.7301013 C27.2613671,38.5671646 30.011038,36.1435696 33.3164557,36.1435696 Z" transform="translate(3.367)"/>
  </g>
</svg>
